<svg xmlns="http://www.w3.org/2000/svg" xmlns:xlink="http://www.w3.org/1999/xlink" viewBox="0 0 1240.44 271.95"><defs><style>.cls-1,.cls-2,.cls-3,.cls-4,.cls-5,.cls-6{stroke:#231f20;stroke-linecap:round;stroke-linejoin:round;stroke-width:4px;}.cls-1{fill:url(#linear-gradient);}.cls-2{fill:url(#linear-gradient-2);}.cls-3{fill:url(#linear-gradient-3);}.cls-4{fill:url(#linear-gradient-4);}.cls-5{fill:url(#linear-gradient-5);}.cls-6{fill:url(#linear-gradient-6);}.cls-7{fill:#231f20;}</style><linearGradient id="linear-gradient" x1="-370.67" y1="-681.36" x2="-316.34" y2="-593.33" gradientTransform="matrix(0.16, 0.99, -0.87, 0.14, -396.92, 543.84)" gradientUnits="userSpaceOnUse"><stop offset="0" stop-color="#fff"/><stop offset="0.06" stop-color="#e1dddb"/><stop offset="0.14" stop-color="#bab2ad"/><stop offset="0.24" stop-color="#988c84"/><stop offset="0.33" stop-color="#7c6c62"/><stop offset="0.43" stop-color="#645146"/><stop offset="0.54" stop-color="#533d30"/><stop offset="0.66" stop-color="#462f21"/><stop offset="0.8" stop-color="#3e2718"/><stop offset="1" stop-color="#3c2415"/></linearGradient><linearGradient id="linear-gradient-2" x1="109.24" y1="-5.12" x2="405.37" y2="588.51" gradientUnits="userSpaceOnUse"><stop offset="0" stop-color="#fff"/><stop offset="1" stop-color="#3c2415"/></linearGradient><linearGradient id="linear-gradient-3" x1="228.62" y1="84.72" x2="310.04" y2="247.94" xlink:href="#linear-gradient-2"/><linearGradient id="linear-gradient-4" x1="240.33" y1="111.36" x2="305.68" y2="217.25" gradientTransform="matrix(1, 0, 0, 1, 0, 0)" xlink:href="#linear-gradient"/><linearGradient id="linear-gradient-5" x1="-51.93" y1="-296" x2="48.04" y2="-95.62" gradientTransform="matrix(0.65, 0.76, -0.83, 0.71, -83.87, 389.1)" xlink:href="#linear-gradient-2"/><linearGradient id="linear-gradient-6" x1="3.09" y1="-306.99" x2="58.07" y2="-217.9" gradientTransform="matrix(0.72, 0.69, -0.61, 0.63, -87.97, 372.85)" xlink:href="#linear-gradient"/></defs><g id="Layer_2" data-name="Layer 2"><g id="Layer_1-2" data-name="Layer 1"><path class="cls-1" d="M174.11,165.22C117.75,126.89,92.65,85.94,79.7,21c-1.84-9.23-14.46-2.63-20.86,7.13-5.92,9-8.36,33.18-8.6,38.3C49.35,85.05,58,114.82,75,140c2.6,3.87,27.75,41.27,70.75,45.79C155.71,186.87,194.49,179.08,174.11,165.22Z"/><path class="cls-2" d="M175.61,156.8l31.77-30.51c-.17-22.49-7.65-56.17-38.53-93.85C151.78,11.61,123.57-.76,100.68,2.53,89,4.21,83.23,7.62,85.39,19.52,90.07,45.33,90.55,54.7,112.54,93c21.88,38.1,31.86,43.21,63.66,65.21Z"/><path class="cls-3" d="M338.52,78a3.31,3.31,0,0,1-1,6.25Q231.84,97.7,165.54,169.86a5.6,5.6,0,0,1-9.68-3.19l0-.34c0-.36-.1-.9-.15-1.54-1.56-18.89,8.91-34,12.31-38.88,5.48-7.9,14.12-16.88,37.19-29C230,84,253.61,71.58,287.09,70.83,299.93,70.55,322.2,70.06,338.52,78Z"/><path class="cls-4" d="M345.91,89.72c-71.88,8.2-129.65,36.4-174.78,84.76a18.43,18.43,0,0,0,0,24.55c7.83,8.53,15.78,12.6,19.67,15,31.4,19.18,75.72,8.22,103.36-6.8,4.24-2.3,48.71-27.33,60.08-75.82,2.64-11.25,6-25.7-1.43-38.27h0A7.06,7.06,0,0,0,345.91,89.72Z"/><path class="cls-5" d="M198,192.84c5.4,13.19,2.93,28-11.16,25.78-36.94-5.7-71.11-15.14-94.13-25.29-29.56-13-46.52-18.08-70.12-34.07-6.24-4.23-4.77-14.47,2.79-19.84,18.42-13.07,50.42-14.79,76.39-8.2C169.1,148.32,191.57,177.22,198,192.84Z"/><path class="cls-6" d="M183.55,223.43c-68.18-6.62-107.36-27.92-166.46-59.54-8-4.29-15.42,6.9-15.08,15.5.43,10.83,3.66,18.93,5,23.13,10.88,33.93,51.47,51.84,80.52,61.55,4.47,1.5,47.54,15.92,85.32-6.83C181.62,252,208.38,225.84,183.55,223.43Z"/><path class="cls-7" d="M418.08,220.41q-19.75,0-30-11.52T377.8,175.81q0-21.94,10.74-33.75t31-11.8a58.28,58.28,0,0,1,24.78,5.11l-5.59,14.87q-11.72-4.56-19.35-4.56-22.57,0-22.57,30,0,14.64,5.62,22T418.94,205a47.27,47.27,0,0,0,23.36-6.13V215a36.22,36.22,0,0,1-10.58,4.17A63.4,63.4,0,0,1,418.08,220.41Z"/><path class="cls-7" d="M506.89,130.26a44.75,44.75,0,0,1,9.2.79l-1.81,17.23a34.89,34.89,0,0,0-8.18-.95q-11.09,0-18,7.24t-6.89,18.8v45.47H462.76v-87h14.47l2.44,15.34h.94a34.62,34.62,0,0,1,11.29-12.35A26.85,26.85,0,0,1,506.89,130.26Z"/><path class="cls-7" d="M531.12,108.79q0-5,2.71-7.63t7.75-2.68q4.88,0,7.59,2.68t2.71,7.63a10,10,0,0,1-2.71,7.43q-2.71,2.72-7.59,2.71-5,0-7.75-2.71A10,10,0,0,1,531.12,108.79Zm19.59,110.05H532.22v-87h18.49Z"/><path class="cls-7" d="M635.59,194.06q0,12.75-9.29,19.55t-26.59,6.8q-17.38,0-27.92-5.27v-16q15.33,7.08,28.55,7.08,17.07,0,17.07-10.3a8.2,8.2,0,0,0-1.88-5.51,22.38,22.38,0,0,0-6.22-4.56,104.94,104.94,0,0,0-12-5.35q-15-5.82-20.33-11.64t-5.31-15.11q0-11.16,9-17.34t24.5-6.18a69.32,69.32,0,0,1,29,6.22l-6,13.92q-14.09-5.82-23.68-5.82-14.62,0-14.63,8.34a8.37,8.37,0,0,0,3.82,6.92q3.81,2.83,16.63,7.79,10.78,4.17,15.66,7.63a21.22,21.22,0,0,1,9.6,18.8Z"/><path class="cls-7" d="M699.7,220.41q-16.53,0-25.65-11.88H673c.73,7.35,1.1,11.8,1.1,13.38v35.63H655.57V131.83h14.94q.63,2.44,2.6,11.65h.94q8.66-13.22,26-13.22,16.29,0,25.37,11.8t9.09,33.12q0,21.31-9.25,33.27T699.7,220.41Zm-4.49-75q-11,0-16.08,6.45t-5.08,20.61v2.75q0,15.88,5,23t16.44,7.12a16.7,16.7,0,0,0,14.79-7.87q5.19-7.86,5.19-22.42t-5.15-22.14Q705.2,145.37,695.21,145.37Z"/><path class="cls-7" d="M800.07,130.26a44.85,44.85,0,0,1,9.21.79l-1.81,17.23a35,35,0,0,0-8.18-.95q-11.1,0-18,7.24t-6.88,18.8v45.47H755.94v-87h14.48l2.43,15.34h.95a34.53,34.53,0,0,1,11.29-12.35A26.82,26.82,0,0,1,800.07,130.26Z"/><path class="cls-7" d="M817.85,183.52V167.78h40.44v15.74Z"/><path class="cls-7" d="M921.69,130.26q16.29,0,25.37,11.8t9.08,33.12q0,21.39-9.2,33.31t-25.57,11.92q-16.51,0-25.64-11.88h-1.26l-3.38,10.31H877.24V96.44h18.49v29.1c0,2.15-.11,5.35-.31,9.6s-.37,7-.48,8.1h.79Q904.54,130.26,921.69,130.26Zm-4.8,15.11q-11.17,0-16.09,6.56t-5.07,22v1.26q0,15.88,5,23t16.45,7.12q9.82,0,14.9-7.79t5.08-22.5Q937.19,145.37,916.89,145.37Z"/><path class="cls-7" d="M1015.62,220.41q-20.29,0-31.75-11.84T972.43,176q0-21.33,10.62-33.52t29.18-12.19q17.24,0,27.22,10.46t10,28.8v10h-58q.4,12.66,6.85,19.47t18.17,6.8a66.54,66.54,0,0,0,14.36-1.46,74.64,74.64,0,0,0,14.27-4.83v15a56.71,56.71,0,0,1-13.68,4.56A83.28,83.28,0,0,1,1015.62,220.41Zm-3.39-76.15q-8.81,0-14.12,5.59t-6.33,16.28h39.49q-.16-10.77-5.19-16.32T1012.23,144.26Z"/><path class="cls-7" d="M1124.88,218.84l-3.7-12.12h-.63q-6.29,8-12.66,10.82t-16.36,2.87q-12.83,0-20-6.92t-7.2-19.59q0-13.46,10-20.29t30.44-7.48l15-.47V161q0-8.34-3.9-12.47t-12.07-4.13a41.76,41.76,0,0,0-12.82,2,96.11,96.11,0,0,0-11.8,4.64l-6-13.22a64.3,64.3,0,0,1,15.49-5.62,71.11,71.11,0,0,1,15.9-1.93q16.59,0,25.05,7.24t8.46,22.73v58.61Zm-27.53-12.59q10.07,0,16.16-5.62t6.1-15.77V177.3l-11.17.48q-13.07.47-19,4.36t-5.94,11.92q0,5.82,3.46,9T1097.35,206.25Z"/><path class="cls-7" d="M1240.44,218.84h-18.57V165.35q0-10.08-4-15T1205,145.37q-11.71,0-17.15,6.92t-5.43,23.2v43.35H1163.9v-87h14.47l2.6,11.41h.94a25.81,25.81,0,0,1,11.17-9.6,37.55,37.55,0,0,1,16.05-3.38q31.3,0,31.31,31.86Z"/></g></g></svg>