<?xml version="1.0" encoding="utf-8"?>
<!-- Generator: Adobe Illustrator 25.4.1, SVG Export Plug-In . SVG Version: 6.00 Build 0)  -->
<svg version="1.1" id="Layer_1" xmlns="http://www.w3.org/2000/svg" xmlns:xlink="http://www.w3.org/1999/xlink" x="0px" y="0px"
	 viewBox="0 0 143.3 49.3" style="enable-background:new 0 0 143.3 49.3;" xml:space="preserve">
<style type="text/css">
	.st0{fill:none;stroke:#29AAE1;stroke-width:0.7165;stroke-miterlimit:10;}
	.st1{fill:#010101;}
	.st2{fill:#231F20;}
	.st3{fill:none;stroke:#010101;stroke-width:0.1188;stroke-miterlimit:8;}
</style>
<rect x="85.1" y="1.4" class="st0" width="5.2" height="44.8"/>
<g>
	<g>
		<path class="st1" d="M45.8,5.5h0.1c0.1,0,0.2,0,0.3,0.1c0.1,0.1,0.1,0.2,0.1,0.3c0,0.1,0,0.2-0.1,0.3c-0.1,0.1-0.2,0.1-0.3,0.1
			h-0.1c-0.1,0-0.2,0-0.3-0.1c-0.1-0.1-0.1-0.2-0.1-0.3c0-0.1,0-0.2,0.1-0.3C45.5,5.6,45.6,5.5,45.8,5.5z"/>
		<path class="st1" d="M50,5.5h0.1c0.1,0,0.2,0,0.3,0.1c0.1,0.1,0.1,0.2,0.1,0.3c0,0.1,0,0.2-0.1,0.3c-0.1,0.1-0.2,0.1-0.3,0.1H50
			c-0.1,0-0.2,0-0.3-0.1c-0.1-0.1-0.1-0.2-0.1-0.3c0-0.1,0-0.2,0.1-0.3C49.7,5.6,49.8,5.5,50,5.5z"/>
		<path class="st1" d="M54.2,5.5h0.1c0.1,0,0.2,0,0.3,0.1c0.1,0.1,0.1,0.2,0.1,0.3c0,0.1,0,0.2-0.1,0.3c-0.1,0.1-0.2,0.1-0.3,0.1
			h-0.1c-0.1,0-0.2,0-0.3-0.1c-0.1-0.1-0.1-0.2-0.1-0.3c0-0.1,0-0.2,0.1-0.3C53.9,5.6,54.1,5.5,54.2,5.5z"/>
		<path class="st1" d="M58.6,2.6v3.4h0.7c0.1,0,0.1,0,0.1,0c0,0,0,0.1,0,0.1c0,0,0,0.1,0,0.1s-0.1,0-0.1,0h-1.8c-0.1,0-0.1,0-0.1,0
			s0-0.1,0-0.1c0,0,0-0.1,0-0.1c0,0,0.1,0,0.1,0h0.7V2.6h-1.2v1c0,0.1,0,0.1,0,0.2c0,0-0.1,0-0.1,0c0,0-0.1,0-0.1,0s0-0.1,0-0.2V2.3
			H60v1.3c0,0.1,0,0.1,0,0.2c0,0-0.1,0-0.1,0s-0.1,0-0.1,0c0,0,0-0.1,0-0.2v-1H58.6z"/>
		<path class="st1" d="M63.6,5h-1.9l-0.4,1h0.6c0.1,0,0.1,0,0.1,0c0,0,0,0.1,0,0.1c0,0,0,0.1,0,0.1s-0.1,0-0.1,0h-1.1
			c-0.1,0-0.1,0-0.1,0s0-0.1,0-0.1c0,0,0-0.1,0-0.1c0,0,0.1,0,0.1,0H61l1.3-3.4h-0.8c-0.1,0-0.1,0-0.1,0c0,0,0-0.1,0-0.1
			s0-0.1,0-0.1c0,0,0.1,0,0.1,0h1.4l1.4,3.7h0.2c0.1,0,0.1,0,0.1,0c0,0,0,0.1,0,0.1c0,0,0,0.1,0,0.1s-0.1,0-0.1,0h-1.1
			c-0.1,0-0.1,0-0.2,0s0-0.1,0-0.1c0,0,0-0.1,0-0.1c0,0,0.1,0,0.2,0H64L63.6,5z M63.5,4.7l-0.8-2.1h-0.1l-0.8,2.1H63.5z"/>
		<path class="st1" d="M67.8,5h-1.9l-0.4,1h0.6c0.1,0,0.1,0,0.1,0c0,0,0,0.1,0,0.1c0,0,0,0.1,0,0.1s-0.1,0-0.1,0H65
			c-0.1,0-0.1,0-0.1,0s0-0.1,0-0.1c0,0,0-0.1,0-0.1c0,0,0.1,0,0.1,0h0.2l1.3-3.4h-0.8c-0.1,0-0.1,0-0.1,0c0,0,0-0.1,0-0.1
			s0-0.1,0-0.1c0,0,0.1,0,0.1,0h1.4l1.4,3.7h0.2c0.1,0,0.1,0,0.1,0c0,0,0,0.1,0,0.1c0,0,0,0.1,0,0.1s-0.1,0-0.1,0h-1.1
			c-0.1,0-0.1,0-0.2,0s0-0.1,0-0.1c0,0,0-0.1,0-0.1c0,0,0.1,0,0.2,0h0.5L67.8,5z M67.7,4.7l-0.8-2.1h-0.1L66,4.7H67.7z"/>
		<path class="st1" d="M72.6,4.9v1.2c-0.2,0.1-0.4,0.2-0.7,0.3c-0.2,0.1-0.4,0.1-0.7,0.1c-0.3,0-0.6,0-0.8-0.1
			c-0.2-0.1-0.4-0.2-0.6-0.4s-0.3-0.3-0.4-0.6c-0.1-0.2-0.1-0.5-0.1-0.8V4.1c0-0.3,0.1-0.6,0.2-0.9c0.2-0.3,0.4-0.5,0.6-0.7
			s0.6-0.2,0.9-0.2c0.5,0,0.9,0.1,1.2,0.4c0-0.1,0-0.2,0-0.2c0,0,0,0,0-0.1c0,0,0.1,0,0.1,0c0,0,0.1,0,0.1,0s0,0.1,0,0.1v0.6
			c0,0.1,0,0.1,0,0.1c0,0-0.1,0-0.1,0c0,0-0.1,0-0.1,0c0,0,0-0.1,0-0.1c0-0.2-0.1-0.4-0.4-0.5c-0.2-0.1-0.5-0.2-0.8-0.2
			c-0.3,0-0.5,0.1-0.7,0.2c-0.2,0.1-0.4,0.3-0.6,0.7c-0.1,0.2-0.2,0.5-0.2,0.7v0.5c0,0.5,0.1,0.9,0.4,1.1s0.7,0.4,1.2,0.4
			c0.2,0,0.3,0,0.5-0.1s0.3-0.1,0.5-0.2V4.9h-1c-0.1,0-0.1,0-0.1,0c0,0,0-0.1,0-0.1s0-0.1,0-0.1s0.1,0,0.1,0l1.4,0
			c0.1,0,0.1,0,0.1,0c0,0,0,0.1,0,0.1c0,0,0,0.1,0,0.1s0,0-0.1,0C72.8,4.9,72.7,4.9,72.6,4.9z"/>
		<path class="st1" d="M76.2,5h-1.9l-0.4,1h0.6c0.1,0,0.1,0,0.1,0c0,0,0,0.1,0,0.1c0,0,0,0.1,0,0.1s-0.1,0-0.1,0h-1.1
			c-0.1,0-0.1,0-0.1,0s0-0.1,0-0.1c0,0,0-0.1,0-0.1c0,0,0.1,0,0.1,0h0.2l1.3-3.4H74c-0.1,0-0.1,0-0.1,0c0,0,0-0.1,0-0.1s0-0.1,0-0.1
			c0,0,0.1,0,0.1,0h1.4l1.4,3.7h0.2c0.1,0,0.1,0,0.1,0c0,0,0,0.1,0,0.1c0,0,0,0.1,0,0.1s-0.1,0-0.1,0H76c-0.1,0-0.1,0-0.2,0
			s0-0.1,0-0.1c0,0,0-0.1,0-0.1c0,0,0.1,0,0.2,0h0.5L76.2,5z M76.1,4.7l-0.8-2.1h-0.1l-0.8,2.1H76.1z"/>
		<path class="st1" d="M80.7,2.7V2.5c0-0.1,0-0.1,0-0.1c0,0,0.1,0,0.1,0s0.1,0,0.1,0c0,0,0,0.1,0,0.1v0.8c0,0.1,0,0.1,0,0.2
			c0,0-0.1,0-0.1,0c0,0-0.1,0-0.1,0c0,0,0-0.1,0-0.1c0-0.2-0.1-0.4-0.3-0.5c-0.3-0.2-0.6-0.3-0.9-0.3c-0.2,0-0.4,0-0.6,0.1
			c-0.1,0.1-0.3,0.2-0.3,0.3c-0.2,0.2-0.3,0.4-0.4,0.6c-0.1,0.2-0.1,0.3-0.1,0.5v0.5c0,0.4,0.2,0.8,0.5,1.1c0.3,0.3,0.7,0.5,1.1,0.5
			c0.2,0,0.5-0.1,0.7-0.2c0.2-0.1,0.4-0.3,0.6-0.5c0,0,0.1-0.1,0.1-0.1c0,0,0.1,0,0.1,0s0,0.1,0,0.1c0,0.1,0,0.1-0.1,0.2
			c-0.2,0.2-0.4,0.4-0.6,0.5c-0.2,0.1-0.5,0.2-0.7,0.2c-0.2,0-0.4,0-0.6-0.1c-0.2-0.1-0.3-0.1-0.4-0.2s-0.2-0.2-0.4-0.4
			c-0.2-0.2-0.3-0.4-0.3-0.5c-0.1-0.2-0.1-0.3-0.1-0.5V4c0-0.3,0.1-0.6,0.2-0.9c0.2-0.3,0.4-0.5,0.6-0.7c0.3-0.2,0.5-0.2,0.9-0.2
			C80,2.3,80.4,2.4,80.7,2.7z"/>
		<path class="st1" d="M83.8,2.6v3.4h0.7c0.1,0,0.1,0,0.1,0c0,0,0,0.1,0,0.1c0,0,0,0.1,0,0.1s-0.1,0-0.1,0h-1.8c-0.1,0-0.1,0-0.1,0
			s0-0.1,0-0.1c0,0,0-0.1,0-0.1c0,0,0.1,0,0.1,0h0.7V2.6h-1.2v1c0,0.1,0,0.1,0,0.2c0,0-0.1,0-0.1,0c0,0-0.1,0-0.1,0s0-0.1,0-0.2V2.3
			h3.2v1.3c0,0.1,0,0.1,0,0.2c0,0-0.1,0-0.1,0s-0.1,0-0.1,0c0,0,0-0.1,0-0.2v-1H83.8z"/>
		<path class="st1" d="M88.7,5.2H87l-0.2,0.4H87c0.2,0,0.3,0,0.4,0.1c0.1,0.1,0.1,0.1,0.1,0.3c0,0.1,0,0.2-0.1,0.3
			c-0.1,0.1-0.2,0.1-0.4,0.1h-0.9c-0.2,0-0.3,0-0.4-0.1c-0.1-0.1-0.1-0.1-0.1-0.3s0-0.2,0.1-0.3s0.2-0.1,0.4-0.1l1.1-2.7h-0.5
			c-0.2,0-0.3,0-0.4-0.1c-0.1-0.1-0.1-0.1-0.1-0.3s0-0.2,0.1-0.3c0.1-0.1,0.2-0.1,0.4-0.1l1.5,0l1.4,3.4c0.2,0,0.3,0,0.3,0.1
			c0.1,0.1,0.2,0.2,0.2,0.3c0,0.1,0,0.2-0.1,0.3c-0.1,0.1-0.2,0.1-0.4,0.1h-0.9c-0.2,0-0.3,0-0.4-0.1c-0.1-0.1-0.1-0.1-0.1-0.3
			c0-0.1,0-0.2,0.1-0.3c0.1-0.1,0.2-0.1,0.4-0.1h0.2L88.7,5.2z M88.4,4.5l-0.6-1.4l-0.6,1.4H88.4z"/>
		<path class="st1" d="M93.3,2.7V2.5c0-0.1,0-0.1,0-0.1c0,0,0.1,0,0.1,0s0.1,0,0.1,0c0,0,0,0.1,0,0.1v0.8c0,0.1,0,0.1,0,0.2
			c0,0-0.1,0-0.1,0c0,0-0.1,0-0.1,0c0,0,0-0.1,0-0.1c0-0.2-0.1-0.4-0.3-0.5c-0.3-0.2-0.6-0.3-0.9-0.3c-0.2,0-0.4,0-0.6,0.1
			c-0.1,0.1-0.3,0.2-0.3,0.3c-0.2,0.2-0.3,0.4-0.4,0.6c-0.1,0.2-0.1,0.3-0.1,0.5v0.5c0,0.4,0.2,0.8,0.5,1.1c0.3,0.3,0.7,0.5,1.1,0.5
			c0.2,0,0.5-0.1,0.7-0.2c0.2-0.1,0.4-0.3,0.6-0.5c0,0,0.1-0.1,0.1-0.1c0,0,0.1,0,0.1,0s0,0.1,0,0.1c0,0.1,0,0.1-0.1,0.2
			c-0.2,0.2-0.4,0.4-0.6,0.5c-0.2,0.1-0.5,0.2-0.7,0.2c-0.2,0-0.4,0-0.6-0.1c-0.2-0.1-0.3-0.1-0.4-0.2s-0.2-0.2-0.4-0.4
			c-0.2-0.2-0.3-0.4-0.3-0.5c-0.1-0.2-0.1-0.3-0.1-0.5V4c0-0.3,0.1-0.6,0.2-0.9c0.2-0.3,0.4-0.5,0.6-0.7c0.3-0.2,0.5-0.2,0.9-0.2
			C92.6,2.3,93,2.4,93.3,2.7z"/>
		<path class="st1" d="M97.2,5h-1.9l-0.4,1h0.6c0.1,0,0.1,0,0.1,0c0,0,0,0.1,0,0.1c0,0,0,0.1,0,0.1s-0.1,0-0.1,0h-1.1
			c-0.1,0-0.1,0-0.1,0s0-0.1,0-0.1c0,0,0-0.1,0-0.1c0,0,0.1,0,0.1,0h0.2l1.3-3.4H95c-0.1,0-0.1,0-0.1,0c0,0,0-0.1,0-0.1s0-0.1,0-0.1
			c0,0,0.1,0,0.1,0h1.4l1.4,3.7h0.2c0.1,0,0.1,0,0.1,0c0,0,0,0.1,0,0.1c0,0,0,0.1,0,0.1c0,0-0.1,0-0.1,0H97c-0.1,0-0.1,0-0.2,0
			s0-0.1,0-0.1c0,0,0-0.1,0-0.1c0,0,0.1,0,0.2,0h0.5L97.2,5z M97.1,4.7l-0.8-2.1h-0.1l-0.8,2.1H97.1z"/>
		<path class="st1" d="M102,4.9v1.2c-0.2,0.1-0.4,0.2-0.7,0.3c-0.2,0.1-0.4,0.1-0.7,0.1c-0.3,0-0.6,0-0.8-0.1
			c-0.2-0.1-0.4-0.2-0.6-0.4c-0.2-0.2-0.3-0.3-0.4-0.6c-0.1-0.2-0.1-0.5-0.1-0.8V4.1c0-0.3,0.1-0.6,0.2-0.9c0.2-0.3,0.4-0.5,0.6-0.7
			c0.3-0.2,0.6-0.2,0.9-0.2c0.5,0,0.9,0.1,1.2,0.4c0-0.1,0-0.2,0-0.2c0,0,0,0,0-0.1c0,0,0.1,0,0.1,0c0,0,0.1,0,0.1,0s0,0.1,0,0.1
			v0.6c0,0.1,0,0.1,0,0.1c0,0-0.1,0-0.1,0c0,0-0.1,0-0.1,0c0,0,0-0.1,0-0.1c0-0.2-0.1-0.4-0.4-0.5c-0.2-0.1-0.5-0.2-0.8-0.2
			c-0.3,0-0.5,0.1-0.7,0.2c-0.2,0.1-0.4,0.3-0.6,0.7c-0.1,0.2-0.2,0.5-0.2,0.7v0.5c0,0.5,0.1,0.9,0.4,1.1c0.3,0.3,0.7,0.4,1.2,0.4
			c0.2,0,0.3,0,0.5-0.1c0.1,0,0.3-0.1,0.5-0.2V4.9h-1c-0.1,0-0.1,0-0.1,0c0,0,0-0.1,0-0.1s0-0.1,0-0.1c0,0,0.1,0,0.1,0l1.4,0
			c0.1,0,0.1,0,0.1,0c0,0,0,0.1,0,0.1c0,0,0,0.1,0,0.1c0,0,0,0-0.1,0C102.2,4.9,102.1,4.9,102,4.9z"/>
		<path class="st1" d="M106.2,4.9v1.2c-0.2,0.1-0.4,0.2-0.7,0.3s-0.4,0.1-0.7,0.1c-0.3,0-0.6,0-0.8-0.1s-0.4-0.2-0.6-0.4
			c-0.2-0.2-0.3-0.3-0.4-0.6S103,4.9,103,4.6V4.1c0-0.3,0.1-0.6,0.2-0.9c0.2-0.3,0.4-0.5,0.6-0.7c0.3-0.2,0.6-0.2,0.9-0.2
			c0.5,0,0.9,0.1,1.2,0.4c0-0.1,0-0.2,0-0.2s0,0,0-0.1c0,0,0.1,0,0.1,0c0,0,0.1,0,0.1,0s0,0.1,0,0.1v0.6c0,0.1,0,0.1,0,0.1
			c0,0-0.1,0-0.1,0c0,0-0.1,0-0.1,0c0,0,0-0.1,0-0.1c0-0.2-0.1-0.4-0.4-0.5s-0.5-0.2-0.8-0.2c-0.3,0-0.5,0.1-0.7,0.2
			c-0.2,0.1-0.4,0.3-0.6,0.7c-0.1,0.2-0.2,0.5-0.2,0.7v0.5c0,0.5,0.1,0.9,0.4,1.1c0.3,0.3,0.7,0.4,1.2,0.4c0.2,0,0.3,0,0.5-0.1
			c0.1,0,0.3-0.1,0.5-0.2V4.9h-1c-0.1,0-0.1,0-0.1,0c0,0,0-0.1,0-0.1s0-0.1,0-0.1c0,0,0.1,0,0.1,0l1.4,0c0.1,0,0.1,0,0.1,0
			c0,0,0,0.1,0,0.1c0,0,0,0.1,0,0.1c0,0,0,0-0.1,0C106.4,4.9,106.3,4.9,106.2,4.9z"/>
		<path class="st1" d="M109,2.6v3.4h0.7c0.1,0,0.1,0,0.1,0c0,0,0,0.1,0,0.1c0,0,0,0.1,0,0.1c0,0-0.1,0-0.1,0H108c-0.1,0-0.1,0-0.1,0
			c0,0,0-0.1,0-0.1c0,0,0-0.1,0-0.1c0,0,0.1,0,0.1,0h0.7V2.6h-1.2v1c0,0.1,0,0.1,0,0.2c0,0-0.1,0-0.1,0c0,0-0.1,0-0.1,0s0-0.1,0-0.2
			V2.3h3.2v1.3c0,0.1,0,0.1,0,0.2s-0.1,0-0.1,0c0,0-0.1,0-0.1,0c0,0,0-0.1,0-0.2v-1H109z"/>
		<path class="st1" d="M114.6,4.9v1.2c-0.2,0.1-0.4,0.2-0.7,0.3s-0.4,0.1-0.7,0.1c-0.3,0-0.6,0-0.8-0.1s-0.4-0.2-0.6-0.4
			c-0.2-0.2-0.3-0.3-0.4-0.6s-0.1-0.5-0.1-0.8V4.1c0-0.3,0.1-0.6,0.2-0.9c0.2-0.3,0.4-0.5,0.6-0.7c0.3-0.2,0.6-0.2,0.9-0.2
			c0.5,0,0.9,0.1,1.2,0.4c0-0.1,0-0.2,0-0.2s0,0,0-0.1c0,0,0.1,0,0.1,0c0,0,0.1,0,0.1,0s0,0.1,0,0.1v0.6c0,0.1,0,0.1,0,0.1
			c0,0-0.1,0-0.1,0c0,0-0.1,0-0.1,0c0,0,0-0.1,0-0.1c0-0.2-0.1-0.4-0.4-0.5s-0.5-0.2-0.8-0.2c-0.3,0-0.5,0.1-0.7,0.2
			c-0.2,0.1-0.4,0.3-0.6,0.7c-0.1,0.2-0.2,0.5-0.2,0.7v0.5c0,0.5,0.1,0.9,0.4,1.1c0.3,0.3,0.7,0.4,1.2,0.4c0.2,0,0.3,0,0.5-0.1
			c0.1,0,0.3-0.1,0.5-0.2V4.9h-1c-0.1,0-0.1,0-0.1,0c0,0,0-0.1,0-0.1s0-0.1,0-0.1c0,0,0.1,0,0.1,0l1.4,0c0.1,0,0.1,0,0.1,0
			c0,0,0,0.1,0,0.1c0,0,0,0.1,0,0.1c0,0,0,0-0.1,0C114.8,4.9,114.7,4.9,114.6,4.9z"/>
		<path class="st1" d="M118.2,5h-1.9l-0.4,1h0.6c0.1,0,0.1,0,0.1,0c0,0,0,0.1,0,0.1c0,0,0,0.1,0,0.1c0,0-0.1,0-0.1,0h-1.1
			c-0.1,0-0.1,0-0.1,0c0,0,0-0.1,0-0.1c0,0,0-0.1,0-0.1c0,0,0.1,0,0.1,0h0.2l1.3-3.4H116c-0.1,0-0.1,0-0.1,0c0,0,0-0.1,0-0.1
			s0-0.1,0-0.1c0,0,0.1,0,0.1,0h1.4l1.4,3.7h0.2c0.1,0,0.1,0,0.1,0c0,0,0,0.1,0,0.1c0,0,0,0.1,0,0.1c0,0-0.1,0-0.1,0H118
			c-0.1,0-0.1,0-0.2,0c0,0,0-0.1,0-0.1c0,0,0-0.1,0-0.1c0,0,0.1,0,0.2,0h0.5L118.2,5z M118.1,4.7l-0.8-2.1h-0.1l-0.8,2.1H118.1z"/>
		<path class="st1" d="M122.7,2.7V2.5c0-0.1,0-0.1,0-0.1s0.1,0,0.1,0c0,0,0.1,0,0.1,0c0,0,0,0.1,0,0.1v0.8c0,0.1,0,0.1,0,0.2
			c0,0-0.1,0-0.1,0c0,0-0.1,0-0.1,0s0-0.1,0-0.1c0-0.2-0.1-0.4-0.3-0.5c-0.3-0.2-0.6-0.3-0.9-0.3c-0.2,0-0.4,0-0.6,0.1
			c-0.1,0.1-0.3,0.2-0.3,0.3c-0.2,0.2-0.3,0.4-0.4,0.6c-0.1,0.2-0.1,0.3-0.1,0.5v0.5c0,0.4,0.2,0.8,0.5,1.1c0.3,0.3,0.7,0.5,1.1,0.5
			c0.2,0,0.5-0.1,0.7-0.2c0.2-0.1,0.4-0.3,0.6-0.5c0,0,0.1-0.1,0.1-0.1c0,0,0.1,0,0.1,0c0,0,0,0.1,0,0.1c0,0.1,0,0.1-0.1,0.2
			c-0.2,0.2-0.4,0.4-0.6,0.5c-0.2,0.1-0.5,0.2-0.7,0.2c-0.2,0-0.4,0-0.6-0.1c-0.2-0.1-0.3-0.1-0.4-0.2c-0.1-0.1-0.2-0.2-0.4-0.4
			c-0.2-0.2-0.3-0.4-0.3-0.5c-0.1-0.2-0.1-0.3-0.1-0.5V4c0-0.3,0.1-0.6,0.2-0.9c0.2-0.3,0.4-0.5,0.6-0.7c0.3-0.2,0.5-0.2,0.9-0.2
			C122,2.3,122.4,2.4,122.7,2.7z"/>
		<path class="st1" d="M126.6,5h-1.9l-0.4,1h0.6c0.1,0,0.1,0,0.1,0c0,0,0,0.1,0,0.1c0,0,0,0.1,0,0.1c0,0-0.1,0-0.1,0h-1.1
			c-0.1,0-0.1,0-0.1,0c0,0,0-0.1,0-0.1c0,0,0-0.1,0-0.1c0,0,0.1,0,0.1,0h0.2l1.3-3.4h-0.8c-0.1,0-0.1,0-0.1,0c0,0,0-0.1,0-0.1
			s0-0.1,0-0.1c0,0,0.1,0,0.1,0h1.4l1.4,3.7h0.2c0.1,0,0.1,0,0.1,0c0,0,0,0.1,0,0.1c0,0,0,0.1,0,0.1c0,0-0.1,0-0.1,0h-1.1
			c-0.1,0-0.1,0-0.2,0c0,0,0-0.1,0-0.1c0,0,0-0.1,0-0.1c0,0,0.1,0,0.2,0h0.5L126.6,5z M126.5,4.7l-0.8-2.1h-0.1l-0.8,2.1H126.5z"/>
		<path class="st1" d="M129.8,5.5h0.1c0.1,0,0.2,0,0.3,0.1c0.1,0.1,0.1,0.2,0.1,0.3c0,0.1,0,0.2-0.1,0.3c-0.1,0.1-0.2,0.1-0.3,0.1
			h-0.1c-0.1,0-0.2,0-0.3-0.1c-0.1-0.1-0.1-0.2-0.1-0.3c0-0.1,0-0.2,0.1-0.3C129.6,5.6,129.7,5.5,129.8,5.5z"/>
		<path class="st1" d="M134,5.5h0.1c0.1,0,0.2,0,0.3,0.1c0.1,0.1,0.1,0.2,0.1,0.3c0,0.1,0,0.2-0.1,0.3c-0.1,0.1-0.2,0.1-0.3,0.1H134
			c-0.1,0-0.2,0-0.3-0.1c-0.1-0.1-0.1-0.2-0.1-0.3c0-0.1,0-0.2,0.1-0.3C133.8,5.6,133.9,5.5,134,5.5z"/>
		<path class="st1" d="M138.2,5.5h0.1c0.1,0,0.2,0,0.3,0.1c0.1,0.1,0.1,0.2,0.1,0.3c0,0.1,0,0.2-0.1,0.3c-0.1,0.1-0.2,0.1-0.3,0.1
			h-0.1c-0.1,0-0.2,0-0.3-0.1c-0.1-0.1-0.1-0.2-0.1-0.3c0-0.1,0-0.2,0.1-0.3C138,5.6,138.1,5.5,138.2,5.5z"/>
	</g>
	<g>
		<g>
			<path class="st1" d="M76.2,17.2h-1.9l-0.4,1h0.6c0.1,0,0.1,0,0.1,0c0,0,0,0.1,0,0.1c0,0,0,0.1,0,0.1s-0.1,0-0.1,0h-1.1
				c-0.1,0-0.1,0-0.1,0s0-0.1,0-0.1c0,0,0-0.1,0-0.1c0,0,0.1,0,0.1,0h0.2l1.3-3.4H74c-0.1,0-0.1,0-0.1,0c0,0,0-0.1,0-0.1
				s0-0.1,0-0.1c0,0,0.1,0,0.1,0h1.4l1.4,3.7h0.2c0.1,0,0.1,0,0.1,0c0,0,0,0.1,0,0.1c0,0,0,0.1,0,0.1s-0.1,0-0.1,0H76
				c-0.1,0-0.1,0-0.2,0s0-0.1,0-0.1c0,0,0-0.1,0-0.1c0,0,0.1,0,0.2,0h0.5L76.2,17.2z M76.1,16.9l-0.8-2.1h-0.1l-0.8,2.1H76.1z"/>
			<path class="st1" d="M80.7,14.9v-0.2c0-0.1,0-0.1,0-0.1c0,0,0.1,0,0.1,0s0.1,0,0.1,0c0,0,0,0.1,0,0.1v0.8c0,0.1,0,0.1,0,0.2
				c0,0-0.1,0-0.1,0c0,0-0.1,0-0.1,0c0,0,0-0.1,0-0.1c0-0.2-0.1-0.4-0.3-0.5c-0.3-0.2-0.6-0.3-0.9-0.3c-0.2,0-0.4,0-0.6,0.1
				c-0.1,0.1-0.3,0.2-0.3,0.3c-0.2,0.2-0.3,0.4-0.4,0.6c-0.1,0.2-0.1,0.3-0.1,0.5v0.5c0,0.4,0.2,0.8,0.5,1.1
				c0.3,0.3,0.7,0.5,1.1,0.5c0.2,0,0.5-0.1,0.7-0.2c0.2-0.1,0.4-0.3,0.6-0.5c0,0,0.1-0.1,0.1-0.1c0,0,0.1,0,0.1,0s0,0.1,0,0.1
				c0,0.1,0,0.1-0.1,0.2c-0.2,0.2-0.4,0.4-0.6,0.5c-0.2,0.1-0.5,0.2-0.7,0.2c-0.2,0-0.4,0-0.6-0.1c-0.2-0.1-0.3-0.1-0.4-0.2
				s-0.2-0.2-0.4-0.4c-0.2-0.2-0.3-0.4-0.3-0.5c-0.1-0.2-0.1-0.3-0.1-0.5v-0.6c0-0.3,0.1-0.6,0.2-0.9c0.2-0.3,0.4-0.5,0.6-0.7
				c0.3-0.2,0.5-0.2,0.9-0.2C79.9,14.4,80.4,14.6,80.7,14.9z"/>
			<path class="st1" d="M83.8,14.8v3.4h0.7c0.1,0,0.1,0,0.1,0c0,0,0,0.1,0,0.1c0,0,0,0.1,0,0.1s-0.1,0-0.1,0h-1.8
				c-0.1,0-0.1,0-0.1,0s0-0.1,0-0.1c0,0,0-0.1,0-0.1c0,0,0.1,0,0.1,0h0.7v-3.4h-1.2v1c0,0.1,0,0.1,0,0.2c0,0-0.1,0-0.1,0
				c0,0-0.1,0-0.1,0s0-0.1,0-0.2v-1.3h3.2v1.3c0,0.1,0,0.1,0,0.2c0,0-0.1,0-0.1,0S85,16,85,16c0,0,0-0.1,0-0.2v-1H83.8z"/>
			<path class="st1" d="M88.7,17.4H87l-0.2,0.4H87c0.2,0,0.3,0,0.4,0.1c0.1,0.1,0.1,0.1,0.1,0.3c0,0.1,0,0.2-0.1,0.3
				c-0.1,0.1-0.2,0.1-0.4,0.1H86c-0.2,0-0.3,0-0.4-0.1c-0.1-0.1-0.1-0.1-0.1-0.3s0-0.2,0.1-0.3s0.2-0.1,0.4-0.1l1.1-2.7h-0.5
				c-0.2,0-0.3,0-0.4-0.1c-0.1-0.1-0.1-0.1-0.1-0.3s0-0.2,0.1-0.3c0.1-0.1,0.2-0.1,0.4-0.1l1.5,0l1.4,3.4c0.2,0,0.3,0,0.3,0.1
				c0.1,0.1,0.2,0.2,0.2,0.3c0,0.1,0,0.2-0.1,0.3c-0.1,0.1-0.2,0.1-0.4,0.1h-0.9c-0.2,0-0.3,0-0.4-0.1c-0.1-0.1-0.1-0.1-0.1-0.3
				c0-0.1,0-0.2,0.1-0.3c0.1-0.1,0.2-0.1,0.4-0.1h0.2L88.7,17.4z M88.4,16.7l-0.6-1.4l-0.6,1.4H88.4z"/>
			<path class="st1" d="M93.3,14.9v-0.2c0-0.1,0-0.1,0-0.1c0,0,0.1,0,0.1,0s0.1,0,0.1,0c0,0,0,0.1,0,0.1v0.8c0,0.1,0,0.1,0,0.2
				c0,0-0.1,0-0.1,0c0,0-0.1,0-0.1,0c0,0,0-0.1,0-0.1c0-0.2-0.1-0.4-0.3-0.5c-0.3-0.2-0.6-0.3-0.9-0.3c-0.2,0-0.4,0-0.6,0.1
				c-0.1,0.1-0.3,0.2-0.3,0.3c-0.2,0.2-0.3,0.4-0.4,0.6c-0.1,0.2-0.1,0.3-0.1,0.5v0.5c0,0.4,0.2,0.8,0.5,1.1
				c0.3,0.3,0.7,0.5,1.1,0.5c0.2,0,0.5-0.1,0.7-0.2c0.2-0.1,0.4-0.3,0.6-0.5c0,0,0.1-0.1,0.1-0.1c0,0,0.1,0,0.1,0s0,0.1,0,0.1
				c0,0.1,0,0.1-0.1,0.2c-0.2,0.2-0.4,0.4-0.6,0.5c-0.2,0.1-0.5,0.2-0.7,0.2c-0.2,0-0.4,0-0.6-0.1c-0.2-0.1-0.3-0.1-0.4-0.2
				s-0.2-0.2-0.4-0.4c-0.2-0.2-0.3-0.4-0.3-0.5c-0.1-0.2-0.1-0.3-0.1-0.5v-0.6c0-0.3,0.1-0.6,0.2-0.9c0.2-0.3,0.4-0.5,0.6-0.7
				c0.3-0.2,0.5-0.2,0.9-0.2C92.6,14.4,93,14.6,93.3,14.9z"/>
			<path class="st1" d="M97.2,17.2h-1.9l-0.4,1h0.6c0.1,0,0.1,0,0.1,0c0,0,0,0.1,0,0.1c0,0,0,0.1,0,0.1s-0.1,0-0.1,0h-1.1
				c-0.1,0-0.1,0-0.1,0s0-0.1,0-0.1c0,0,0-0.1,0-0.1c0,0,0.1,0,0.1,0h0.2l1.3-3.4H95c-0.1,0-0.1,0-0.1,0c0,0,0-0.1,0-0.1
				s0-0.1,0-0.1c0,0,0.1,0,0.1,0h1.4l1.4,3.7h0.2c0.1,0,0.1,0,0.1,0c0,0,0,0.1,0,0.1c0,0,0,0.1,0,0.1c0,0-0.1,0-0.1,0H97
				c-0.1,0-0.1,0-0.2,0s0-0.1,0-0.1c0,0,0-0.1,0-0.1c0,0,0.1,0,0.2,0h0.5L97.2,17.2z M97.1,16.9l-0.8-2.1h-0.1l-0.8,2.1H97.1z"/>
			<path class="st1" d="M102,17v1.2c-0.2,0.1-0.4,0.2-0.7,0.3c-0.2,0.1-0.4,0.1-0.7,0.1c-0.3,0-0.6,0-0.8-0.1
				c-0.2-0.1-0.4-0.2-0.6-0.4c-0.2-0.2-0.3-0.3-0.4-0.6c-0.1-0.2-0.1-0.5-0.1-0.8v-0.5c0-0.3,0.1-0.6,0.2-0.9
				c0.2-0.3,0.4-0.5,0.6-0.7c0.3-0.2,0.6-0.2,0.9-0.2c0.5,0,0.9,0.1,1.2,0.4c0-0.1,0-0.2,0-0.2c0,0,0,0,0-0.1c0,0,0.1,0,0.1,0
				c0,0,0.1,0,0.1,0s0,0.1,0,0.1v0.6c0,0.1,0,0.1,0,0.1c0,0-0.1,0-0.1,0c0,0-0.1,0-0.1,0c0,0,0-0.1,0-0.1c0-0.2-0.1-0.4-0.4-0.5
				c-0.2-0.1-0.5-0.2-0.8-0.2c-0.3,0-0.5,0.1-0.7,0.2c-0.2,0.1-0.4,0.3-0.6,0.7c-0.1,0.2-0.2,0.5-0.2,0.7v0.5c0,0.5,0.1,0.9,0.4,1.1
				c0.3,0.3,0.7,0.4,1.2,0.4c0.2,0,0.3,0,0.5-0.1c0.1,0,0.3-0.1,0.5-0.2V17h-1c-0.1,0-0.1,0-0.1,0c0,0,0-0.1,0-0.1s0-0.1,0-0.1
				c0,0,0.1,0,0.1,0l1.4,0c0.1,0,0.1,0,0.1,0c0,0,0,0.1,0,0.1c0,0,0,0.1,0,0.1c0,0,0,0-0.1,0C102.2,17,102.1,17,102,17z"/>
			<path class="st1" d="M106.2,17v1.2c-0.2,0.1-0.4,0.2-0.7,0.3s-0.4,0.1-0.7,0.1c-0.3,0-0.6,0-0.8-0.1s-0.4-0.2-0.6-0.4
				c-0.2-0.2-0.3-0.3-0.4-0.6s-0.1-0.5-0.1-0.8v-0.5c0-0.3,0.1-0.6,0.2-0.9c0.2-0.3,0.4-0.5,0.6-0.7c0.3-0.2,0.6-0.2,0.9-0.2
				c0.5,0,0.9,0.1,1.2,0.4c0-0.1,0-0.2,0-0.2s0,0,0-0.1c0,0,0.1,0,0.1,0c0,0,0.1,0,0.1,0s0,0.1,0,0.1v0.6c0,0.1,0,0.1,0,0.1
				c0,0-0.1,0-0.1,0c0,0-0.1,0-0.1,0c0,0,0-0.1,0-0.1c0-0.2-0.1-0.4-0.4-0.5s-0.5-0.2-0.8-0.2c-0.3,0-0.5,0.1-0.7,0.2
				c-0.2,0.1-0.4,0.3-0.6,0.7c-0.1,0.2-0.2,0.5-0.2,0.7v0.5c0,0.5,0.1,0.9,0.4,1.1c0.3,0.3,0.7,0.4,1.2,0.4c0.2,0,0.3,0,0.5-0.1
				c0.1,0,0.3-0.1,0.5-0.2V17h-1c-0.1,0-0.1,0-0.1,0c0,0,0-0.1,0-0.1s0-0.1,0-0.1c0,0,0.1,0,0.1,0l1.4,0c0.1,0,0.1,0,0.1,0
				c0,0,0,0.1,0,0.1c0,0,0,0.1,0,0.1c0,0,0,0-0.1,0C106.4,17,106.3,17,106.2,17z"/>
			<path class="st1" d="M109,14.8v3.4h0.7c0.1,0,0.1,0,0.1,0c0,0,0,0.1,0,0.1c0,0,0,0.1,0,0.1c0,0-0.1,0-0.1,0h-1.8
				c-0.1,0-0.1,0-0.1,0c0,0,0-0.1,0-0.1c0,0,0-0.1,0-0.1c0,0,0.1,0,0.1,0h0.7v-3.4h-1.2v1c0,0.1,0,0.1,0,0.2c0,0-0.1,0-0.1,0
				c0,0-0.1,0-0.1,0s0-0.1,0-0.2v-1.3h3.2v1.3c0,0.1,0,0.1,0,0.2s-0.1,0-0.1,0c0,0-0.1,0-0.1,0c0,0,0-0.1,0-0.2v-1H109z"/>
			<path class="st1" d="M114.6,17v1.2c-0.2,0.1-0.4,0.2-0.7,0.3s-0.4,0.1-0.7,0.1c-0.3,0-0.6,0-0.8-0.1s-0.4-0.2-0.6-0.4
				c-0.2-0.2-0.3-0.3-0.4-0.6s-0.1-0.5-0.1-0.8v-0.5c0-0.3,0.1-0.6,0.2-0.9c0.2-0.3,0.4-0.5,0.6-0.7c0.3-0.2,0.6-0.2,0.9-0.2
				c0.5,0,0.9,0.1,1.2,0.4c0-0.1,0-0.2,0-0.2s0,0,0-0.1c0,0,0.1,0,0.1,0c0,0,0.1,0,0.1,0s0,0.1,0,0.1v0.6c0,0.1,0,0.1,0,0.1
				c0,0-0.1,0-0.1,0c0,0-0.1,0-0.1,0c0,0,0-0.1,0-0.1c0-0.2-0.1-0.4-0.4-0.5s-0.5-0.2-0.8-0.2c-0.3,0-0.5,0.1-0.7,0.2
				c-0.2,0.1-0.4,0.3-0.6,0.7c-0.1,0.2-0.2,0.5-0.2,0.7v0.5c0,0.5,0.1,0.9,0.4,1.1c0.3,0.3,0.7,0.4,1.2,0.4c0.2,0,0.3,0,0.5-0.1
				c0.1,0,0.3-0.1,0.5-0.2V17h-1c-0.1,0-0.1,0-0.1,0c0,0,0-0.1,0-0.1s0-0.1,0-0.1c0,0,0.1,0,0.1,0l1.4,0c0.1,0,0.1,0,0.1,0
				c0,0,0,0.1,0,0.1c0,0,0,0.1,0,0.1c0,0,0,0-0.1,0C114.8,17,114.7,17,114.6,17z"/>
			<path class="st1" d="M118.2,17.2h-1.9l-0.4,1h0.6c0.1,0,0.1,0,0.1,0c0,0,0,0.1,0,0.1c0,0,0,0.1,0,0.1c0,0-0.1,0-0.1,0h-1.1
				c-0.1,0-0.1,0-0.1,0c0,0,0-0.1,0-0.1c0,0,0-0.1,0-0.1c0,0,0.1,0,0.1,0h0.2l1.3-3.4H116c-0.1,0-0.1,0-0.1,0c0,0,0-0.1,0-0.1
				s0-0.1,0-0.1c0,0,0.1,0,0.1,0h1.4l1.4,3.7h0.2c0.1,0,0.1,0,0.1,0c0,0,0,0.1,0,0.1c0,0,0,0.1,0,0.1c0,0-0.1,0-0.1,0H118
				c-0.1,0-0.1,0-0.2,0c0,0,0-0.1,0-0.1c0,0,0-0.1,0-0.1c0,0,0.1,0,0.2,0h0.5L118.2,17.2z M118.1,16.9l-0.8-2.1h-0.1l-0.8,2.1H118.1
				z"/>
			<path class="st1" d="M122.7,14.9v-0.2c0-0.1,0-0.1,0-0.1s0.1,0,0.1,0c0,0,0.1,0,0.1,0c0,0,0,0.1,0,0.1v0.8c0,0.1,0,0.1,0,0.2
				c0,0-0.1,0-0.1,0c0,0-0.1,0-0.1,0s0-0.1,0-0.1c0-0.2-0.1-0.4-0.3-0.5c-0.3-0.2-0.6-0.3-0.9-0.3c-0.2,0-0.4,0-0.6,0.1
				c-0.1,0.1-0.3,0.2-0.3,0.3c-0.2,0.2-0.3,0.4-0.4,0.6c-0.1,0.2-0.1,0.3-0.1,0.5v0.5c0,0.4,0.2,0.8,0.5,1.1
				c0.3,0.3,0.7,0.5,1.1,0.5c0.2,0,0.5-0.1,0.7-0.2c0.2-0.1,0.4-0.3,0.6-0.5c0,0,0.1-0.1,0.1-0.1c0,0,0.1,0,0.1,0c0,0,0,0.1,0,0.1
				c0,0.1,0,0.1-0.1,0.2c-0.2,0.2-0.4,0.4-0.6,0.5c-0.2,0.1-0.5,0.2-0.7,0.2c-0.2,0-0.4,0-0.6-0.1c-0.2-0.1-0.3-0.1-0.4-0.2
				c-0.1-0.1-0.2-0.2-0.4-0.4c-0.2-0.2-0.3-0.4-0.3-0.5c-0.1-0.2-0.1-0.3-0.1-0.5v-0.6c0-0.3,0.1-0.6,0.2-0.9
				c0.2-0.3,0.4-0.5,0.6-0.7c0.3-0.2,0.5-0.2,0.9-0.2C122,14.4,122.4,14.6,122.7,14.9z"/>
			<path class="st1" d="M125.6,17.7h0.1c0.1,0,0.2,0,0.3,0.1c0.1,0.1,0.1,0.2,0.1,0.3c0,0.1,0,0.2-0.1,0.3c-0.1,0.1-0.2,0.1-0.3,0.1
				h-0.1c-0.1,0-0.2,0-0.3-0.1c-0.1-0.1-0.1-0.2-0.1-0.3c0-0.1,0-0.2,0.1-0.3C125.4,17.7,125.5,17.7,125.6,17.7z"/>
			<path class="st1" d="M129.8,17.7h0.1c0.1,0,0.2,0,0.3,0.1c0.1,0.1,0.1,0.2,0.1,0.3c0,0.1,0,0.2-0.1,0.3c-0.1,0.1-0.2,0.1-0.3,0.1
				h-0.1c-0.1,0-0.2,0-0.3-0.1c-0.1-0.1-0.1-0.2-0.1-0.3c0-0.1,0-0.2,0.1-0.3C129.6,17.7,129.7,17.7,129.8,17.7z"/>
			<path class="st1" d="M134,17.7h0.1c0.1,0,0.2,0,0.3,0.1c0.1,0.1,0.1,0.2,0.1,0.3c0,0.1,0,0.2-0.1,0.3c-0.1,0.1-0.2,0.1-0.3,0.1
				H134c-0.1,0-0.2,0-0.3-0.1c-0.1-0.1-0.1-0.2-0.1-0.3c0-0.1,0-0.2,0.1-0.3C133.8,17.7,133.9,17.7,134,17.7z"/>
		</g>
	</g>
	<g>
		<g>
			<path class="st1" d="M72.6,23.6v1.2c-0.2,0.1-0.4,0.2-0.7,0.3c-0.2,0.1-0.4,0.1-0.7,0.1c-0.3,0-0.6,0-0.8-0.1
				c-0.2-0.1-0.4-0.2-0.6-0.4s-0.3-0.3-0.4-0.6c-0.1-0.2-0.1-0.5-0.1-0.8v-0.5c0-0.3,0.1-0.6,0.2-0.9c0.2-0.3,0.4-0.5,0.6-0.7
				s0.6-0.2,0.9-0.2c0.5,0,0.9,0.1,1.2,0.4c0-0.1,0-0.2,0-0.2c0,0,0,0,0-0.1c0,0,0.1,0,0.1,0c0,0,0.1,0,0.1,0s0,0.1,0,0.1V22
				c0,0.1,0,0.1,0,0.1c0,0-0.1,0-0.1,0c0,0-0.1,0-0.1,0c0,0,0-0.1,0-0.1c0-0.2-0.1-0.4-0.4-0.5c-0.2-0.1-0.5-0.2-0.8-0.2
				c-0.3,0-0.5,0.1-0.7,0.2c-0.2,0.1-0.4,0.3-0.6,0.7c-0.1,0.2-0.2,0.5-0.2,0.7v0.5c0,0.5,0.1,0.9,0.4,1.1s0.7,0.4,1.2,0.4
				c0.2,0,0.3,0,0.5-0.1s0.3-0.1,0.5-0.2v-1.1h-1c-0.1,0-0.1,0-0.1,0c0,0,0-0.1,0-0.1s0-0.1,0-0.1s0.1,0,0.1,0l1.4,0
				c0.1,0,0.1,0,0.1,0c0,0,0,0.1,0,0.1c0,0,0,0.1,0,0.1s0,0-0.1,0C72.8,23.6,72.7,23.6,72.6,23.6z"/>
			<path class="st1" d="M76.2,23.8h-1.9l-0.4,1h0.6c0.1,0,0.1,0,0.1,0c0,0,0,0.1,0,0.1c0,0,0,0.1,0,0.1s-0.1,0-0.1,0h-1.1
				c-0.1,0-0.1,0-0.1,0s0-0.1,0-0.1c0,0,0-0.1,0-0.1c0,0,0.1,0,0.1,0h0.2l1.3-3.4H74c-0.1,0-0.1,0-0.1,0c0,0,0-0.1,0-0.1
				s0-0.1,0-0.1c0,0,0.1,0,0.1,0h1.4l1.4,3.7h0.2c0.1,0,0.1,0,0.1,0c0,0,0,0.1,0,0.1c0,0,0,0.1,0,0.1s-0.1,0-0.1,0H76
				c-0.1,0-0.1,0-0.2,0s0-0.1,0-0.1c0,0,0-0.1,0-0.1c0,0,0.1,0,0.2,0h0.5L76.2,23.8z M76.1,23.5l-0.8-2.1h-0.1l-0.8,2.1H76.1z"/>
			<path class="st1" d="M80.7,21.5v-0.2c0-0.1,0-0.1,0-0.1c0,0,0.1,0,0.1,0s0.1,0,0.1,0c0,0,0,0.1,0,0.1v0.8c0,0.1,0,0.1,0,0.2
				c0,0-0.1,0-0.1,0c0,0-0.1,0-0.1,0c0,0,0-0.1,0-0.1c0-0.2-0.1-0.4-0.3-0.5c-0.3-0.2-0.6-0.3-0.9-0.3c-0.2,0-0.4,0-0.6,0.1
				c-0.1,0.1-0.3,0.2-0.3,0.3c-0.2,0.2-0.3,0.4-0.4,0.6c-0.1,0.2-0.1,0.3-0.1,0.5v0.5c0,0.4,0.2,0.8,0.5,1.1
				c0.3,0.3,0.7,0.5,1.1,0.5c0.2,0,0.5-0.1,0.7-0.2c0.2-0.1,0.4-0.3,0.6-0.5c0,0,0.1-0.1,0.1-0.1c0,0,0.1,0,0.1,0s0,0.1,0,0.1
				c0,0.1,0,0.1-0.1,0.2c-0.2,0.2-0.4,0.4-0.6,0.5c-0.2,0.1-0.5,0.2-0.7,0.2c-0.2,0-0.4,0-0.6-0.1c-0.2-0.1-0.3-0.1-0.4-0.2
				s-0.2-0.2-0.4-0.4c-0.2-0.2-0.3-0.4-0.3-0.5c-0.1-0.2-0.1-0.3-0.1-0.5v-0.6c0-0.3,0.1-0.6,0.2-0.9c0.2-0.3,0.4-0.5,0.6-0.7
				c0.3-0.2,0.5-0.2,0.9-0.2C79.9,21,80.4,21.2,80.7,21.5z"/>
			<path class="st1" d="M83.8,21.4v3.4h0.7c0.1,0,0.1,0,0.1,0c0,0,0,0.1,0,0.1c0,0,0,0.1,0,0.1s-0.1,0-0.1,0h-1.8
				c-0.1,0-0.1,0-0.1,0s0-0.1,0-0.1c0,0,0-0.1,0-0.1c0,0,0.1,0,0.1,0h0.7v-3.4h-1.2v1c0,0.1,0,0.1,0,0.2c0,0-0.1,0-0.1,0
				c0,0-0.1,0-0.1,0s0-0.1,0-0.2v-1.3h3.2v1.3c0,0.1,0,0.1,0,0.2c0,0-0.1,0-0.1,0s-0.1,0-0.1,0c0,0,0-0.1,0-0.2v-1H83.8z"/>
			<path class="st1" d="M88.7,24H87l-0.2,0.4H87c0.2,0,0.3,0,0.4,0.1c0.1,0.1,0.1,0.1,0.1,0.3c0,0.1,0,0.2-0.1,0.3
				c-0.1,0.1-0.2,0.1-0.4,0.1H86c-0.2,0-0.3,0-0.4-0.1c-0.1-0.1-0.1-0.1-0.1-0.3s0-0.2,0.1-0.3s0.2-0.1,0.4-0.1l1.1-2.7h-0.5
				c-0.2,0-0.3,0-0.4-0.1c-0.1-0.1-0.1-0.1-0.1-0.3s0-0.2,0.1-0.3c0.1-0.1,0.2-0.1,0.4-0.1l1.5,0l1.4,3.4c0.2,0,0.3,0,0.3,0.1
				c0.1,0.1,0.2,0.2,0.2,0.3c0,0.1,0,0.2-0.1,0.3c-0.1,0.1-0.2,0.1-0.4,0.1h-0.9c-0.2,0-0.3,0-0.4-0.1c-0.1-0.1-0.1-0.1-0.1-0.3
				c0-0.1,0-0.2,0.1-0.3c0.1-0.1,0.2-0.1,0.4-0.1h0.2L88.7,24z M88.4,23.3l-0.6-1.4l-0.6,1.4H88.4z"/>
			<path class="st1" d="M93.3,21.5v-0.2c0-0.1,0-0.1,0-0.1c0,0,0.1,0,0.1,0s0.1,0,0.1,0c0,0,0,0.1,0,0.1v0.8c0,0.1,0,0.1,0,0.2
				c0,0-0.1,0-0.1,0c0,0-0.1,0-0.1,0c0,0,0-0.1,0-0.1c0-0.2-0.1-0.4-0.3-0.5c-0.3-0.2-0.6-0.3-0.9-0.3c-0.2,0-0.4,0-0.6,0.1
				c-0.1,0.1-0.3,0.2-0.3,0.3c-0.2,0.2-0.3,0.4-0.4,0.6c-0.1,0.2-0.1,0.3-0.1,0.5v0.5c0,0.4,0.2,0.8,0.5,1.1
				c0.3,0.3,0.7,0.5,1.1,0.5c0.2,0,0.5-0.1,0.7-0.2c0.2-0.1,0.4-0.3,0.6-0.5c0,0,0.1-0.1,0.1-0.1c0,0,0.1,0,0.1,0s0,0.1,0,0.1
				c0,0.1,0,0.1-0.1,0.2c-0.2,0.2-0.4,0.4-0.6,0.5c-0.2,0.1-0.5,0.2-0.7,0.2c-0.2,0-0.4,0-0.6-0.1c-0.2-0.1-0.3-0.1-0.4-0.2
				s-0.2-0.2-0.4-0.4c-0.2-0.2-0.3-0.4-0.3-0.5c-0.1-0.2-0.1-0.3-0.1-0.5v-0.6c0-0.3,0.1-0.6,0.2-0.9c0.2-0.3,0.4-0.5,0.6-0.7
				c0.3-0.2,0.5-0.2,0.9-0.2C92.6,21,93,21.2,93.3,21.5z"/>
			<path class="st1" d="M97.2,23.8h-1.9l-0.4,1h0.6c0.1,0,0.1,0,0.1,0c0,0,0,0.1,0,0.1c0,0,0,0.1,0,0.1s-0.1,0-0.1,0h-1.1
				c-0.1,0-0.1,0-0.1,0s0-0.1,0-0.1c0,0,0-0.1,0-0.1c0,0,0.1,0,0.1,0h0.2l1.3-3.4H95c-0.1,0-0.1,0-0.1,0c0,0,0-0.1,0-0.1
				s0-0.1,0-0.1c0,0,0.1,0,0.1,0h1.4l1.4,3.7h0.2c0.1,0,0.1,0,0.1,0c0,0,0,0.1,0,0.1c0,0,0,0.1,0,0.1c0,0-0.1,0-0.1,0H97
				c-0.1,0-0.1,0-0.2,0s0-0.1,0-0.1c0,0,0-0.1,0-0.1c0,0,0.1,0,0.2,0h0.5L97.2,23.8z M97.1,23.5l-0.8-2.1h-0.1l-0.8,2.1H97.1z"/>
			<path class="st1" d="M102,23.6v1.2c-0.2,0.1-0.4,0.2-0.7,0.3c-0.2,0.1-0.4,0.1-0.7,0.1c-0.3,0-0.6,0-0.8-0.1
				c-0.2-0.1-0.4-0.2-0.6-0.4c-0.2-0.2-0.3-0.3-0.4-0.6c-0.1-0.2-0.1-0.5-0.1-0.8v-0.5c0-0.3,0.1-0.6,0.2-0.9
				c0.2-0.3,0.4-0.5,0.6-0.7c0.3-0.2,0.6-0.2,0.9-0.2c0.5,0,0.9,0.1,1.2,0.4c0-0.1,0-0.2,0-0.2c0,0,0,0,0-0.1c0,0,0.1,0,0.1,0
				c0,0,0.1,0,0.1,0s0,0.1,0,0.1V22c0,0.1,0,0.1,0,0.1c0,0-0.1,0-0.1,0c0,0-0.1,0-0.1,0c0,0,0-0.1,0-0.1c0-0.2-0.1-0.4-0.4-0.5
				c-0.2-0.1-0.5-0.2-0.8-0.2c-0.3,0-0.5,0.1-0.7,0.2c-0.2,0.1-0.4,0.3-0.6,0.7c-0.1,0.2-0.2,0.5-0.2,0.7v0.5c0,0.5,0.1,0.9,0.4,1.1
				c0.3,0.3,0.7,0.4,1.2,0.4c0.2,0,0.3,0,0.5-0.1c0.1,0,0.3-0.1,0.5-0.2v-1.1h-1c-0.1,0-0.1,0-0.1,0c0,0,0-0.1,0-0.1s0-0.1,0-0.1
				c0,0,0.1,0,0.1,0l1.4,0c0.1,0,0.1,0,0.1,0c0,0,0,0.1,0,0.1c0,0,0,0.1,0,0.1c0,0,0,0-0.1,0C102.2,23.6,102.1,23.6,102,23.6z"/>
			<path class="st1" d="M106.2,23.6v1.2c-0.2,0.1-0.4,0.2-0.7,0.3s-0.4,0.1-0.7,0.1c-0.3,0-0.6,0-0.8-0.1s-0.4-0.2-0.6-0.4
				c-0.2-0.2-0.3-0.3-0.4-0.6s-0.1-0.5-0.1-0.8v-0.5c0-0.3,0.1-0.6,0.2-0.9c0.2-0.3,0.4-0.5,0.6-0.7c0.3-0.2,0.6-0.2,0.9-0.2
				c0.5,0,0.9,0.1,1.2,0.4c0-0.1,0-0.2,0-0.2s0,0,0-0.1c0,0,0.1,0,0.1,0c0,0,0.1,0,0.1,0s0,0.1,0,0.1V22c0,0.1,0,0.1,0,0.1
				c0,0-0.1,0-0.1,0c0,0-0.1,0-0.1,0c0,0,0-0.1,0-0.1c0-0.2-0.1-0.4-0.4-0.5s-0.5-0.2-0.8-0.2c-0.3,0-0.5,0.1-0.7,0.2
				c-0.2,0.1-0.4,0.3-0.6,0.7c-0.1,0.2-0.2,0.5-0.2,0.7v0.5c0,0.5,0.1,0.9,0.4,1.1c0.3,0.3,0.7,0.4,1.2,0.4c0.2,0,0.3,0,0.5-0.1
				c0.1,0,0.3-0.1,0.5-0.2v-1.1h-1c-0.1,0-0.1,0-0.1,0c0,0,0-0.1,0-0.1s0-0.1,0-0.1c0,0,0.1,0,0.1,0l1.4,0c0.1,0,0.1,0,0.1,0
				c0,0,0,0.1,0,0.1c0,0,0,0.1,0,0.1c0,0,0,0-0.1,0C106.4,23.6,106.3,23.6,106.2,23.6z"/>
			<path class="st1" d="M109,21.4v3.4h0.7c0.1,0,0.1,0,0.1,0c0,0,0,0.1,0,0.1c0,0,0,0.1,0,0.1c0,0-0.1,0-0.1,0h-1.8
				c-0.1,0-0.1,0-0.1,0c0,0,0-0.1,0-0.1c0,0,0-0.1,0-0.1c0,0,0.1,0,0.1,0h0.7v-3.4h-1.2v1c0,0.1,0,0.1,0,0.2c0,0-0.1,0-0.1,0
				c0,0-0.1,0-0.1,0s0-0.1,0-0.2v-1.3h3.2v1.3c0,0.1,0,0.1,0,0.2s-0.1,0-0.1,0c0,0-0.1,0-0.1,0c0,0,0-0.1,0-0.2v-1H109z"/>
			<path class="st1" d="M114.6,23.6v1.2c-0.2,0.1-0.4,0.2-0.7,0.3s-0.4,0.1-0.7,0.1c-0.3,0-0.6,0-0.8-0.1s-0.4-0.2-0.6-0.4
				c-0.2-0.2-0.3-0.3-0.4-0.6s-0.1-0.5-0.1-0.8v-0.5c0-0.3,0.1-0.6,0.2-0.9c0.2-0.3,0.4-0.5,0.6-0.7c0.3-0.2,0.6-0.2,0.9-0.2
				c0.5,0,0.9,0.1,1.2,0.4c0-0.1,0-0.2,0-0.2s0,0,0-0.1c0,0,0.1,0,0.1,0c0,0,0.1,0,0.1,0s0,0.1,0,0.1V22c0,0.1,0,0.1,0,0.1
				c0,0-0.1,0-0.1,0c0,0-0.1,0-0.1,0c0,0,0-0.1,0-0.1c0-0.2-0.1-0.4-0.4-0.5s-0.5-0.2-0.8-0.2c-0.3,0-0.5,0.1-0.7,0.2
				c-0.2,0.1-0.4,0.3-0.6,0.7c-0.1,0.2-0.2,0.5-0.2,0.7v0.5c0,0.5,0.1,0.9,0.4,1.1c0.3,0.3,0.7,0.4,1.2,0.4c0.2,0,0.3,0,0.5-0.1
				c0.1,0,0.3-0.1,0.5-0.2v-1.1h-1c-0.1,0-0.1,0-0.1,0c0,0,0-0.1,0-0.1s0-0.1,0-0.1c0,0,0.1,0,0.1,0l1.4,0c0.1,0,0.1,0,0.1,0
				c0,0,0,0.1,0,0.1c0,0,0,0.1,0,0.1c0,0,0,0-0.1,0C114.8,23.6,114.7,23.6,114.6,23.6z"/>
			<path class="st1" d="M118.2,23.8h-1.9l-0.4,1h0.6c0.1,0,0.1,0,0.1,0c0,0,0,0.1,0,0.1c0,0,0,0.1,0,0.1c0,0-0.1,0-0.1,0h-1.1
				c-0.1,0-0.1,0-0.1,0c0,0,0-0.1,0-0.1c0,0,0-0.1,0-0.1c0,0,0.1,0,0.1,0h0.2l1.3-3.4H116c-0.1,0-0.1,0-0.1,0c0,0,0-0.1,0-0.1
				s0-0.1,0-0.1c0,0,0.1,0,0.1,0h1.4l1.4,3.7h0.2c0.1,0,0.1,0,0.1,0c0,0,0,0.1,0,0.1c0,0,0,0.1,0,0.1c0,0-0.1,0-0.1,0H118
				c-0.1,0-0.1,0-0.2,0c0,0,0-0.1,0-0.1c0,0,0-0.1,0-0.1c0,0,0.1,0,0.2,0h0.5L118.2,23.8z M118.1,23.5l-0.8-2.1h-0.1l-0.8,2.1H118.1
				z"/>
			<path class="st1" d="M121.4,24.3h0.1c0.1,0,0.2,0,0.3,0.1c0.1,0.1,0.1,0.2,0.1,0.3c0,0.1,0,0.2-0.1,0.3c-0.1,0.1-0.2,0.1-0.3,0.1
				h-0.1c-0.1,0-0.2,0-0.3-0.1c-0.1-0.1-0.1-0.2-0.1-0.3c0-0.1,0-0.2,0.1-0.3C121.2,24.4,121.3,24.3,121.4,24.3z"/>
			<path class="st1" d="M125.6,24.3h0.1c0.1,0,0.2,0,0.3,0.1c0.1,0.1,0.1,0.2,0.1,0.3c0,0.1,0,0.2-0.1,0.3c-0.1,0.1-0.2,0.1-0.3,0.1
				h-0.1c-0.1,0-0.2,0-0.3-0.1c-0.1-0.1-0.1-0.2-0.1-0.3c0-0.1,0-0.2,0.1-0.3C125.4,24.4,125.5,24.3,125.6,24.3z"/>
			<path class="st1" d="M129.8,24.3h0.1c0.1,0,0.2,0,0.3,0.1c0.1,0.1,0.1,0.2,0.1,0.3c0,0.1,0,0.2-0.1,0.3c-0.1,0.1-0.2,0.1-0.3,0.1
				h-0.1c-0.1,0-0.2,0-0.3-0.1c-0.1-0.1-0.1-0.2-0.1-0.3c0-0.1,0-0.2,0.1-0.3C129.6,24.4,129.7,24.3,129.8,24.3z"/>
		</g>
	</g>
	<g>
		<g>
			<path class="st1" d="M67.8,30.4h-1.9l-0.4,1h0.6c0.1,0,0.1,0,0.1,0c0,0,0,0.1,0,0.1c0,0,0,0.1,0,0.1s-0.1,0-0.1,0H65
				c-0.1,0-0.1,0-0.1,0s0-0.1,0-0.1c0,0,0-0.1,0-0.1c0,0,0.1,0,0.1,0h0.2l1.3-3.4h-0.8c-0.1,0-0.1,0-0.1,0c0,0,0-0.1,0-0.1
				s0-0.1,0-0.1c0,0,0.1,0,0.1,0h1.4l1.4,3.7h0.2c0.1,0,0.1,0,0.1,0c0,0,0,0.1,0,0.1c0,0,0,0.1,0,0.1s-0.1,0-0.1,0h-1.1
				c-0.1,0-0.1,0-0.2,0s0-0.1,0-0.1c0,0,0-0.1,0-0.1c0,0,0.1,0,0.2,0h0.5L67.8,30.4z M67.7,30.1L66.9,28h-0.1L66,30.1H67.7z"/>
			<path class="st1" d="M72.6,30.3v1.2c-0.2,0.1-0.4,0.2-0.7,0.3c-0.2,0.1-0.4,0.1-0.7,0.1c-0.3,0-0.6,0-0.8-0.1
				c-0.2-0.1-0.4-0.2-0.6-0.4s-0.3-0.3-0.4-0.6c-0.1-0.2-0.1-0.5-0.1-0.8v-0.5c0-0.3,0.1-0.6,0.2-0.9c0.2-0.3,0.4-0.5,0.6-0.7
				s0.6-0.2,0.9-0.2c0.5,0,0.9,0.1,1.2,0.4c0-0.1,0-0.2,0-0.2c0,0,0,0,0-0.1c0,0,0.1,0,0.1,0c0,0,0.1,0,0.1,0s0,0.1,0,0.1v0.6
				c0,0.1,0,0.1,0,0.1c0,0-0.1,0-0.1,0c0,0-0.1,0-0.1,0c0,0,0-0.1,0-0.1c0-0.2-0.1-0.4-0.4-0.5c-0.2-0.1-0.5-0.2-0.8-0.2
				c-0.3,0-0.5,0.1-0.7,0.2c-0.2,0.1-0.4,0.3-0.6,0.7c-0.1,0.2-0.2,0.5-0.2,0.7V30c0,0.5,0.1,0.9,0.4,1.1s0.7,0.4,1.2,0.4
				c0.2,0,0.3,0,0.5-0.1s0.3-0.1,0.5-0.2v-1.1h-1c-0.1,0-0.1,0-0.1,0c0,0,0-0.1,0-0.1s0-0.1,0-0.1s0.1,0,0.1,0l1.4,0
				c0.1,0,0.1,0,0.1,0c0,0,0,0.1,0,0.1c0,0,0,0.1,0,0.1s0,0-0.1,0C72.8,30.3,72.7,30.3,72.6,30.3z"/>
			<path class="st1" d="M76.2,30.4h-1.9l-0.4,1h0.6c0.1,0,0.1,0,0.1,0c0,0,0,0.1,0,0.1c0,0,0,0.1,0,0.1s-0.1,0-0.1,0h-1.1
				c-0.1,0-0.1,0-0.1,0s0-0.1,0-0.1c0,0,0-0.1,0-0.1c0,0,0.1,0,0.1,0h0.2l1.3-3.4H74c-0.1,0-0.1,0-0.1,0c0,0,0-0.1,0-0.1
				s0-0.1,0-0.1c0,0,0.1,0,0.1,0h1.4l1.4,3.7h0.2c0.1,0,0.1,0,0.1,0c0,0,0,0.1,0,0.1c0,0,0,0.1,0,0.1s-0.1,0-0.1,0H76
				c-0.1,0-0.1,0-0.2,0s0-0.1,0-0.1c0,0,0-0.1,0-0.1c0,0,0.1,0,0.2,0h0.5L76.2,30.4z M76.1,30.1L75.3,28h-0.1l-0.8,2.1H76.1z"/>
			<path class="st1" d="M80.7,28.1v-0.2c0-0.1,0-0.1,0-0.1c0,0,0.1,0,0.1,0s0.1,0,0.1,0c0,0,0,0.1,0,0.1v0.8c0,0.1,0,0.1,0,0.2
				c0,0-0.1,0-0.1,0c0,0-0.1,0-0.1,0c0,0,0-0.1,0-0.1c0-0.2-0.1-0.4-0.3-0.5c-0.3-0.2-0.6-0.3-0.9-0.3c-0.2,0-0.4,0-0.6,0.1
				c-0.1,0.1-0.3,0.2-0.3,0.3c-0.2,0.2-0.3,0.4-0.4,0.6c-0.1,0.2-0.1,0.3-0.1,0.5V30c0,0.4,0.2,0.8,0.5,1.1c0.3,0.3,0.7,0.5,1.1,0.5
				c0.2,0,0.5-0.1,0.7-0.2c0.2-0.1,0.4-0.3,0.6-0.5c0,0,0.1-0.1,0.1-0.1c0,0,0.1,0,0.1,0s0,0.1,0,0.1c0,0.1,0,0.1-0.1,0.2
				c-0.2,0.2-0.4,0.4-0.6,0.5c-0.2,0.1-0.5,0.2-0.7,0.2c-0.2,0-0.4,0-0.6-0.1c-0.2-0.1-0.3-0.1-0.4-0.2s-0.2-0.2-0.4-0.4
				c-0.2-0.2-0.3-0.4-0.3-0.5c-0.1-0.2-0.1-0.3-0.1-0.5v-0.6c0-0.3,0.1-0.6,0.2-0.9c0.2-0.3,0.4-0.5,0.6-0.7
				c0.3-0.2,0.5-0.2,0.9-0.2C79.9,27.6,80.4,27.8,80.7,28.1z"/>
			<path class="st1" d="M83.8,28v3.4h0.7c0.1,0,0.1,0,0.1,0c0,0,0,0.1,0,0.1c0,0,0,0.1,0,0.1s-0.1,0-0.1,0h-1.8c-0.1,0-0.1,0-0.1,0
				s0-0.1,0-0.1c0,0,0-0.1,0-0.1c0,0,0.1,0,0.1,0h0.7V28h-1.2v1c0,0.1,0,0.1,0,0.2c0,0-0.1,0-0.1,0c0,0-0.1,0-0.1,0s0-0.1,0-0.2
				v-1.3h3.2V29c0,0.1,0,0.1,0,0.2c0,0-0.1,0-0.1,0s-0.1,0-0.1,0c0,0,0-0.1,0-0.2v-1H83.8z"/>
			<path class="st1" d="M88.7,30.6H87L86.8,31H87c0.2,0,0.3,0,0.4,0.1c0.1,0.1,0.1,0.1,0.1,0.3c0,0.1,0,0.2-0.1,0.3
				c-0.1,0.1-0.2,0.1-0.4,0.1H86c-0.2,0-0.3,0-0.4-0.1c-0.1-0.1-0.1-0.1-0.1-0.3s0-0.2,0.1-0.3s0.2-0.1,0.4-0.1l1.1-2.7h-0.5
				c-0.2,0-0.3,0-0.4-0.1c-0.1-0.1-0.1-0.1-0.1-0.3s0-0.2,0.1-0.3c0.1-0.1,0.2-0.1,0.4-0.1l1.5,0l1.4,3.4c0.2,0,0.3,0,0.3,0.1
				c0.1,0.1,0.2,0.2,0.2,0.3c0,0.1,0,0.2-0.1,0.3c-0.1,0.1-0.2,0.1-0.4,0.1h-0.9c-0.2,0-0.3,0-0.4-0.1c-0.1-0.1-0.1-0.1-0.1-0.3
				c0-0.1,0-0.2,0.1-0.3c0.1-0.1,0.2-0.1,0.4-0.1h0.2L88.7,30.6z M88.4,29.9l-0.6-1.4l-0.6,1.4H88.4z"/>
			<path class="st1" d="M93.3,28.1v-0.2c0-0.1,0-0.1,0-0.1c0,0,0.1,0,0.1,0s0.1,0,0.1,0c0,0,0,0.1,0,0.1v0.8c0,0.1,0,0.1,0,0.2
				c0,0-0.1,0-0.1,0c0,0-0.1,0-0.1,0c0,0,0-0.1,0-0.1c0-0.2-0.1-0.4-0.3-0.5c-0.3-0.2-0.6-0.3-0.9-0.3c-0.2,0-0.4,0-0.6,0.1
				c-0.1,0.1-0.3,0.2-0.3,0.3c-0.2,0.2-0.3,0.4-0.4,0.6c-0.1,0.2-0.1,0.3-0.1,0.5V30c0,0.4,0.2,0.8,0.5,1.1c0.3,0.3,0.7,0.5,1.1,0.5
				c0.2,0,0.5-0.1,0.7-0.2c0.2-0.1,0.4-0.3,0.6-0.5c0,0,0.1-0.1,0.1-0.1c0,0,0.1,0,0.1,0s0,0.1,0,0.1c0,0.1,0,0.1-0.1,0.2
				c-0.2,0.2-0.4,0.4-0.6,0.5c-0.2,0.1-0.5,0.2-0.7,0.2c-0.2,0-0.4,0-0.6-0.1c-0.2-0.1-0.3-0.1-0.4-0.2s-0.2-0.2-0.4-0.4
				c-0.2-0.2-0.3-0.4-0.3-0.5c-0.1-0.2-0.1-0.3-0.1-0.5v-0.6c0-0.3,0.1-0.6,0.2-0.9c0.2-0.3,0.4-0.5,0.6-0.7
				c0.3-0.2,0.5-0.2,0.9-0.2C92.6,27.6,93,27.8,93.3,28.1z"/>
			<path class="st1" d="M97.2,30.4h-1.9l-0.4,1h0.6c0.1,0,0.1,0,0.1,0c0,0,0,0.1,0,0.1c0,0,0,0.1,0,0.1s-0.1,0-0.1,0h-1.1
				c-0.1,0-0.1,0-0.1,0s0-0.1,0-0.1c0,0,0-0.1,0-0.1c0,0,0.1,0,0.1,0h0.2l1.3-3.4H95c-0.1,0-0.1,0-0.1,0c0,0,0-0.1,0-0.1
				s0-0.1,0-0.1c0,0,0.1,0,0.1,0h1.4l1.4,3.7h0.2c0.1,0,0.1,0,0.1,0c0,0,0,0.1,0,0.1c0,0,0,0.1,0,0.1c0,0-0.1,0-0.1,0H97
				c-0.1,0-0.1,0-0.2,0s0-0.1,0-0.1c0,0,0-0.1,0-0.1c0,0,0.1,0,0.2,0h0.5L97.2,30.4z M97.1,30.1L96.3,28h-0.1l-0.8,2.1H97.1z"/>
			<path class="st1" d="M102,30.3v1.2c-0.2,0.1-0.4,0.2-0.7,0.3c-0.2,0.1-0.4,0.1-0.7,0.1c-0.3,0-0.6,0-0.8-0.1
				c-0.2-0.1-0.4-0.2-0.6-0.4c-0.2-0.2-0.3-0.3-0.4-0.6c-0.1-0.2-0.1-0.5-0.1-0.8v-0.5c0-0.3,0.1-0.6,0.2-0.9
				c0.2-0.3,0.4-0.5,0.6-0.7c0.3-0.2,0.6-0.2,0.9-0.2c0.5,0,0.9,0.1,1.2,0.4c0-0.1,0-0.2,0-0.2c0,0,0,0,0-0.1c0,0,0.1,0,0.1,0
				c0,0,0.1,0,0.1,0s0,0.1,0,0.1v0.6c0,0.1,0,0.1,0,0.1c0,0-0.1,0-0.1,0c0,0-0.1,0-0.1,0c0,0,0-0.1,0-0.1c0-0.2-0.1-0.4-0.4-0.5
				c-0.2-0.1-0.5-0.2-0.8-0.2c-0.3,0-0.5,0.1-0.7,0.2c-0.2,0.1-0.4,0.3-0.6,0.7c-0.1,0.2-0.2,0.5-0.2,0.7V30c0,0.5,0.1,0.9,0.4,1.1
				c0.3,0.3,0.7,0.4,1.2,0.4c0.2,0,0.3,0,0.5-0.1c0.1,0,0.3-0.1,0.5-0.2v-1.1h-1c-0.1,0-0.1,0-0.1,0c0,0,0-0.1,0-0.1s0-0.1,0-0.1
				c0,0,0.1,0,0.1,0l1.4,0c0.1,0,0.1,0,0.1,0c0,0,0,0.1,0,0.1c0,0,0,0.1,0,0.1c0,0,0,0-0.1,0C102.2,30.3,102.1,30.3,102,30.3z"/>
			<path class="st1" d="M106.2,30.3v1.2c-0.2,0.1-0.4,0.2-0.7,0.3s-0.4,0.1-0.7,0.1c-0.3,0-0.6,0-0.8-0.1s-0.4-0.2-0.6-0.4
				c-0.2-0.2-0.3-0.3-0.4-0.6S103,30.3,103,30v-0.5c0-0.3,0.1-0.6,0.2-0.9c0.2-0.3,0.4-0.5,0.6-0.7c0.3-0.2,0.6-0.2,0.9-0.2
				c0.5,0,0.9,0.1,1.2,0.4c0-0.1,0-0.2,0-0.2s0,0,0-0.1c0,0,0.1,0,0.1,0c0,0,0.1,0,0.1,0s0,0.1,0,0.1v0.6c0,0.1,0,0.1,0,0.1
				c0,0-0.1,0-0.1,0c0,0-0.1,0-0.1,0c0,0,0-0.1,0-0.1c0-0.2-0.1-0.4-0.4-0.5s-0.5-0.2-0.8-0.2c-0.3,0-0.5,0.1-0.7,0.2
				c-0.2,0.1-0.4,0.3-0.6,0.7c-0.1,0.2-0.2,0.5-0.2,0.7V30c0,0.5,0.1,0.9,0.4,1.1c0.3,0.3,0.7,0.4,1.2,0.4c0.2,0,0.3,0,0.5-0.1
				c0.1,0,0.3-0.1,0.5-0.2v-1.1h-1c-0.1,0-0.1,0-0.1,0c0,0,0-0.1,0-0.1s0-0.1,0-0.1c0,0,0.1,0,0.1,0l1.4,0c0.1,0,0.1,0,0.1,0
				c0,0,0,0.1,0,0.1c0,0,0,0.1,0,0.1c0,0,0,0-0.1,0C106.4,30.3,106.3,30.3,106.2,30.3z"/>
			<path class="st1" d="M109,28v3.4h0.7c0.1,0,0.1,0,0.1,0c0,0,0,0.1,0,0.1c0,0,0,0.1,0,0.1c0,0-0.1,0-0.1,0h-1.8
				c-0.1,0-0.1,0-0.1,0c0,0,0-0.1,0-0.1c0,0,0-0.1,0-0.1c0,0,0.1,0,0.1,0h0.7V28h-1.2v1c0,0.1,0,0.1,0,0.2c0,0-0.1,0-0.1,0
				c0,0-0.1,0-0.1,0s0-0.1,0-0.2v-1.3h3.2V29c0,0.1,0,0.1,0,0.2s-0.1,0-0.1,0c0,0-0.1,0-0.1,0c0,0,0-0.1,0-0.2v-1H109z"/>
			<path class="st1" d="M114.6,30.3v1.2c-0.2,0.1-0.4,0.2-0.7,0.3s-0.4,0.1-0.7,0.1c-0.3,0-0.6,0-0.8-0.1s-0.4-0.2-0.6-0.4
				c-0.2-0.2-0.3-0.3-0.4-0.6s-0.1-0.5-0.1-0.8v-0.5c0-0.3,0.1-0.6,0.2-0.9c0.2-0.3,0.4-0.5,0.6-0.7c0.3-0.2,0.6-0.2,0.9-0.2
				c0.5,0,0.9,0.1,1.2,0.4c0-0.1,0-0.2,0-0.2s0,0,0-0.1c0,0,0.1,0,0.1,0c0,0,0.1,0,0.1,0s0,0.1,0,0.1v0.6c0,0.1,0,0.1,0,0.1
				c0,0-0.1,0-0.1,0c0,0-0.1,0-0.1,0c0,0,0-0.1,0-0.1c0-0.2-0.1-0.4-0.4-0.5s-0.5-0.2-0.8-0.2c-0.3,0-0.5,0.1-0.7,0.2
				c-0.2,0.1-0.4,0.3-0.6,0.7c-0.1,0.2-0.2,0.5-0.2,0.7V30c0,0.5,0.1,0.9,0.4,1.1c0.3,0.3,0.7,0.4,1.2,0.4c0.2,0,0.3,0,0.5-0.1
				c0.1,0,0.3-0.1,0.5-0.2v-1.1h-1c-0.1,0-0.1,0-0.1,0c0,0,0-0.1,0-0.1s0-0.1,0-0.1c0,0,0.1,0,0.1,0l1.4,0c0.1,0,0.1,0,0.1,0
				c0,0,0,0.1,0,0.1c0,0,0,0.1,0,0.1c0,0,0,0-0.1,0C114.8,30.3,114.7,30.3,114.6,30.3z"/>
			<path class="st1" d="M117.2,30.9h0.1c0.1,0,0.2,0,0.3,0.1c0.1,0.1,0.1,0.2,0.1,0.3c0,0.1,0,0.2-0.1,0.3c-0.1,0.1-0.2,0.1-0.3,0.1
				h-0.1c-0.1,0-0.2,0-0.3-0.1c-0.1-0.1-0.1-0.2-0.1-0.3c0-0.1,0-0.2,0.1-0.3C116.9,31,117.1,30.9,117.2,30.9z"/>
			<path class="st1" d="M121.4,30.9h0.1c0.1,0,0.2,0,0.3,0.1c0.1,0.1,0.1,0.2,0.1,0.3c0,0.1,0,0.2-0.1,0.3c-0.1,0.1-0.2,0.1-0.3,0.1
				h-0.1c-0.1,0-0.2,0-0.3-0.1c-0.1-0.1-0.1-0.2-0.1-0.3c0-0.1,0-0.2,0.1-0.3C121.2,31,121.3,30.9,121.4,30.9z"/>
			<path class="st1" d="M125.6,30.9h0.1c0.1,0,0.2,0,0.3,0.1c0.1,0.1,0.1,0.2,0.1,0.3c0,0.1,0,0.2-0.1,0.3c-0.1,0.1-0.2,0.1-0.3,0.1
				h-0.1c-0.1,0-0.2,0-0.3-0.1c-0.1-0.1-0.1-0.2-0.1-0.3c0-0.1,0-0.2,0.1-0.3C125.4,31,125.5,30.9,125.6,30.9z"/>
		</g>
	</g>
	<g>
		<g>
			<path class="st1" d="M63.6,37h-1.9l-0.4,1h0.6c0.1,0,0.1,0,0.1,0c0,0,0,0.1,0,0.1c0,0,0,0.1,0,0.1s-0.1,0-0.1,0h-1.1
				c-0.1,0-0.1,0-0.1,0s0-0.1,0-0.1c0,0,0-0.1,0-0.1c0,0,0.1,0,0.1,0H61l1.3-3.4h-0.8c-0.1,0-0.1,0-0.1,0c0,0,0-0.1,0-0.1
				s0-0.1,0-0.1c0,0,0.1,0,0.1,0h1.4l1.4,3.7h0.2c0.1,0,0.1,0,0.1,0c0,0,0,0.1,0,0.1c0,0,0,0.1,0,0.1s-0.1,0-0.1,0h-1.1
				c-0.1,0-0.1,0-0.2,0s0-0.1,0-0.1c0,0,0-0.1,0-0.1c0,0,0.1,0,0.2,0H64L63.6,37z M63.5,36.7l-0.8-2.1h-0.1l-0.8,2.1H63.5z"/>
			<path class="st1" d="M67.8,37h-1.9l-0.4,1h0.6c0.1,0,0.1,0,0.1,0c0,0,0,0.1,0,0.1c0,0,0,0.1,0,0.1s-0.1,0-0.1,0H65
				c-0.1,0-0.1,0-0.1,0s0-0.1,0-0.1c0,0,0-0.1,0-0.1c0,0,0.1,0,0.1,0h0.2l1.3-3.4h-0.8c-0.1,0-0.1,0-0.1,0c0,0,0-0.1,0-0.1
				s0-0.1,0-0.1c0,0,0.1,0,0.1,0h1.4l1.4,3.7h0.2c0.1,0,0.1,0,0.1,0c0,0,0,0.1,0,0.1c0,0,0,0.1,0,0.1s-0.1,0-0.1,0h-1.1
				c-0.1,0-0.1,0-0.2,0s0-0.1,0-0.1c0,0,0-0.1,0-0.1c0,0,0.1,0,0.2,0h0.5L67.8,37z M67.7,36.7l-0.8-2.1h-0.1L66,36.7H67.7z"/>
			<path class="st1" d="M72.6,36.9v1.2c-0.2,0.1-0.4,0.2-0.7,0.3c-0.2,0.1-0.4,0.1-0.7,0.1c-0.3,0-0.6,0-0.8-0.1
				c-0.2-0.1-0.4-0.2-0.6-0.4s-0.3-0.3-0.4-0.6c-0.1-0.2-0.1-0.5-0.1-0.8v-0.5c0-0.3,0.1-0.6,0.2-0.9c0.2-0.3,0.4-0.5,0.6-0.7
				s0.6-0.2,0.9-0.2c0.5,0,0.9,0.1,1.2,0.4c0-0.1,0-0.2,0-0.2c0,0,0,0,0-0.1c0,0,0.1,0,0.1,0c0,0,0.1,0,0.1,0s0,0.1,0,0.1v0.6
				c0,0.1,0,0.1,0,0.1c0,0-0.1,0-0.1,0c0,0-0.1,0-0.1,0c0,0,0-0.1,0-0.1c0-0.2-0.1-0.4-0.4-0.5c-0.2-0.1-0.5-0.2-0.8-0.2
				c-0.3,0-0.5,0.1-0.7,0.2c-0.2,0.1-0.4,0.3-0.6,0.7c-0.1,0.2-0.2,0.5-0.2,0.7v0.5c0,0.5,0.1,0.9,0.4,1.1s0.7,0.4,1.2,0.4
				c0.2,0,0.3,0,0.5-0.1s0.3-0.1,0.5-0.2v-1.1h-1c-0.1,0-0.1,0-0.1,0c0,0,0-0.1,0-0.1s0-0.1,0-0.1s0.1,0,0.1,0l1.4,0
				c0.1,0,0.1,0,0.1,0c0,0,0,0.1,0,0.1c0,0,0,0.1,0,0.1s0,0-0.1,0C72.8,36.9,72.7,36.9,72.6,36.9z"/>
			<path class="st1" d="M76.2,37h-1.9l-0.4,1h0.6c0.1,0,0.1,0,0.1,0c0,0,0,0.1,0,0.1c0,0,0,0.1,0,0.1s-0.1,0-0.1,0h-1.1
				c-0.1,0-0.1,0-0.1,0s0-0.1,0-0.1c0,0,0-0.1,0-0.1c0,0,0.1,0,0.1,0h0.2l1.3-3.4H74c-0.1,0-0.1,0-0.1,0c0,0,0-0.1,0-0.1
				s0-0.1,0-0.1c0,0,0.1,0,0.1,0h1.4l1.4,3.7h0.2c0.1,0,0.1,0,0.1,0c0,0,0,0.1,0,0.1c0,0,0,0.1,0,0.1s-0.1,0-0.1,0H76
				c-0.1,0-0.1,0-0.2,0s0-0.1,0-0.1c0,0,0-0.1,0-0.1c0,0,0.1,0,0.2,0h0.5L76.2,37z M76.1,36.7l-0.8-2.1h-0.1l-0.8,2.1H76.1z"/>
			<path class="st1" d="M80.7,34.7v-0.2c0-0.1,0-0.1,0-0.1c0,0,0.1,0,0.1,0s0.1,0,0.1,0c0,0,0,0.1,0,0.1v0.8c0,0.1,0,0.1,0,0.2
				c0,0-0.1,0-0.1,0c0,0-0.1,0-0.1,0c0,0,0-0.1,0-0.1c0-0.2-0.1-0.4-0.3-0.5c-0.3-0.2-0.6-0.3-0.9-0.3c-0.2,0-0.4,0-0.6,0.1
				c-0.1,0.1-0.3,0.2-0.3,0.3c-0.2,0.2-0.3,0.4-0.4,0.6c-0.1,0.2-0.1,0.3-0.1,0.5v0.5c0,0.4,0.2,0.8,0.5,1.1
				c0.3,0.3,0.7,0.5,1.1,0.5c0.2,0,0.5-0.1,0.7-0.2c0.2-0.1,0.4-0.3,0.6-0.5c0,0,0.1-0.1,0.1-0.1c0,0,0.1,0,0.1,0s0,0.1,0,0.1
				c0,0.1,0,0.1-0.1,0.2c-0.2,0.2-0.4,0.4-0.6,0.5c-0.2,0.1-0.5,0.2-0.7,0.2c-0.2,0-0.4,0-0.6-0.1c-0.2-0.1-0.3-0.1-0.4-0.2
				s-0.2-0.2-0.4-0.4c-0.2-0.2-0.3-0.4-0.3-0.5c-0.1-0.2-0.1-0.3-0.1-0.5V36c0-0.3,0.1-0.6,0.2-0.9c0.2-0.3,0.4-0.5,0.6-0.7
				c0.3-0.2,0.5-0.2,0.9-0.2C79.9,34.3,80.4,34.4,80.7,34.7z"/>
			<path class="st1" d="M83.8,34.6v3.4h0.7c0.1,0,0.1,0,0.1,0c0,0,0,0.1,0,0.1c0,0,0,0.1,0,0.1s-0.1,0-0.1,0h-1.8
				c-0.1,0-0.1,0-0.1,0s0-0.1,0-0.1c0,0,0-0.1,0-0.1c0,0,0.1,0,0.1,0h0.7v-3.4h-1.2v1c0,0.1,0,0.1,0,0.2c0,0-0.1,0-0.1,0
				c0,0-0.1,0-0.1,0s0-0.1,0-0.2v-1.3h3.2v1.3c0,0.1,0,0.1,0,0.2c0,0-0.1,0-0.1,0s-0.1,0-0.1,0c0,0,0-0.1,0-0.2v-1H83.8z"/>
			<path class="st1" d="M88.7,37.2H87l-0.2,0.4H87c0.2,0,0.3,0,0.4,0.1c0.1,0.1,0.1,0.1,0.1,0.3c0,0.1,0,0.2-0.1,0.3
				c-0.1,0.1-0.2,0.1-0.4,0.1H86c-0.2,0-0.3,0-0.4-0.1c-0.1-0.1-0.1-0.1-0.1-0.3s0-0.2,0.1-0.3s0.2-0.1,0.4-0.1l1.1-2.7h-0.5
				c-0.2,0-0.3,0-0.4-0.1c-0.1-0.1-0.1-0.1-0.1-0.3s0-0.2,0.1-0.3c0.1-0.1,0.2-0.1,0.4-0.1l1.5,0l1.4,3.4c0.2,0,0.3,0,0.3,0.1
				c0.1,0.1,0.2,0.2,0.2,0.3c0,0.1,0,0.2-0.1,0.3c-0.1,0.1-0.2,0.1-0.4,0.1h-0.9c-0.2,0-0.3,0-0.4-0.1c-0.1-0.1-0.1-0.1-0.1-0.3
				c0-0.1,0-0.2,0.1-0.3c0.1-0.1,0.2-0.1,0.4-0.1h0.2L88.7,37.2z M88.4,36.5l-0.6-1.4l-0.6,1.4H88.4z"/>
			<path class="st1" d="M93.3,34.7v-0.2c0-0.1,0-0.1,0-0.1c0,0,0.1,0,0.1,0s0.1,0,0.1,0c0,0,0,0.1,0,0.1v0.8c0,0.1,0,0.1,0,0.2
				c0,0-0.1,0-0.1,0c0,0-0.1,0-0.1,0c0,0,0-0.1,0-0.1c0-0.2-0.1-0.4-0.3-0.5c-0.3-0.2-0.6-0.3-0.9-0.3c-0.2,0-0.4,0-0.6,0.1
				c-0.1,0.1-0.3,0.2-0.3,0.3c-0.2,0.2-0.3,0.4-0.4,0.6c-0.1,0.2-0.1,0.3-0.1,0.5v0.5c0,0.4,0.2,0.8,0.5,1.1
				c0.3,0.3,0.7,0.5,1.1,0.5c0.2,0,0.5-0.1,0.7-0.2c0.2-0.1,0.4-0.3,0.6-0.5c0,0,0.1-0.1,0.1-0.1c0,0,0.1,0,0.1,0s0,0.1,0,0.1
				c0,0.1,0,0.1-0.1,0.2c-0.2,0.2-0.4,0.4-0.6,0.5c-0.2,0.1-0.5,0.2-0.7,0.2c-0.2,0-0.4,0-0.6-0.1c-0.2-0.1-0.3-0.1-0.4-0.2
				s-0.2-0.2-0.4-0.4c-0.2-0.2-0.3-0.4-0.3-0.5c-0.1-0.2-0.1-0.3-0.1-0.5V36c0-0.3,0.1-0.6,0.2-0.9c0.2-0.3,0.4-0.5,0.6-0.7
				c0.3-0.2,0.5-0.2,0.9-0.2C92.6,34.3,93,34.4,93.3,34.7z"/>
			<path class="st1" d="M97.2,37h-1.9l-0.4,1h0.6c0.1,0,0.1,0,0.1,0c0,0,0,0.1,0,0.1c0,0,0,0.1,0,0.1s-0.1,0-0.1,0h-1.1
				c-0.1,0-0.1,0-0.1,0s0-0.1,0-0.1c0,0,0-0.1,0-0.1c0,0,0.1,0,0.1,0h0.2l1.3-3.4H95c-0.1,0-0.1,0-0.1,0c0,0,0-0.1,0-0.1
				s0-0.1,0-0.1c0,0,0.1,0,0.1,0h1.4l1.4,3.7h0.2c0.1,0,0.1,0,0.1,0c0,0,0,0.1,0,0.1c0,0,0,0.1,0,0.1c0,0-0.1,0-0.1,0H97
				c-0.1,0-0.1,0-0.2,0s0-0.1,0-0.1c0,0,0-0.1,0-0.1c0,0,0.1,0,0.2,0h0.5L97.2,37z M97.1,36.7l-0.8-2.1h-0.1l-0.8,2.1H97.1z"/>
			<path class="st1" d="M102,36.9v1.2c-0.2,0.1-0.4,0.2-0.7,0.3c-0.2,0.1-0.4,0.1-0.7,0.1c-0.3,0-0.6,0-0.8-0.1
				c-0.2-0.1-0.4-0.2-0.6-0.4c-0.2-0.2-0.3-0.3-0.4-0.6c-0.1-0.2-0.1-0.5-0.1-0.8v-0.5c0-0.3,0.1-0.6,0.2-0.9
				c0.2-0.3,0.4-0.5,0.6-0.7c0.3-0.2,0.6-0.2,0.9-0.2c0.5,0,0.9,0.1,1.2,0.4c0-0.1,0-0.2,0-0.2c0,0,0,0,0-0.1c0,0,0.1,0,0.1,0
				c0,0,0.1,0,0.1,0s0,0.1,0,0.1v0.6c0,0.1,0,0.1,0,0.1c0,0-0.1,0-0.1,0c0,0-0.1,0-0.1,0c0,0,0-0.1,0-0.1c0-0.2-0.1-0.4-0.4-0.5
				c-0.2-0.1-0.5-0.2-0.8-0.2c-0.3,0-0.5,0.1-0.7,0.2c-0.2,0.1-0.4,0.3-0.6,0.7c-0.1,0.2-0.2,0.5-0.2,0.7v0.5c0,0.5,0.1,0.9,0.4,1.1
				c0.3,0.3,0.7,0.4,1.2,0.4c0.2,0,0.3,0,0.5-0.1c0.1,0,0.3-0.1,0.5-0.2v-1.1h-1c-0.1,0-0.1,0-0.1,0c0,0,0-0.1,0-0.1s0-0.1,0-0.1
				c0,0,0.1,0,0.1,0l1.4,0c0.1,0,0.1,0,0.1,0c0,0,0,0.1,0,0.1c0,0,0,0.1,0,0.1c0,0,0,0-0.1,0C102.2,36.9,102.1,36.9,102,36.9z"/>
			<path class="st1" d="M106.2,36.9v1.2c-0.2,0.1-0.4,0.2-0.7,0.3s-0.4,0.1-0.7,0.1c-0.3,0-0.6,0-0.8-0.1s-0.4-0.2-0.6-0.4
				c-0.2-0.2-0.3-0.3-0.4-0.6s-0.1-0.5-0.1-0.8v-0.5c0-0.3,0.1-0.6,0.2-0.9c0.2-0.3,0.4-0.5,0.6-0.7c0.3-0.2,0.6-0.2,0.9-0.2
				c0.5,0,0.9,0.1,1.2,0.4c0-0.1,0-0.2,0-0.2s0,0,0-0.1c0,0,0.1,0,0.1,0c0,0,0.1,0,0.1,0s0,0.1,0,0.1v0.6c0,0.1,0,0.1,0,0.1
				c0,0-0.1,0-0.1,0c0,0-0.1,0-0.1,0c0,0,0-0.1,0-0.1c0-0.2-0.1-0.4-0.4-0.5s-0.5-0.2-0.8-0.2c-0.3,0-0.5,0.1-0.7,0.2
				c-0.2,0.1-0.4,0.3-0.6,0.7c-0.1,0.2-0.2,0.5-0.2,0.7v0.5c0,0.5,0.1,0.9,0.4,1.1c0.3,0.3,0.7,0.4,1.2,0.4c0.2,0,0.3,0,0.5-0.1
				c0.1,0,0.3-0.1,0.5-0.2v-1.1h-1c-0.1,0-0.1,0-0.1,0c0,0,0-0.1,0-0.1s0-0.1,0-0.1c0,0,0.1,0,0.1,0l1.4,0c0.1,0,0.1,0,0.1,0
				c0,0,0,0.1,0,0.1c0,0,0,0.1,0,0.1c0,0,0,0-0.1,0C106.4,36.9,106.3,36.9,106.2,36.9z"/>
			<path class="st1" d="M109,34.6v3.4h0.7c0.1,0,0.1,0,0.1,0c0,0,0,0.1,0,0.1c0,0,0,0.1,0,0.1c0,0-0.1,0-0.1,0h-1.8
				c-0.1,0-0.1,0-0.1,0c0,0,0-0.1,0-0.1c0,0,0-0.1,0-0.1c0,0,0.1,0,0.1,0h0.7v-3.4h-1.2v1c0,0.1,0,0.1,0,0.2c0,0-0.1,0-0.1,0
				c0,0-0.1,0-0.1,0s0-0.1,0-0.2v-1.3h3.2v1.3c0,0.1,0,0.1,0,0.2s-0.1,0-0.1,0c0,0-0.1,0-0.1,0c0,0,0-0.1,0-0.2v-1H109z"/>
			<path class="st1" d="M113,37.5h0.1c0.1,0,0.2,0,0.3,0.1c0.1,0.1,0.1,0.2,0.1,0.3c0,0.1,0,0.2-0.1,0.3c-0.1,0.1-0.2,0.1-0.3,0.1
				H113c-0.1,0-0.2,0-0.3-0.1c-0.1-0.1-0.1-0.2-0.1-0.3c0-0.1,0-0.2,0.1-0.3C112.7,37.6,112.9,37.5,113,37.5z"/>
			<path class="st1" d="M117.2,37.5h0.1c0.1,0,0.2,0,0.3,0.1c0.1,0.1,0.1,0.2,0.1,0.3c0,0.1,0,0.2-0.1,0.3c-0.1,0.1-0.2,0.1-0.3,0.1
				h-0.1c-0.1,0-0.2,0-0.3-0.1c-0.1-0.1-0.1-0.2-0.1-0.3c0-0.1,0-0.2,0.1-0.3C116.9,37.6,117.1,37.5,117.2,37.5z"/>
			<path class="st1" d="M121.4,37.5h0.1c0.1,0,0.2,0,0.3,0.1c0.1,0.1,0.1,0.2,0.1,0.3c0,0.1,0,0.2-0.1,0.3c-0.1,0.1-0.2,0.1-0.3,0.1
				h-0.1c-0.1,0-0.2,0-0.3-0.1c-0.1-0.1-0.1-0.2-0.1-0.3c0-0.1,0-0.2,0.1-0.3C121.2,37.6,121.3,37.5,121.4,37.5z"/>
		</g>
	</g>
	<g>
		<g>
			<path class="st1" d="M58.6,41.2v3.4h0.7c0.1,0,0.1,0,0.1,0c0,0,0,0.1,0,0.1c0,0,0,0.1,0,0.1s-0.1,0-0.1,0h-1.8
				c-0.1,0-0.1,0-0.1,0s0-0.1,0-0.1c0,0,0-0.1,0-0.1c0,0,0.1,0,0.1,0h0.7v-3.4h-1.2v1c0,0.1,0,0.1,0,0.2c0,0-0.1,0-0.1,0
				c0,0-0.1,0-0.1,0s0-0.1,0-0.2V41H60v1.3c0,0.1,0,0.1,0,0.2c0,0-0.1,0-0.1,0s-0.1,0-0.1,0c0,0,0-0.1,0-0.2v-1H58.6z"/>
			<path class="st1" d="M63.6,43.6h-1.9l-0.4,1h0.6c0.1,0,0.1,0,0.1,0c0,0,0,0.1,0,0.1c0,0,0,0.1,0,0.1s-0.1,0-0.1,0h-1.1
				c-0.1,0-0.1,0-0.1,0s0-0.1,0-0.1c0,0,0-0.1,0-0.1c0,0,0.1,0,0.1,0H61l1.3-3.4h-0.8c-0.1,0-0.1,0-0.1,0c0,0,0-0.1,0-0.1
				s0-0.1,0-0.1c0,0,0.1,0,0.1,0h1.4l1.4,3.7h0.2c0.1,0,0.1,0,0.1,0c0,0,0,0.1,0,0.1c0,0,0,0.1,0,0.1s-0.1,0-0.1,0h-1.1
				c-0.1,0-0.1,0-0.2,0s0-0.1,0-0.1c0,0,0-0.1,0-0.1c0,0,0.1,0,0.2,0H64L63.6,43.6z M63.5,43.3l-0.8-2.1h-0.1l-0.8,2.1H63.5z"/>
			<path class="st1" d="M67.8,43.6h-1.9l-0.4,1h0.6c0.1,0,0.1,0,0.1,0c0,0,0,0.1,0,0.1c0,0,0,0.1,0,0.1s-0.1,0-0.1,0H65
				c-0.1,0-0.1,0-0.1,0s0-0.1,0-0.1c0,0,0-0.1,0-0.1c0,0,0.1,0,0.1,0h0.2l1.3-3.4h-0.8c-0.1,0-0.1,0-0.1,0c0,0,0-0.1,0-0.1
				s0-0.1,0-0.1c0,0,0.1,0,0.1,0h1.4l1.4,3.7h0.2c0.1,0,0.1,0,0.1,0c0,0,0,0.1,0,0.1c0,0,0,0.1,0,0.1s-0.1,0-0.1,0h-1.1
				c-0.1,0-0.1,0-0.2,0s0-0.1,0-0.1c0,0,0-0.1,0-0.1c0,0,0.1,0,0.2,0h0.5L67.8,43.6z M67.7,43.3l-0.8-2.1h-0.1L66,43.3H67.7z"/>
			<path class="st1" d="M72.6,43.5v1.2c-0.2,0.1-0.4,0.2-0.7,0.3c-0.2,0.1-0.4,0.1-0.7,0.1c-0.3,0-0.6,0-0.8-0.1
				c-0.2-0.1-0.4-0.2-0.6-0.4s-0.3-0.3-0.4-0.6c-0.1-0.2-0.1-0.5-0.1-0.8v-0.5c0-0.3,0.1-0.6,0.2-0.9c0.2-0.3,0.4-0.5,0.6-0.7
				s0.6-0.2,0.9-0.2c0.5,0,0.9,0.1,1.2,0.4c0-0.1,0-0.2,0-0.2c0,0,0,0,0-0.1c0,0,0.1,0,0.1,0c0,0,0.1,0,0.1,0s0,0.1,0,0.1v0.6
				c0,0.1,0,0.1,0,0.1c0,0-0.1,0-0.1,0c0,0-0.1,0-0.1,0c0,0,0-0.1,0-0.1c0-0.2-0.1-0.4-0.4-0.5c-0.2-0.1-0.5-0.2-0.8-0.2
				c-0.3,0-0.5,0.1-0.7,0.2c-0.2,0.1-0.4,0.3-0.6,0.7c-0.1,0.2-0.2,0.5-0.2,0.7v0.5c0,0.5,0.1,0.9,0.4,1.1s0.7,0.4,1.2,0.4
				c0.2,0,0.3,0,0.5-0.1s0.3-0.1,0.5-0.2v-1.1h-1c-0.1,0-0.1,0-0.1,0c0,0,0-0.1,0-0.1s0-0.1,0-0.1s0.1,0,0.1,0l1.4,0
				c0.1,0,0.1,0,0.1,0c0,0,0,0.1,0,0.1c0,0,0,0.1,0,0.1s0,0-0.1,0C72.8,43.5,72.7,43.5,72.6,43.5z"/>
			<path class="st1" d="M76.2,43.6h-1.9l-0.4,1h0.6c0.1,0,0.1,0,0.1,0c0,0,0,0.1,0,0.1c0,0,0,0.1,0,0.1s-0.1,0-0.1,0h-1.1
				c-0.1,0-0.1,0-0.1,0s0-0.1,0-0.1c0,0,0-0.1,0-0.1c0,0,0.1,0,0.1,0h0.2l1.3-3.4H74c-0.1,0-0.1,0-0.1,0c0,0,0-0.1,0-0.1
				s0-0.1,0-0.1c0,0,0.1,0,0.1,0h1.4l1.4,3.7h0.2c0.1,0,0.1,0,0.1,0c0,0,0,0.1,0,0.1c0,0,0,0.1,0,0.1s-0.1,0-0.1,0H76
				c-0.1,0-0.1,0-0.2,0s0-0.1,0-0.1c0,0,0-0.1,0-0.1c0,0,0.1,0,0.2,0h0.5L76.2,43.6z M76.1,43.3l-0.8-2.1h-0.1l-0.8,2.1H76.1z"/>
			<path class="st1" d="M80.7,41.3v-0.2c0-0.1,0-0.1,0-0.1c0,0,0.1,0,0.1,0s0.1,0,0.1,0c0,0,0,0.1,0,0.1v0.8c0,0.1,0,0.1,0,0.2
				c0,0-0.1,0-0.1,0c0,0-0.1,0-0.1,0c0,0,0-0.1,0-0.1c0-0.2-0.1-0.4-0.3-0.5c-0.3-0.2-0.6-0.3-0.9-0.3c-0.2,0-0.4,0-0.6,0.1
				c-0.1,0.1-0.3,0.2-0.3,0.3c-0.2,0.2-0.3,0.4-0.4,0.6c-0.1,0.2-0.1,0.3-0.1,0.5v0.5c0,0.4,0.2,0.8,0.5,1.1
				c0.3,0.3,0.7,0.5,1.1,0.5c0.2,0,0.5-0.1,0.7-0.2c0.2-0.1,0.4-0.3,0.6-0.5c0,0,0.1-0.1,0.1-0.1c0,0,0.1,0,0.1,0s0,0.1,0,0.1
				c0,0.1,0,0.1-0.1,0.2c-0.2,0.2-0.4,0.4-0.6,0.5c-0.2,0.1-0.5,0.2-0.7,0.2c-0.2,0-0.4,0-0.6-0.1c-0.2-0.1-0.3-0.1-0.4-0.2
				s-0.2-0.2-0.4-0.4c-0.2-0.2-0.3-0.4-0.3-0.5c-0.1-0.2-0.1-0.3-0.1-0.5v-0.6c0-0.3,0.1-0.6,0.2-0.9c0.2-0.3,0.4-0.5,0.6-0.7
				c0.3-0.2,0.5-0.2,0.9-0.2C79.9,40.9,80.4,41,80.7,41.3z"/>
			<path class="st1" d="M83.8,41.2v3.4h0.7c0.1,0,0.1,0,0.1,0c0,0,0,0.1,0,0.1c0,0,0,0.1,0,0.1s-0.1,0-0.1,0h-1.8
				c-0.1,0-0.1,0-0.1,0s0-0.1,0-0.1c0,0,0-0.1,0-0.1c0,0,0.1,0,0.1,0h0.7v-3.4h-1.2v1c0,0.1,0,0.1,0,0.2c0,0-0.1,0-0.1,0
				c0,0-0.1,0-0.1,0s0-0.1,0-0.2V41h3.2v1.3c0,0.1,0,0.1,0,0.2c0,0-0.1,0-0.1,0s-0.1,0-0.1,0c0,0,0-0.1,0-0.2v-1H83.8z"/>
			<path class="st1" d="M88.7,43.8H87l-0.2,0.4H87c0.2,0,0.3,0,0.4,0.1c0.1,0.1,0.1,0.1,0.1,0.3c0,0.1,0,0.2-0.1,0.3
				C87.3,44.9,87.2,45,87,45H86c-0.2,0-0.3,0-0.4-0.1c-0.1-0.1-0.1-0.1-0.1-0.3s0-0.2,0.1-0.3s0.2-0.1,0.4-0.1l1.1-2.7h-0.5
				c-0.2,0-0.3,0-0.4-0.1c-0.1-0.1-0.1-0.1-0.1-0.3s0-0.2,0.1-0.3c0.1-0.1,0.2-0.1,0.4-0.1l1.5,0l1.4,3.4c0.2,0,0.3,0,0.3,0.1
				c0.1,0.1,0.2,0.2,0.2,0.3c0,0.1,0,0.2-0.1,0.3c-0.1,0.1-0.2,0.1-0.4,0.1h-0.9c-0.2,0-0.3,0-0.4-0.1c-0.1-0.1-0.1-0.1-0.1-0.3
				c0-0.1,0-0.2,0.1-0.3c0.1-0.1,0.2-0.1,0.4-0.1h0.2L88.7,43.8z M88.4,43.1l-0.6-1.4l-0.6,1.4H88.4z"/>
			<path class="st1" d="M93.3,41.3v-0.2c0-0.1,0-0.1,0-0.1c0,0,0.1,0,0.1,0s0.1,0,0.1,0c0,0,0,0.1,0,0.1v0.8c0,0.1,0,0.1,0,0.2
				c0,0-0.1,0-0.1,0c0,0-0.1,0-0.1,0c0,0,0-0.1,0-0.1c0-0.2-0.1-0.4-0.3-0.5c-0.3-0.2-0.6-0.3-0.9-0.3c-0.2,0-0.4,0-0.6,0.1
				c-0.1,0.1-0.3,0.2-0.3,0.3c-0.2,0.2-0.3,0.4-0.4,0.6c-0.1,0.2-0.1,0.3-0.1,0.5v0.5c0,0.4,0.2,0.8,0.5,1.1
				c0.3,0.3,0.7,0.5,1.1,0.5c0.2,0,0.5-0.1,0.7-0.2c0.2-0.1,0.4-0.3,0.6-0.5c0,0,0.1-0.1,0.1-0.1c0,0,0.1,0,0.1,0s0,0.1,0,0.1
				c0,0.1,0,0.1-0.1,0.2c-0.2,0.2-0.4,0.4-0.6,0.5c-0.2,0.1-0.5,0.2-0.7,0.2c-0.2,0-0.4,0-0.6-0.1c-0.2-0.1-0.3-0.1-0.4-0.2
				s-0.2-0.2-0.4-0.4c-0.2-0.2-0.3-0.4-0.3-0.5c-0.1-0.2-0.1-0.3-0.1-0.5v-0.6c0-0.3,0.1-0.6,0.2-0.9c0.2-0.3,0.4-0.5,0.6-0.7
				c0.3-0.2,0.5-0.2,0.9-0.2C92.6,40.9,93,41,93.3,41.3z"/>
			<path class="st1" d="M97.2,43.6h-1.9l-0.4,1h0.6c0.1,0,0.1,0,0.1,0c0,0,0,0.1,0,0.1c0,0,0,0.1,0,0.1s-0.1,0-0.1,0h-1.1
				c-0.1,0-0.1,0-0.1,0s0-0.1,0-0.1c0,0,0-0.1,0-0.1c0,0,0.1,0,0.1,0h0.2l1.3-3.4H95c-0.1,0-0.1,0-0.1,0c0,0,0-0.1,0-0.1
				s0-0.1,0-0.1c0,0,0.1,0,0.1,0h1.4l1.4,3.7h0.2c0.1,0,0.1,0,0.1,0c0,0,0,0.1,0,0.1c0,0,0,0.1,0,0.1c0,0-0.1,0-0.1,0H97
				c-0.1,0-0.1,0-0.2,0s0-0.1,0-0.1c0,0,0-0.1,0-0.1c0,0,0.1,0,0.2,0h0.5L97.2,43.6z M97.1,43.3l-0.8-2.1h-0.1l-0.8,2.1H97.1z"/>
			<path class="st1" d="M102,43.5v1.2c-0.2,0.1-0.4,0.2-0.7,0.3c-0.2,0.1-0.4,0.1-0.7,0.1c-0.3,0-0.6,0-0.8-0.1
				c-0.2-0.1-0.4-0.2-0.6-0.4c-0.2-0.2-0.3-0.3-0.4-0.6c-0.1-0.2-0.1-0.5-0.1-0.8v-0.5c0-0.3,0.1-0.6,0.2-0.9
				c0.2-0.3,0.4-0.5,0.6-0.7c0.3-0.2,0.6-0.2,0.9-0.2c0.5,0,0.9,0.1,1.2,0.4c0-0.1,0-0.2,0-0.2c0,0,0,0,0-0.1c0,0,0.1,0,0.1,0
				c0,0,0.1,0,0.1,0s0,0.1,0,0.1v0.6c0,0.1,0,0.1,0,0.1c0,0-0.1,0-0.1,0c0,0-0.1,0-0.1,0c0,0,0-0.1,0-0.1c0-0.2-0.1-0.4-0.4-0.5
				c-0.2-0.1-0.5-0.2-0.8-0.2c-0.3,0-0.5,0.1-0.7,0.2c-0.2,0.1-0.4,0.3-0.6,0.7c-0.1,0.2-0.2,0.5-0.2,0.7v0.5c0,0.5,0.1,0.9,0.4,1.1
				c0.3,0.3,0.7,0.4,1.2,0.4c0.2,0,0.3,0,0.5-0.1c0.1,0,0.3-0.1,0.5-0.2v-1.1h-1c-0.1,0-0.1,0-0.1,0c0,0,0-0.1,0-0.1s0-0.1,0-0.1
				c0,0,0.1,0,0.1,0l1.4,0c0.1,0,0.1,0,0.1,0c0,0,0,0.1,0,0.1c0,0,0,0.1,0,0.1c0,0,0,0-0.1,0C102.2,43.5,102.1,43.5,102,43.5z"/>
			<path class="st1" d="M106.2,43.5v1.2c-0.2,0.1-0.4,0.2-0.7,0.3s-0.4,0.1-0.7,0.1c-0.3,0-0.6,0-0.8-0.1s-0.4-0.2-0.6-0.4
				c-0.2-0.2-0.3-0.3-0.4-0.6s-0.1-0.5-0.1-0.8v-0.5c0-0.3,0.1-0.6,0.2-0.9c0.2-0.3,0.4-0.5,0.6-0.7c0.3-0.2,0.6-0.2,0.9-0.2
				c0.5,0,0.9,0.1,1.2,0.4c0-0.1,0-0.2,0-0.2s0,0,0-0.1c0,0,0.1,0,0.1,0c0,0,0.1,0,0.1,0s0,0.1,0,0.1v0.6c0,0.1,0,0.1,0,0.1
				c0,0-0.1,0-0.1,0c0,0-0.1,0-0.1,0c0,0,0-0.1,0-0.1c0-0.2-0.1-0.4-0.4-0.5s-0.5-0.2-0.8-0.2c-0.3,0-0.5,0.1-0.7,0.2
				c-0.2,0.1-0.4,0.3-0.6,0.7c-0.1,0.2-0.2,0.5-0.2,0.7v0.5c0,0.5,0.1,0.9,0.4,1.1c0.3,0.3,0.7,0.4,1.2,0.4c0.2,0,0.3,0,0.5-0.1
				c0.1,0,0.3-0.1,0.5-0.2v-1.1h-1c-0.1,0-0.1,0-0.1,0c0,0,0-0.1,0-0.1s0-0.1,0-0.1c0,0,0.1,0,0.1,0l1.4,0c0.1,0,0.1,0,0.1,0
				c0,0,0,0.1,0,0.1c0,0,0,0.1,0,0.1c0,0,0,0-0.1,0C106.4,43.5,106.3,43.5,106.2,43.5z"/>
			<path class="st1" d="M108.8,44.1h0.1c0.1,0,0.2,0,0.3,0.1c0.1,0.1,0.1,0.2,0.1,0.3c0,0.1,0,0.2-0.1,0.3c-0.1,0.1-0.2,0.1-0.3,0.1
				h-0.1c-0.1,0-0.2,0-0.3-0.1c-0.1-0.1-0.1-0.2-0.1-0.3c0-0.1,0-0.2,0.1-0.3C108.5,44.2,108.7,44.1,108.8,44.1z"/>
			<path class="st1" d="M113,44.1h0.1c0.1,0,0.2,0,0.3,0.1c0.1,0.1,0.1,0.2,0.1,0.3c0,0.1,0,0.2-0.1,0.3c-0.1,0.1-0.2,0.1-0.3,0.1
				H113c-0.1,0-0.2,0-0.3-0.1c-0.1-0.1-0.1-0.2-0.1-0.3c0-0.1,0-0.2,0.1-0.3C112.7,44.2,112.9,44.1,113,44.1z"/>
			<path class="st1" d="M117.2,44.1h0.1c0.1,0,0.2,0,0.3,0.1c0.1,0.1,0.1,0.2,0.1,0.3c0,0.1,0,0.2-0.1,0.3c-0.1,0.1-0.2,0.1-0.3,0.1
				h-0.1c-0.1,0-0.2,0-0.3-0.1c-0.1-0.1-0.1-0.2-0.1-0.3c0-0.1,0-0.2,0.1-0.3C116.9,44.2,117.1,44.1,117.2,44.1z"/>
		</g>
	</g>
	<g>
		<path class="st2" d="M4,2.9H2.5V2.3H6v0.5H4.6v4.2H4V2.9z"/>
		<path class="st2" d="M8,7.1l0-0.4h0c-0.2,0.3-0.6,0.5-1,0.5c-0.7,0-1-0.5-1-1c0-0.8,0.7-1.3,2-1.3V4.8C7.9,4.5,7.8,4,7.1,4
			C6.8,4,6.4,4.1,6.2,4.3L6.1,3.9c0.3-0.2,0.7-0.3,1.1-0.3c1,0,1.3,0.7,1.3,1.4v1.3c0,0.3,0,0.6,0.1,0.8H8z M7.9,5.3
			c-0.7,0-1.4,0.1-1.4,0.8c0,0.4,0.3,0.6,0.6,0.6c0.4,0,0.7-0.3,0.8-0.6c0-0.1,0-0.1,0-0.2V5.3z"/>
		<path class="st2" d="M9.5,4.7c0-0.4,0-0.7,0-1.1H10l0,0.7h0c0.2-0.5,0.5-0.7,0.9-0.7c0.1,0,0.1,0,0.2,0v0.6c-0.1,0-0.1,0-0.2,0
			c-0.4,0-0.7,0.3-0.8,0.8c0,0.1,0,0.2,0,0.3v1.8H9.5V4.7z"/>
		<path class="st2" d="M14.6,3.7c0,0.2,0,0.5,0,0.9v2c0,0.8-0.2,1.3-0.5,1.5c-0.3,0.3-0.8,0.4-1.2,0.4c-0.4,0-0.9-0.1-1.1-0.3
			l0.2-0.5c0.2,0.1,0.6,0.3,1,0.3C13.5,8,14,7.7,14,6.9V6.5h0C13.8,6.8,13.4,7,12.9,7c-0.8,0-1.4-0.7-1.4-1.7c0-1.1,0.7-1.8,1.5-1.8
			c0.6,0,0.9,0.3,1.1,0.6h0l0-0.5H14.6z M14,5c0-0.1,0-0.2,0-0.3c-0.1-0.4-0.4-0.7-0.9-0.7c-0.6,0-1,0.5-1,1.3c0,0.7,0.3,1.2,1,1.2
			c0.4,0,0.7-0.2,0.9-0.6c0-0.1,0-0.2,0-0.3V5z"/>
		<path class="st2" d="M16,5.5c0,0.8,0.5,1.2,1.2,1.2c0.4,0,0.7-0.1,0.9-0.2l0.1,0.4C17.9,7,17.6,7.1,17,7.1c-1,0-1.7-0.7-1.7-1.7
			c0-1,0.6-1.8,1.6-1.8c1.1,0,1.4,1,1.4,1.6c0,0.1,0,0.2,0,0.3H16z M17.8,5c0-0.4-0.2-1-0.9-1C16.3,4,16,4.6,16,5H17.8z"/>
		<path class="st2" d="M19.9,2.7v1h0.9v0.5h-0.9V6c0,0.4,0.1,0.7,0.5,0.7c0.2,0,0.3,0,0.4,0l0,0.5c-0.1,0-0.3,0.1-0.5,0.1
			c-0.3,0-0.5-0.1-0.7-0.3c-0.2-0.2-0.2-0.5-0.2-0.9V4.1h-0.5V3.7h0.5V2.9L19.9,2.7z"/>
		<path class="st2" d="M23.2,3.7l0.7,1.9c0.1,0.3,0.2,0.6,0.3,0.9h0c0.1-0.3,0.2-0.6,0.3-0.9l0.7-1.9h0.6l-1.3,3.4h-0.6l-1.3-3.4
			H23.2z"/>
		<path class="st2" d="M28.1,7.1l0-0.4h0c-0.2,0.3-0.6,0.5-1,0.5c-0.7,0-1-0.5-1-1c0-0.8,0.7-1.3,2-1.3V4.8C28,4.5,27.9,4,27.3,4
			c-0.3,0-0.6,0.1-0.9,0.3l-0.1-0.4c0.3-0.2,0.7-0.3,1.1-0.3c1,0,1.3,0.7,1.3,1.4v1.3c0,0.3,0,0.6,0.1,0.8H28.1z M28,5.3
			c-0.7,0-1.4,0.1-1.4,0.8c0,0.4,0.3,0.6,0.6,0.6c0.4,0,0.7-0.3,0.8-0.6C28,6,28,6,28,5.9V5.3z"/>
		<path class="st2" d="M29.6,4.7c0-0.4,0-0.7,0-1.1h0.5l0,0.7h0c0.2-0.5,0.5-0.7,0.9-0.7c0.1,0,0.1,0,0.2,0v0.6c-0.1,0-0.1,0-0.2,0
			c-0.4,0-0.7,0.3-0.8,0.8c0,0.1,0,0.2,0,0.3v1.8h-0.6V4.7z"/>
		<path class="st2" d="M32.6,2.7c0,0.2-0.1,0.4-0.4,0.4c-0.2,0-0.4-0.2-0.4-0.4c0-0.2,0.2-0.4,0.4-0.4C32.5,2.3,32.6,2.5,32.6,2.7z
			 M31.9,7.1V3.7h0.6v3.4H31.9z"/>
		<path class="st2" d="M35.5,7.1l0-0.4h0c-0.2,0.3-0.6,0.5-1,0.5c-0.7,0-1-0.5-1-1c0-0.8,0.7-1.3,2-1.3V4.8c0-0.3-0.1-0.8-0.8-0.8
			c-0.3,0-0.6,0.1-0.9,0.3l-0.1-0.4c0.3-0.2,0.7-0.3,1.1-0.3c1,0,1.3,0.7,1.3,1.4v1.3c0,0.3,0,0.6,0.1,0.8H35.5z M35.4,5.3
			c-0.7,0-1.4,0.1-1.4,0.8c0,0.4,0.3,0.6,0.6,0.6c0.4,0,0.7-0.3,0.8-0.6c0-0.1,0-0.1,0-0.2V5.3z"/>
		<path class="st2" d="M37,4.6c0-0.4,0-0.6,0-0.9h0.5l0,0.6h0c0.2-0.3,0.6-0.6,1.1-0.6c0.5,0,1.2,0.3,1.2,1.4v2h-0.6v-2
			c0-0.5-0.2-1-0.8-1c-0.4,0-0.7,0.3-0.8,0.6c0,0.1,0,0.2,0,0.3v2H37V4.6z"/>
		<path class="st2" d="M41.6,2.7v1h0.9v0.5h-0.9V6c0,0.4,0.1,0.7,0.5,0.7c0.2,0,0.3,0,0.4,0l0,0.5c-0.1,0-0.3,0.1-0.5,0.1
			c-0.3,0-0.5-0.1-0.7-0.3C41,6.7,41,6.4,41,6V4.1h-0.5V3.7H41V2.9L41.6,2.7z"/>
	</g>
	<g>
		<path class="st2" d="M8.4,27.5H7V27h3.5v0.5H9v4.2H8.4V27.5z"/>
		<path class="st2" d="M11.6,27.4c0,0.2-0.1,0.4-0.4,0.4c-0.2,0-0.4-0.2-0.4-0.4c0-0.2,0.2-0.4,0.4-0.4C11.4,27,11.6,27.2,11.6,27.4
			z M10.9,31.7v-3.4h0.6v3.4H10.9z"/>
		<path class="st2" d="M12.5,26.8h0.6v5h-0.6V26.8z"/>
		<path class="st2" d="M14.5,30.2c0,0.8,0.5,1.2,1.2,1.2c0.4,0,0.7-0.1,0.9-0.2l0.1,0.4c-0.2,0.1-0.6,0.2-1.1,0.2
			c-1,0-1.7-0.7-1.7-1.7c0-1,0.6-1.8,1.6-1.8c1.1,0,1.4,1,1.4,1.6c0,0.1,0,0.2,0,0.3H14.5z M16.3,29.7c0-0.4-0.2-1-0.9-1
			c-0.6,0-0.9,0.6-0.9,1H16.3z"/>
		<path class="st2" d="M20.6,26.8v4.1c0,0.3,0,0.6,0,0.9h-0.6l0-0.6h0c-0.2,0.4-0.6,0.7-1.2,0.7c-0.8,0-1.4-0.7-1.4-1.7
			c0-1.1,0.7-1.8,1.5-1.8c0.5,0,0.9,0.2,1,0.5h0v-2H20.6z M20,29.7c0-0.1,0-0.2,0-0.3c-0.1-0.4-0.4-0.7-0.9-0.7c-0.6,0-1,0.6-1,1.3
			c0,0.7,0.3,1.3,1,1.3c0.4,0,0.8-0.3,0.9-0.7c0-0.1,0-0.2,0-0.3V29.7z"/>
		<path class="st2" d="M26,28.3c0,0.2,0,0.5,0,0.9v2c0,0.8-0.2,1.3-0.5,1.5c-0.3,0.3-0.8,0.4-1.2,0.4c-0.4,0-0.9-0.1-1.1-0.3
			l0.2-0.5c0.2,0.1,0.6,0.3,1,0.3c0.6,0,1.1-0.3,1.1-1.2v-0.4h0c-0.2,0.3-0.6,0.6-1.1,0.6c-0.8,0-1.4-0.7-1.4-1.7
			c0-1.1,0.7-1.8,1.5-1.8c0.6,0,0.9,0.3,1.1,0.6h0l0-0.5H26z M25.4,29.7c0-0.1,0-0.2,0-0.3c-0.1-0.4-0.4-0.7-0.9-0.7
			c-0.6,0-1,0.5-1,1.3c0,0.7,0.3,1.2,1,1.2c0.4,0,0.7-0.2,0.9-0.6c0-0.1,0-0.2,0-0.3V29.7z"/>
		<path class="st2" d="M27,27.1c0.3-0.1,0.7-0.1,1.2-0.1c0.7,0,1.1,0.1,1.4,0.4c0.2,0.2,0.4,0.5,0.4,0.9c0,0.6-0.4,1-0.9,1.2v0
			c0.4,0.1,0.6,0.5,0.7,1c0.2,0.7,0.3,1.1,0.4,1.3h-0.6c-0.1-0.1-0.2-0.5-0.3-1.1c-0.1-0.7-0.4-0.9-0.9-0.9h-0.6v2H27V27.1z
			 M27.6,29.2h0.6c0.7,0,1.1-0.4,1.1-0.9c0-0.6-0.4-0.9-1.1-0.9c-0.3,0-0.5,0-0.6,0.1V29.2z"/>
		<path class="st2" d="M30.8,31.7V27h0.7l1.5,2.4c0.4,0.6,0.6,1.1,0.8,1.5l0,0c-0.1-0.6-0.1-1.2-0.1-1.9v-2h0.6v4.7h-0.6l-1.5-2.4
			c-0.3-0.5-0.6-1.1-0.9-1.6l0,0c0,0.6,0,1.2,0,1.9v2H30.8z"/>
		<path class="st2" d="M36.2,30.3l-0.5,1.5H35l1.6-4.7h0.7l1.6,4.7h-0.7l-0.5-1.5H36.2z M37.7,29.8l-0.5-1.4
			c-0.1-0.3-0.2-0.6-0.2-0.9h0c-0.1,0.3-0.1,0.6-0.2,0.9l-0.5,1.4H37.7z"/>
		<path class="st2" d="M39.5,31.1c0.2,0.1,0.5,0.2,0.8,0.2c0.4,0,0.7-0.2,0.7-0.5c0-0.3-0.2-0.5-0.6-0.6c-0.6-0.2-0.9-0.6-0.9-1
			c0-0.5,0.4-1,1.2-1c0.3,0,0.6,0.1,0.8,0.2l-0.2,0.4c-0.1-0.1-0.4-0.2-0.7-0.2c-0.4,0-0.6,0.2-0.6,0.5c0,0.3,0.2,0.4,0.6,0.6
			c0.6,0.2,0.9,0.5,0.9,1c0,0.6-0.5,1-1.3,1c-0.4,0-0.7-0.1-1-0.2L39.5,31.1z"/>
	</g>
	<path class="st3" d="M49.9,12.2c-2.3,0-4.1,0.9-4.1,2v13c0,1.1-1.8,2-4.1,2c2.3,0,4.1,0.9,4.1,2v13c0,1.1,1.8,2,4.1,2"/>
</g>
<g>
</g>
<g>
</g>
<g>
</g>
<g>
</g>
<g>
</g>
<g>
</g>
</svg>
