<svg xmlns="http://www.w3.org/2000/svg" xmlns:xlink="http://www.w3.org/1999/xlink" viewBox="0 0 145.46 97.25"><defs><style>.cls-1,.cls-3{fill:none;}.cls-2{clip-path:url(#clip-path);}.cls-3{stroke:#fff;stroke-miterlimit:10;stroke-width:1.5px;}.cls-4{fill:#fff;}</style><clipPath id="clip-path" transform="translate(-7.73 -11.46)"><rect class="cls-1" x="-6.19" y="-4.25" width="172.55" height="129.44"/></clipPath></defs><g id="Layer_1" data-name="Layer 1"><g class="cls-2"><path d="M66.14,11.46c4.65.18,9.32.25,14,.55,5.46.36,10.71,1.83,16,3.17,1.58.4,3.18.73,4.79,1,1.15.21,1.44,0,1.62-1.21a4.61,4.61,0,0,1,.2-1.36c.26-.49.67-1.17,1.1-1.24a1.89,1.89,0,0,1,1.6.69,7.38,7.38,0,0,1,.91,3A5.51,5.51,0,0,0,109,21c4.11,2.42,7.35,5.82,10.45,9.34a277.35,277.35,0,0,1,21.78,28.27,67.33,67.33,0,0,1,10.36,27.05c.51,3.12,1.08,6.23,1.49,9.36.54,4.18-1.31,7.4-4.54,9.84-4.72,3.56-10.11,4.23-15.89,3.74-8.78-.75-16.5-4.16-23.76-8.82-5.74-3.68-11.47-7.41-17-11.45A156.74,156.74,0,0,0,56.32,68.77c-7.84-3.09-15.76-6-23.62-9a108.09,108.09,0,0,1-18.53-8.9c-.75-.47-1.45-1-2.2-1.51-3.77-2.39-4.71-5.89-4-10.07.73-4.5,2.74-8.16,6.83-10.38,3.68-2,7.41-3.93,11.19-5.74,6.41-3.06,12.89-6,19.33-9a23.18,23.18,0,0,1,10-2.39c3.63,0,7.26,0,10.88,0Z" transform="translate(-7.73 -11.46)"/></g></g><g id="Layer_2" data-name="Layer 2"><path class="cls-3" d="M104.18,40.52c4.34-.11,22.53-.21,22.53-.21a2.13,2.13,0,0,1,2.39,2.28,2.3,2.3,0,0,1-2.25,2.47c-1.23,0-6.7.23-9.77.31-2.21.08-3.12,1.11-3.09,2.33l.36,15.73" transform="translate(-7.73 -11.46)"/><line class="cls-3" x1="117.31" y1="28.85" x2="117.41" y2="33.32"/><line class="cls-3" x1="114.79" y1="28.92" x2="114.89" y2="33.38"/><line class="cls-3" x1="112.2" y1="28.99" x2="112.3" y2="33.2"/><line class="cls-3" x1="109.49" y1="29.06" x2="109.6" y2="33.89"/><line class="cls-3" x1="105.91" y1="37.87" x2="104.08" y2="37.91"/><line class="cls-3" x1="105.97" y1="40.73" x2="104.15" y2="40.78"/><line class="cls-3" x1="106.42" y1="43.47" x2="104.21" y2="43.52"/><line class="cls-3" x1="106.49" y1="46.18" x2="104.27" y2="46.23"/><line class="cls-3" x1="106.55" y1="48.95" x2="104.34" y2="49.01"/><path class="cls-4" d="M48.18,50.19l0,.28c2.57.33,4.34,1,5.32,1.91a5.3,5.3,0,0,1,1.47,4,6.36,6.36,0,0,1-.84,3.39A6.26,6.26,0,0,1,51.89,62a9.86,9.86,0,0,1-3,1.16,15.7,15.7,0,0,1-3.22.35l-2,0-2.28,0-2.61,0,0-.35a4.09,4.09,0,0,1,.52-.68.78.78,0,0,0,.23-.48,9.13,9.13,0,0,0,.05-1.29V42a1.08,1.08,0,0,0-.45-.92,3,3,0,0,0-1.12-.51l-1.33-.35,0-.6.25-.24h8.65a21.51,21.51,0,0,1,2.9.19,9.55,9.55,0,0,1,2.59.7,4.54,4.54,0,0,1,1.84,1.42,3.78,3.78,0,0,1,.68,2.34,5.09,5.09,0,0,1-.75,2.86,6.47,6.47,0,0,1-2,1.9A17.27,17.27,0,0,1,48.18,50.19ZM42.37,41.4v8.34a.39.39,0,0,0,.36.29,4.57,4.57,0,0,0,.83,0A10.14,10.14,0,0,0,47,49.51a5.65,5.65,0,0,0,2.58-1.84,5.3,5.3,0,0,0,1-3.33,3,3,0,0,0-.79-2.24A4.21,4.21,0,0,0,47.7,41a12.15,12.15,0,0,0-2.78-.3c-.26,0-.58,0-1,0a4,4,0,0,0-1,.14A.69.69,0,0,0,42.37,41.4Zm0,10.19v9.52a.73.73,0,0,0,.43.77,7.7,7.7,0,0,0,2.19.18,8.73,8.73,0,0,0,3.33-.63,5.62,5.62,0,0,0,2.48-2,5.55,5.55,0,0,0,1-3.34,4.48,4.48,0,0,0-.63-2.52,4.19,4.19,0,0,0-1.67-1.45,7.16,7.16,0,0,0-2.31-.68,18.61,18.61,0,0,0-2.6-.18H43.05C42.69,51.31,42.46,51.4,42.37,51.59Z" transform="translate(-7.73 -11.46)"/><path class="cls-4" d="M70.62,50l-.21,1.68-2.07-.14c-.7-.05-1.39-.07-2.06-.07H64.21a12.06,12.06,0,0,0-1.75.11c-.47.07-.7.21-.7.42v4.86c0,.66,0,1.36.09,2.12a4.57,4.57,0,0,0,.43,1.8,2,2,0,0,0,1.07.9,8.26,8.26,0,0,0,2.3.22h1.19l1.36-.06c.54,0,1.25-.07,2.15-.14l3.49-.28.17.18-.45,1.85H60a1.42,1.42,0,0,1-.71-.94,4.88,4.88,0,0,1-.2-1.37V43.89q0-.39,0-1a3.2,3.2,0,0,0-.28-1.19A1.46,1.46,0,0,0,58,41a7.18,7.18,0,0,0-1.87-.47l0-.7.25-.25,5.18,0c.82,0,1.73,0,2.73,0l3-.11c1,0,1.91,0,2.73,0h.88c.25,0,.5,0,.73,0l-.07,1.75-.14.25c-.61,0-1.31-.09-2.12-.12l-2.36-.11-1.94-.09L64,41H62.63c-.35.07-.57.38-.68.93a9.5,9.5,0,0,0-.16,1.73v5.81c0,.3.23.46.67.47l1.64,0c.94,0,2,0,3.16-.07s2.21-.1,3.15-.17Z" transform="translate(-7.73 -11.46)"/><path class="cls-4" d="M83.78,51.84l-.07.28,9.21,10.36v.31l-3.47.91-2.59-3.31-2.61-3.32Q83,55.48,82.06,54.34c-.63-.76-1.07-1.27-1.33-1.52a1,1,0,0,0-.7-.32c0,1.68,0,3.37,0,5.06s.06,3.38.16,5.06l-2.91,1-.38-.31c.14-2.55.22-5.09.26-7.63s0-5.09,0-7.64c0-.14,0-.43,0-.87s0-1,0-1.58,0-1.23,0-1.87,0-1.21,0-1.7a1.06,1.06,0,0,0-.61-.91,4.73,4.73,0,0,0-1.27-.5,4.39,4.39,0,0,0-.82-.16l0-.6.21-.21H84.2a9.52,9.52,0,0,1,5.16,1.23,4.05,4.05,0,0,1,2,3.67,7.06,7.06,0,0,1-1,4,6.28,6.28,0,0,1-2.71,2.31A13,13,0,0,1,83.78,51.84ZM80,50.47a.93.93,0,0,0,.07.33.25.25,0,0,0,.24.2A11.06,11.06,0,0,0,84,50.4a6.12,6.12,0,0,0,2.82-1.91,5.13,5.13,0,0,0,1.08-3.38A3.46,3.46,0,0,0,87,42.54a4.57,4.57,0,0,0-2.24-1.21A11.86,11.86,0,0,0,82,41h-1.4c-.26,0-.4.3-.42.91,0,.44,0,1,0,1.71s0,1.44-.06,2.21,0,1.5,0,2.19,0,1.25,0,1.7S80,50.42,80,50.47Z" transform="translate(-7.73 -11.46)"/><path class="cls-4" d="M108.67,51.52a.51.51,0,0,1-.23.46l-.51.28-9.87,4.27a7.81,7.81,0,0,0,.58,2.24,4.57,4.57,0,0,0,1.44,1.92,3.83,3.83,0,0,0,2.5.77,6,6,0,0,0,2.82-.73A18.19,18.19,0,0,0,108,59.08l.38.07.46.63a22.79,22.79,0,0,1-2.36,1.94,13.66,13.66,0,0,1-2.7,1.53,7.58,7.58,0,0,1-2.92.59,5.23,5.23,0,0,1-2.89-.73,5.08,5.08,0,0,1-1.77-1.94,9.22,9.22,0,0,1-.89-2.7,16.53,16.53,0,0,1-.26-3,11.66,11.66,0,0,1,.38-3,6.63,6.63,0,0,1,1.4-2.66,9.06,9.06,0,0,1,6.9-3.15,4.71,4.71,0,0,1,5,4.83Zm-6.2-3.43a3.58,3.58,0,0,0-1.62.38,4,4,0,0,0-1.32,1.09,5.13,5.13,0,0,0-1.31,2.28,10.09,10.09,0,0,0-.3,2.48c0,.09,0,.19,0,.3s0,.21,0,.33l.14.14,7.07-2.8a.7.7,0,0,0,.32-.28,1.18,1.18,0,0,0,.14-.63,3.58,3.58,0,0,0-1.49-2.78A2.85,2.85,0,0,0,102.47,48.09Z" transform="translate(-7.73 -11.46)"/></g></svg>