<?xml version="1.0" encoding="utf-8"?>
<!-- Generator: Adobe Illustrator 25.4.1, SVG Export Plug-In . SVG Version: 6.00 Build 0)  -->
<svg version="1.1" id="Layer_1" xmlns="http://www.w3.org/2000/svg" xmlns:xlink="http://www.w3.org/1999/xlink" x="0px" y="0px"
	 viewBox="0 0 529.1 302" style="enable-background:new 0 0 529.1 302;" xml:space="preserve">
<style type="text/css">
	.st0{clip-path:url(#SVGID_00000094589768282508397760000000864693183682329495_);}
	.st1{fill:#FFFFFF;}
	.st2{fill:none;stroke:#000000;stroke-miterlimit:10;}
	.st3{fill:none;stroke:#D1D3D4;stroke-width:0.75;stroke-miterlimit:10;}
	.st4{clip-path:url(#SVGID_00000026883006987996674600000011637149988814805936_);}
	.st5{font-family:'ArialMT';}
	.st6{font-size:12px;}
	.st7{clip-path:url(#SVGID_00000028290961119270016720000017281140992560550046_);}
	.st8{clip-path:url(#SVGID_00000096057301362324101270000007168414791618690194_);}
	.st9{fill:none;stroke:#662D91;stroke-width:2;stroke-miterlimit:10;}
	.st10{font-size:18px;}
	.st11{clip-path:url(#SVGID_00000083792753190370228180000004305338308353774987_);}
	.st12{fill:none;stroke:#FBAC18;stroke-width:2;stroke-miterlimit:10;}
	.st13{clip-path:url(#SVGID_00000005256528819082526580000015096574913904083637_);}
	.st14{enable-background:new    ;}
	.st15{clip-path:url(#SVGID_00000065780143873996257800000011990303476499814837_);}
	.st16{clip-path:url(#SVGID_00000126310245221814512130000009921217363006860974_);}
	.st17{clip-path:url(#SVGID_00000129183282326970594450000013947690656194556332_);}
	.st18{fill:none;stroke:#6DCFF6;stroke-width:2;stroke-miterlimit:10;}
</style>
<g>
	<g>
		<g>
			<defs>
				<path id="SVGID_1_" d="M254.1,200.2h-72.7c-3.9,0-7-3.1-7-7V102c0-3.9,3.1-7,7-7h72.7c3.9,0,7,3.1,7,7v91.2
					C261.2,197.1,258,200.2,254.1,200.2z"/>
			</defs>
			<clipPath id="SVGID_00000123431407274217817110000002360147463732577664_">
				<use xlink:href="#SVGID_1_"  style="overflow:visible;"/>
			</clipPath>
			<g style="clip-path:url(#SVGID_00000123431407274217817110000002360147463732577664_);">
				<g>
					<g>
						
							<image style="overflow:visible;opacity:0.25;enable-background:new    ;" width="1088" height="1292" xlink:href="894C8A79.png"  transform="matrix(0.2389 0 0 0.2389 117.5669 53.6737)">
						</image>
						<g>
							<path class="st1" d="M346.9,339.6H155.4c-10.2,0-18.5-8.3-18.5-18.5V80.9c0-10.2,8.3-18.5,18.5-18.5h191.4
								c10.2,0,18.5,8.3,18.5,18.5v240.2C365.4,331.4,357.1,339.6,346.9,339.6z"/>
							<path class="st2" d="M346.9,339.6H155.4c-10.2,0-18.5-8.3-18.5-18.5V80.9c0-10.2,8.3-18.5,18.5-18.5h191.4
								c10.2,0,18.5,8.3,18.5,18.5v240.2C365.4,331.4,357.1,339.6,346.9,339.6z"/>
						</g>
					</g>
					<line class="st3" x1="259.5" y1="339.6" x2="259.5" y2="62.4"/>
					<line class="st3" x1="293.9" y1="339.6" x2="293.9" y2="62.4"/>
					<line class="st3" x1="207.9" y1="339.6" x2="207.9" y2="62.4"/>
					<line class="st3" x1="242.3" y1="339.6" x2="242.3" y2="62.4"/>
					<line class="st3" x1="190.7" y1="339.6" x2="190.7" y2="62.4"/>
					<line class="st3" x1="225.1" y1="339.6" x2="225.1" y2="62.4"/>
					<line class="st3" x1="156.3" y1="339.6" x2="156.3" y2="62.4"/>
					<line class="st3" x1="173.5" y1="339.6" x2="173.5" y2="62.4"/>
					<line class="st3" x1="328.3" y1="339.6" x2="328.3" y2="62.4"/>
					<line class="st3" x1="345.5" y1="339.6" x2="345.5" y2="62.4"/>
					<line class="st3" x1="276.7" y1="339.6" x2="276.7" y2="62.4"/>
					<line class="st3" x1="311.1" y1="339.6" x2="311.1" y2="62.4"/>
					<line class="st3" x1="137.2" y1="112.2" x2="364.5" y2="112.2"/>
					<line class="st3" x1="137.2" y1="76.8" x2="364.5" y2="76.8"/>
					<line class="st3" x1="137.2" y1="94.5" x2="364.5" y2="94.5"/>
					<line class="st3" x1="137.2" y1="165.3" x2="364.5" y2="165.3"/>
					<line class="st3" x1="137.2" y1="129.9" x2="364.5" y2="129.9"/>
					<line class="st3" x1="137.2" y1="147.6" x2="364.5" y2="147.6"/>
					<line class="st3" x1="137.2" y1="218.4" x2="364.5" y2="218.4"/>
					<line class="st3" x1="137.2" y1="183" x2="364.5" y2="183"/>
					<line class="st3" x1="137.2" y1="200.7" x2="364.5" y2="200.7"/>
					<line class="st3" x1="137.2" y1="271.6" x2="364.5" y2="271.6"/>
					<line class="st3" x1="137.2" y1="236.1" x2="364.5" y2="236.1"/>
					<line class="st3" x1="137.2" y1="253.8" x2="364.5" y2="253.8"/>
					<line class="st3" x1="137.2" y1="324.7" x2="364.5" y2="324.7"/>
					<line class="st3" x1="137.2" y1="289.3" x2="364.5" y2="289.3"/>
					<line class="st3" x1="137.2" y1="307" x2="364.5" y2="307"/>
				</g>
			</g>
		</g>
		<g>
			<path class="st2" d="M254.1,200.2h-72.7c-3.9,0-7-3.1-7-7V102c0-3.9,3.1-7,7-7h72.7c3.9,0,7,3.1,7,7v91.2
				C261.2,197.1,258,200.2,254.1,200.2z"/>
		</g>
	</g>
	<g>
		<g>
			<defs>
				<path id="SVGID_00000049195360531923390290000014578108409039471540_" d="M266.5,187.3h-72.7c-3.9,0-7-3.1-7-7V89
					c0-3.9,3.1-7,7-7h72.7c3.9,0,7,3.1,7,7v91.2C273.5,184.1,270.4,187.3,266.5,187.3z"/>
			</defs>
			<clipPath id="SVGID_00000095322667885741657600000009603532893907639479_">
				<use xlink:href="#SVGID_00000049195360531923390290000014578108409039471540_"  style="overflow:visible;"/>
			</clipPath>
			<g style="clip-path:url(#SVGID_00000095322667885741657600000009603532893907639479_);">
				<g>
					<g>
						
							<image style="overflow:visible;opacity:0.25;enable-background:new    ;" width="1088" height="1292" xlink:href="894C8A7A.png"  transform="matrix(0.2389 0 0 0.2389 129.9326 40.7174)">
						</image>
						<g>
							<path class="st1" d="M359.2,326.7H167.8c-10.2,0-18.5-8.3-18.5-18.5V67.9c0-10.2,8.3-18.5,18.5-18.5h191.4
								c10.2,0,18.5,8.3,18.5,18.5v240.2C377.7,318.4,369.4,326.7,359.2,326.7z"/>
							<path class="st2" d="M359.2,326.7H167.8c-10.2,0-18.5-8.3-18.5-18.5V67.9c0-10.2,8.3-18.5,18.5-18.5h191.4
								c10.2,0,18.5,8.3,18.5,18.5v240.2C377.7,318.4,369.4,326.7,359.2,326.7z"/>
						</g>
					</g>
					<line class="st3" x1="271.9" y1="326.7" x2="271.9" y2="49.4"/>
					<line class="st3" x1="306.3" y1="326.7" x2="306.3" y2="49.4"/>
					<line class="st3" x1="220.3" y1="326.7" x2="220.3" y2="49.4"/>
					<line class="st3" x1="254.7" y1="326.7" x2="254.7" y2="49.4"/>
					<line class="st3" x1="203.1" y1="326.7" x2="203.1" y2="49.4"/>
					<line class="st3" x1="237.5" y1="326.7" x2="237.5" y2="49.4"/>
					<line class="st3" x1="168.7" y1="326.7" x2="168.7" y2="49.4"/>
					<line class="st3" x1="185.9" y1="326.7" x2="185.9" y2="49.4"/>
					<line class="st3" x1="340.7" y1="326.7" x2="340.7" y2="49.4"/>
					<line class="st3" x1="357.9" y1="326.7" x2="357.9" y2="49.4"/>
					<line class="st3" x1="289.1" y1="326.7" x2="289.1" y2="49.4"/>
					<line class="st3" x1="323.5" y1="326.7" x2="323.5" y2="49.4"/>
					<line class="st3" x1="149.6" y1="99.2" x2="376.8" y2="99.2"/>
					<line class="st3" x1="149.6" y1="63.8" x2="376.8" y2="63.8"/>
					<line class="st3" x1="149.6" y1="81.5" x2="376.8" y2="81.5"/>
					<line class="st3" x1="149.6" y1="152.4" x2="376.8" y2="152.4"/>
					<line class="st3" x1="149.6" y1="116.9" x2="376.8" y2="116.9"/>
					<line class="st3" x1="149.6" y1="134.6" x2="376.8" y2="134.6"/>
					<line class="st3" x1="149.6" y1="205.5" x2="376.8" y2="205.5"/>
					<line class="st3" x1="149.6" y1="170.1" x2="376.8" y2="170.1"/>
					<line class="st3" x1="149.6" y1="187.8" x2="376.8" y2="187.8"/>
					<line class="st3" x1="149.6" y1="258.6" x2="376.8" y2="258.6"/>
					<line class="st3" x1="149.6" y1="223.2" x2="376.8" y2="223.2"/>
					<line class="st3" x1="149.6" y1="240.9" x2="376.8" y2="240.9"/>
					<line class="st3" x1="149.6" y1="311.7" x2="376.8" y2="311.7"/>
					<line class="st3" x1="149.6" y1="276.3" x2="376.8" y2="276.3"/>
					<line class="st3" x1="149.6" y1="294" x2="376.8" y2="294"/>
				</g>
			</g>
		</g>
		<g>
			<path class="st2" d="M266.5,187.3h-72.7c-3.9,0-7-3.1-7-7V89c0-3.9,3.1-7,7-7h72.7c3.9,0,7,3.1,7,7v91.2
				C273.5,184.1,270.4,187.3,266.5,187.3z"/>
		</g>
	</g>
	<line class="st2" x1="19.5" y1="176.3" x2="186.8" y2="176.3"/>
	<line class="st2" x1="108.2" y1="158.9" x2="202.8" y2="158.9"/>
	<text transform="matrix(1 0 0 1 19.5171 172.4433)" class="st5 st6">screen.layers[’X_bcmatch’]</text>
	<text transform="matrix(1 0 0 1 108.1607 155.2745)" class="st5 st6">screen.X</text>
	<line class="st2" x1="7.3" y1="196.2" x2="174.4" y2="196.2"/>
	<text transform="matrix(1 0 0 1 7.2896 191.9337)" class="st5 st6">screen.layers[’edits’]</text>
	<g>
		<g>
			<defs>
				<path id="SVGID_00000045585531685040303350000011398228571330231193_" d="M282.5,174.4h-72.7c-3.9,0-7-3.1-7-7V76.2
					c0-3.9,3.1-7,7-7h72.7c3.9,0,7,3.1,7,7v91.2C289.5,171.3,286.4,174.4,282.5,174.4z"/>
			</defs>
			<clipPath id="SVGID_00000003818163095590454480000000665694423393457076_">
				<use xlink:href="#SVGID_00000045585531685040303350000011398228571330231193_"  style="overflow:visible;"/>
			</clipPath>
			<g style="clip-path:url(#SVGID_00000003818163095590454480000000665694423393457076_);">
				<g>
					<g>
						
							<image style="overflow:visible;opacity:0.25;enable-background:new    ;" width="1088" height="1292" xlink:href="894C8A7B.png"  transform="matrix(0.2389 0 0 0.2389 145.9559 27.8603)">
						</image>
						<g>
							<path class="st1" d="M375.2,313.8H183.8c-10.2,0-18.5-8.3-18.5-18.5V55.1c0-10.2,8.3-18.5,18.5-18.5h191.5
								c10.2,0,18.5,8.3,18.5,18.5v240.2C393.7,305.5,385.5,313.8,375.2,313.8z"/>
							<path class="st2" d="M375.2,313.8H183.8c-10.2,0-18.5-8.3-18.5-18.5V55.1c0-10.2,8.3-18.5,18.5-18.5h191.5
								c10.2,0,18.5,8.3,18.5,18.5v240.2C393.7,305.5,385.5,313.8,375.2,313.8z"/>
						</g>
					</g>
					<line class="st3" x1="287.9" y1="313.8" x2="287.9" y2="36.6"/>
					<line class="st3" x1="322.3" y1="313.8" x2="322.3" y2="36.6"/>
					<line class="st3" x1="236.3" y1="313.8" x2="236.3" y2="36.6"/>
					<line class="st3" x1="270.7" y1="313.8" x2="270.7" y2="36.6"/>
					<line class="st3" x1="219.1" y1="313.8" x2="219.1" y2="36.6"/>
					<line class="st3" x1="253.5" y1="313.8" x2="253.5" y2="36.6"/>
					<line class="st3" x1="184.7" y1="313.8" x2="184.7" y2="36.6"/>
					<line class="st3" x1="201.9" y1="313.8" x2="201.9" y2="36.6"/>
					<line class="st3" x1="356.7" y1="313.8" x2="356.7" y2="36.6"/>
					<line class="st3" x1="373.9" y1="313.8" x2="373.9" y2="36.6"/>
					<line class="st3" x1="305.1" y1="313.8" x2="305.1" y2="36.6"/>
					<line class="st3" x1="339.5" y1="313.8" x2="339.5" y2="36.6"/>
					<line class="st3" x1="165.6" y1="86.4" x2="392.8" y2="86.4"/>
					<line class="st3" x1="165.6" y1="51" x2="392.8" y2="51"/>
					<line class="st3" x1="165.6" y1="68.7" x2="392.8" y2="68.7"/>
					<line class="st3" x1="165.6" y1="139.5" x2="392.8" y2="139.5"/>
					<line class="st3" x1="165.6" y1="104.1" x2="392.8" y2="104.1"/>
					<line class="st3" x1="165.6" y1="121.8" x2="392.8" y2="121.8"/>
					<line class="st3" x1="165.6" y1="192.6" x2="392.8" y2="192.6"/>
					<line class="st3" x1="165.6" y1="157.2" x2="392.8" y2="157.2"/>
					<line class="st3" x1="165.6" y1="174.9" x2="392.8" y2="174.9"/>
					<line class="st3" x1="165.6" y1="245.7" x2="392.8" y2="245.7"/>
					<line class="st3" x1="165.6" y1="210.3" x2="392.8" y2="210.3"/>
					<line class="st3" x1="165.6" y1="228" x2="392.8" y2="228"/>
					<line class="st3" x1="165.6" y1="298.9" x2="392.8" y2="298.9"/>
					<line class="st3" x1="165.6" y1="263.4" x2="392.8" y2="263.4"/>
					<line class="st3" x1="165.6" y1="281.2" x2="392.8" y2="281.2"/>
				</g>
			</g>
		</g>
		<g>
			<path class="st2" d="M282.5,174.4h-72.7c-3.9,0-7-3.1-7-7V76.2c0-3.9,3.1-7,7-7h72.7c3.9,0,7,3.1,7,7v91.2
				C289.5,171.3,286.4,174.4,282.5,174.4z"/>
		</g>
	</g>
	<g>
		<g>
			<g>
				<defs>
					<path id="SVGID_00000039118990236368938610000004949527325368840600_" d="M282.3,62.7h-72.7c-3.9,0-7-1.6-7-3.5V13.6
						c0-1.9,3.1-3.5,7-3.5h72.7c3.9,0,7,1.6,7,3.5v45.6C289.3,61.1,286.2,62.7,282.3,62.7z"/>
				</defs>
				<clipPath id="SVGID_00000101084498582694719000000013921358039220982688_">
					<use xlink:href="#SVGID_00000039118990236368938610000004949527325368840600_"  style="overflow:visible;"/>
				</clipPath>
				<g style="clip-path:url(#SVGID_00000101084498582694719000000013921358039220982688_);">
					<g>
						<g>
							
								<image style="overflow:visible;opacity:0.25;enable-background:new    ;" width="1088" height="1292" xlink:href="894C8A6E.png"  transform="matrix(0.2389 0 0 0.2389 145.7568 -83.8547)">
							</image>
							<g>
								<path class="st1" d="M375,202.1H183.6c-10.2,0-18.5-8.3-18.5-18.5V-56.6c0-10.2,8.3-18.5,18.5-18.5H375
									c10.2,0,18.5,8.3,18.5,18.5v240.2C393.5,193.8,385.3,202.1,375,202.1z"/>
								<path class="st2" d="M375,202.1H183.6c-10.2,0-18.5-8.3-18.5-18.5V-56.6c0-10.2,8.3-18.5,18.5-18.5H375
									c10.2,0,18.5,8.3,18.5,18.5v240.2C393.5,193.8,385.3,202.1,375,202.1z"/>
							</g>
						</g>
						<line class="st3" x1="287.7" y1="202.1" x2="287.7" y2="-75.1"/>
						<line class="st3" x1="322.1" y1="202.1" x2="322.1" y2="-75.1"/>
						<line class="st3" x1="236.1" y1="202.1" x2="236.1" y2="-75.1"/>
						<line class="st3" x1="270.5" y1="202.1" x2="270.5" y2="-75.1"/>
						<line class="st3" x1="218.9" y1="202.1" x2="218.9" y2="-75.1"/>
						<line class="st3" x1="253.3" y1="202.1" x2="253.3" y2="-75.1"/>
						<line class="st3" x1="184.5" y1="202.1" x2="184.5" y2="-75.1"/>
						<line class="st3" x1="201.7" y1="202.1" x2="201.7" y2="-75.1"/>
						<line class="st3" x1="356.5" y1="202.1" x2="356.5" y2="-75.1"/>
						<line class="st3" x1="373.7" y1="202.1" x2="373.7" y2="-75.1"/>
						<line class="st3" x1="304.9" y1="202.1" x2="304.9" y2="-75.1"/>
						<line class="st3" x1="339.3" y1="202.1" x2="339.3" y2="-75.1"/>
						<line class="st3" x1="165.4" y1="-25.3" x2="392.6" y2="-25.3"/>
						<line class="st3" x1="165.4" y1="-60.7" x2="392.6" y2="-60.7"/>
						<line class="st3" x1="165.4" y1="-43" x2="392.6" y2="-43"/>
						<line class="st3" x1="165.4" y1="27.8" x2="392.6" y2="27.8"/>
						<line class="st3" x1="165.4" y1="-7.6" x2="392.6" y2="-7.6"/>
						<line class="st3" x1="165.4" y1="10.1" x2="392.6" y2="10.1"/>
						<line class="st3" x1="165.4" y1="80.9" x2="392.6" y2="80.9"/>
						<line class="st3" x1="165.4" y1="45.5" x2="392.6" y2="45.5"/>
						<line class="st3" x1="165.4" y1="63.2" x2="392.6" y2="63.2"/>
						<line class="st3" x1="165.4" y1="134" x2="392.6" y2="134"/>
						<line class="st3" x1="165.4" y1="98.6" x2="392.6" y2="98.6"/>
						<line class="st3" x1="165.4" y1="116.3" x2="392.6" y2="116.3"/>
						<line class="st3" x1="165.4" y1="187.1" x2="392.6" y2="187.1"/>
						<line class="st3" x1="165.4" y1="151.7" x2="392.6" y2="151.7"/>
						<line class="st3" x1="165.4" y1="169.4" x2="392.6" y2="169.4"/>
					</g>
				</g>
			</g>
			<g>
				<path class="st9" d="M282.7,62.7H210c-3.9,0-7-3.5-7-7V17.1c0-3.5,3.1-7.1,7-7.1h72.7c3.9,0,6.6,3.5,7,6.6v39.2
					C289.7,57.9,286.6,62.7,282.7,62.7z"/>
			</g>
		</g>
		<text transform="matrix(1 0 0 1 205.9876 42.7022)" class="st5 st10">conditions</text>
	</g>
	<g>
		<g>
			<defs>
				<path id="SVGID_00000052822742032954038780000008875687762547897772_" d="M353,78.5V165c0,4.6-1.6,8.4-3.5,8.4h-45.6
					c-1.9,0-3.5-3.7-3.5-8.4V78.5c0-4.6,1.6-8.4,3.5-8.4h45.6C351.5,70.2,353,73.9,353,78.5z"/>
			</defs>
			<clipPath id="SVGID_00000134927956089675625900000008804586322070039425_">
				<use xlink:href="#SVGID_00000052822742032954038780000008875687762547897772_"  style="overflow:visible;"/>
			</clipPath>
			<g style="clip-path:url(#SVGID_00000134927956089675625900000008804586322070039425_);">
				<g>
					<g>
						
							<image style="overflow:visible;opacity:0.25;enable-background:new    ;" width="1088" height="1292" xlink:href="894C8A6F.png"  transform="matrix(1.072514e-11 -0.2389 0.2389 1.072514e-11 206.4804 229.3429)">
						</image>
						<g>
							<path class="st1" d="M492.4,0.1v191.4c0,10.2-8.3,18.5-18.5,18.5H233.7c-10.2,0-18.5-8.3-18.5-18.5V0.1
								c0-10.2,8.3-18.5,18.5-18.5h240.2C484.2-18.4,492.4-10.2,492.4,0.1z"/>
							<path class="st2" d="M492.4,0.1v191.4c0,10.2-8.3,18.5-18.5,18.5H233.7c-10.2,0-18.5-8.3-18.5-18.5V0.1
								c0-10.2,8.3-18.5,18.5-18.5h240.2C484.2-18.4,492.4-10.2,492.4,0.1z"/>
						</g>
					</g>
					<line class="st3" x1="492.4" y1="87.4" x2="215.2" y2="87.4"/>
					<line class="st3" x1="492.4" y1="53" x2="215.2" y2="53"/>
					<line class="st3" x1="492.4" y1="139" x2="215.2" y2="139"/>
					<line class="st3" x1="492.4" y1="104.6" x2="215.2" y2="104.6"/>
					<line class="st3" x1="492.4" y1="156.2" x2="215.2" y2="156.2"/>
					<line class="st3" x1="492.4" y1="121.8" x2="215.2" y2="121.8"/>
					<line class="st3" x1="492.4" y1="190.6" x2="215.2" y2="190.6"/>
					<line class="st3" x1="492.4" y1="173.4" x2="215.2" y2="173.4"/>
					<line class="st3" x1="492.4" y1="18.6" x2="215.2" y2="18.6"/>
					<line class="st3" x1="492.4" y1="1.4" x2="215.2" y2="1.4"/>
					<line class="st3" x1="492.4" y1="70.2" x2="215.2" y2="70.2"/>
					<line class="st3" x1="492.4" y1="35.8" x2="215.2" y2="35.8"/>
					<line class="st3" x1="265" y1="209.7" x2="265" y2="-17.5"/>
					<line class="st3" x1="229.6" y1="209.7" x2="229.6" y2="-17.5"/>
					<line class="st3" x1="247.3" y1="209.7" x2="247.3" y2="-17.5"/>
					<line class="st3" x1="318.1" y1="209.7" x2="318.1" y2="-17.5"/>
					<line class="st3" x1="282.7" y1="209.7" x2="282.7" y2="-17.5"/>
					<line class="st3" x1="300.4" y1="209.7" x2="300.4" y2="-17.5"/>
					<line class="st3" x1="371.2" y1="209.7" x2="371.2" y2="-17.5"/>
					<line class="st3" x1="335.8" y1="209.7" x2="335.8" y2="-17.5"/>
					<line class="st3" x1="353.5" y1="209.7" x2="353.5" y2="-17.5"/>
					<line class="st3" x1="424.4" y1="209.7" x2="424.4" y2="-17.5"/>
					<line class="st3" x1="388.9" y1="209.7" x2="388.9" y2="-17.5"/>
					<line class="st3" x1="406.7" y1="209.7" x2="406.7" y2="-17.5"/>
					<line class="st3" x1="477.5" y1="209.7" x2="477.5" y2="-17.5"/>
					<line class="st3" x1="442.1" y1="209.7" x2="442.1" y2="-17.5"/>
					<line class="st3" x1="459.8" y1="209.7" x2="459.8" y2="-17.5"/>
				</g>
			</g>
		</g>
		<g>
			<path class="st12" d="M353,77.7v88.2c0,4.7-3.5,8.5-7,8.5h-38.6c-3.5,0-7.1-3.8-7.1-8.5V77.7c0-4.7,3.5-8,6.6-8.5h39.2
				C348.2,69.2,353,73,353,77.7z"/>
		</g>
	</g>
	<text transform="matrix(1 0 0 1 300.4128 125.5104)" class="st5 st10">guides</text>
	<g>
		<g>
			<defs>
				<path id="SVGID_00000059286047793736063590000017453298590907346317_" d="M514,287.3h-72.7c-3.9,0-7-6.5-7-14.5V84.7
					c0-8,3.1-14.5,7-14.5H514c3.9,0,7,6.5,7,14.5v188.1C521,280.8,517.9,287.3,514,287.3z"/>
			</defs>
			<clipPath id="SVGID_00000008836368843082836700000010049056287588303791_">
				<use xlink:href="#SVGID_00000059286047793736063590000017453298590907346317_"  style="overflow:visible;"/>
			</clipPath>
			<g style="clip-path:url(#SVGID_00000008836368843082836700000010049056287588303791_);">
				<g>
					<g>
						
							<image style="overflow:visible;opacity:0.25;enable-background:new    ;" width="1088" height="1292" xlink:href="894C8A62.png"  transform="matrix(0.2389 0 0 0.2389 377.4541 28.8853)">
						</image>
						<g>
							<path class="st1" d="M606.7,314.8H415.3c-10.2,0-18.5-8.3-18.5-18.5V56.1c0-10.2,8.3-18.5,18.5-18.5h191.4
								c10.2,0,18.5,8.3,18.5,18.5v240.3C625.2,306.6,617,314.8,606.7,314.8z"/>
							<path class="st2" d="M606.7,314.8H415.3c-10.2,0-18.5-8.3-18.5-18.5V56.1c0-10.2,8.3-18.5,18.5-18.5h191.4
								c10.2,0,18.5,8.3,18.5,18.5v240.3C625.2,306.6,617,314.8,606.7,314.8z"/>
						</g>
					</g>
					<line class="st3" x1="519.4" y1="314.8" x2="519.4" y2="37.6"/>
					<line class="st3" x1="553.8" y1="314.8" x2="553.8" y2="37.6"/>
					<line class="st3" x1="467.8" y1="314.8" x2="467.8" y2="37.6"/>
					<line class="st3" x1="502.2" y1="314.8" x2="502.2" y2="37.6"/>
					<line class="st3" x1="450.6" y1="314.8" x2="450.6" y2="37.6"/>
					<line class="st3" x1="485" y1="314.8" x2="485" y2="37.6"/>
					<line class="st3" x1="416.2" y1="314.8" x2="416.2" y2="37.6"/>
					<line class="st3" x1="433.4" y1="314.8" x2="433.4" y2="37.6"/>
					<line class="st3" x1="588.2" y1="314.8" x2="588.2" y2="37.6"/>
					<line class="st3" x1="605.4" y1="314.8" x2="605.4" y2="37.6"/>
					<line class="st3" x1="536.6" y1="314.8" x2="536.6" y2="37.6"/>
					<line class="st3" x1="571" y1="314.8" x2="571" y2="37.6"/>
					<line class="st3" x1="397.1" y1="87.4" x2="624.3" y2="87.4"/>
					<line class="st3" x1="397.1" y1="52" x2="624.3" y2="52"/>
					<line class="st3" x1="397.1" y1="69.7" x2="624.3" y2="69.7"/>
					<line class="st3" x1="397.1" y1="140.5" x2="624.3" y2="140.5"/>
					<line class="st3" x1="397.1" y1="105.1" x2="624.3" y2="105.1"/>
					<line class="st3" x1="397.1" y1="122.8" x2="624.3" y2="122.8"/>
					<line class="st3" x1="397.1" y1="193.6" x2="624.3" y2="193.6"/>
					<line class="st3" x1="397.1" y1="158.2" x2="624.3" y2="158.2"/>
					<line class="st3" x1="397.1" y1="175.9" x2="624.3" y2="175.9"/>
					<line class="st3" x1="397.1" y1="246.8" x2="624.3" y2="246.8"/>
					<line class="st3" x1="397.1" y1="211.3" x2="624.3" y2="211.3"/>
					<line class="st3" x1="397.1" y1="229.1" x2="624.3" y2="229.1"/>
					<line class="st3" x1="397.1" y1="299.9" x2="624.3" y2="299.9"/>
					<line class="st3" x1="397.1" y1="264.5" x2="624.3" y2="264.5"/>
					<line class="st3" x1="397.1" y1="282.2" x2="624.3" y2="282.2"/>
				</g>
			</g>
		</g>
		<g>
			<path class="st2" d="M514,287.9h-72.7c-3.9,0-7-6.5-7-14.5V84.7c0-8,3.1-14.5,7-14.5H514c3.9,0,7,6.5,7,14.5v188.7
				C521,281.4,517.9,287.9,514,287.9z"/>
		</g>
	</g>
	<text transform="matrix(1 0 0 1 456.4544 166.2153)" class="st14"><tspan x="0" y="0" class="st5 st10">allele</tspan><tspan x="-1" y="21.6" class="st5 st10">count</tspan></text>
	<g>
		<g>
			<g>
				<defs>
					<path id="SVGID_00000078021853305716363800000012041614686676646049_" d="M513.8,65.3h-72.7c-3.9,0-7-1.6-7-3.5V16.2
						c0-1.9,3.1-3.5,7-3.5h72.7c3.9,0,7,1.6,7,3.5v45.6C520.8,63.8,517.7,65.3,513.8,65.3z"/>
				</defs>
				<clipPath id="SVGID_00000041989060174667310220000001117125823042632080_">
					<use xlink:href="#SVGID_00000078021853305716363800000012041614686676646049_"  style="overflow:visible;"/>
				</clipPath>
				<g style="clip-path:url(#SVGID_00000041989060174667310220000001117125823042632080_);">
					<g>
						<g>
							
								<image style="overflow:visible;opacity:0.25;enable-background:new    ;" width="1088" height="1292" xlink:href="894C8A63.png"  transform="matrix(0.2389 0 0 0.2389 377.255 -81.2387)">
							</image>
							<g>
								<path class="st1" d="M606.5,204.7H415.1c-10.2,0-18.5-8.3-18.5-18.5V-54c0-10.2,8.3-18.5,18.5-18.5h191.4
									c10.2,0,18.5,8.3,18.5,18.5v240.2C625,196.4,616.8,204.7,606.5,204.7z"/>
								<path class="st2" d="M606.5,204.7H415.1c-10.2,0-18.5-8.3-18.5-18.5V-54c0-10.2,8.3-18.5,18.5-18.5h191.4
									c10.2,0,18.5,8.3,18.5,18.5v240.2C625,196.4,616.8,204.7,606.5,204.7z"/>
							</g>
						</g>
						<line class="st3" x1="519.2" y1="204.7" x2="519.2" y2="-72.5"/>
						<line class="st3" x1="553.6" y1="204.7" x2="553.6" y2="-72.5"/>
						<line class="st3" x1="467.6" y1="204.7" x2="467.6" y2="-72.5"/>
						<line class="st3" x1="502" y1="204.7" x2="502" y2="-72.5"/>
						<line class="st3" x1="450.4" y1="204.7" x2="450.4" y2="-72.5"/>
						<line class="st3" x1="484.8" y1="204.7" x2="484.8" y2="-72.5"/>
						<line class="st3" x1="416" y1="204.7" x2="416" y2="-72.5"/>
						<line class="st3" x1="433.2" y1="204.7" x2="433.2" y2="-72.5"/>
						<line class="st3" x1="588" y1="204.7" x2="588" y2="-72.5"/>
						<line class="st3" x1="605.2" y1="204.7" x2="605.2" y2="-72.5"/>
						<line class="st3" x1="536.4" y1="204.7" x2="536.4" y2="-72.5"/>
						<line class="st3" x1="570.8" y1="204.7" x2="570.8" y2="-72.5"/>
						<line class="st3" x1="396.9" y1="-22.7" x2="624.1" y2="-22.7"/>
						<line class="st3" x1="396.9" y1="-58.1" x2="624.1" y2="-58.1"/>
						<line class="st3" x1="396.9" y1="-40.4" x2="624.1" y2="-40.4"/>
						<line class="st3" x1="396.9" y1="30.4" x2="624.1" y2="30.4"/>
						<line class="st3" x1="396.9" y1="-5" x2="624.1" y2="-5"/>
						<line class="st3" x1="396.9" y1="12.7" x2="624.1" y2="12.7"/>
						<line class="st3" x1="396.9" y1="83.5" x2="624.1" y2="83.5"/>
						<line class="st3" x1="396.9" y1="48.1" x2="624.1" y2="48.1"/>
						<line class="st3" x1="396.9" y1="65.8" x2="624.1" y2="65.8"/>
						<line class="st3" x1="396.9" y1="136.6" x2="624.1" y2="136.6"/>
						<line class="st3" x1="396.9" y1="101.2" x2="624.1" y2="101.2"/>
						<line class="st3" x1="396.9" y1="118.9" x2="624.1" y2="118.9"/>
						<line class="st3" x1="396.9" y1="189.8" x2="624.1" y2="189.8"/>
						<line class="st3" x1="396.9" y1="154.3" x2="624.1" y2="154.3"/>
						<line class="st3" x1="396.9" y1="172.1" x2="624.1" y2="172.1"/>
					</g>
				</g>
			</g>
			<g>
				<path class="st9" d="M514.2,65.3h-72.7c-3.9,0-7-3.5-7-7V19.8c0-3.5,3.1-7.1,7-7.1h72.7c3.9,0,6.6,3.5,7,6.6v39.2
					C521.2,60.5,518.1,65.3,514.2,65.3z"/>
			</g>
		</g>
		<text transform="matrix(1 0 0 1 437.4859 45.3182)" class="st5 st10">conditions</text>
	</g>
	<g>
		<g>
			<defs>
				<path id="SVGID_00000147193762486387173130000000407353824269723570_" d="M410.3,90.2V264c0,9.3-0.5,16.8-1.2,16.8h-15.3
					c-0.7,0-1.2-7.5-1.2-16.8V90.2c0-9.3,0.5-16.8,1.2-16.8h15.3C409.7,73.4,410.3,80.9,410.3,90.2z"/>
			</defs>
			<clipPath id="SVGID_00000130631199237101062470000011531654204239590579_">
				<use xlink:href="#SVGID_00000147193762486387173130000000407353824269723570_"  style="overflow:visible;"/>
			</clipPath>
			<g style="clip-path:url(#SVGID_00000130631199237101062470000011531654204239590579_);">
				<g>
					<g>
						
							<image style="overflow:visible;opacity:0.25;enable-background:new    ;" width="1088" height="1292" xlink:href="894C8A64.png"  transform="matrix(1.072514e-11 -0.4802 0.2389 2.156111e-11 298.6302 393.3086)">
						</image>
						<g>
							<path class="st1" d="M584.6-67.6v384.9c0,20.5-8.3,37.2-18.5,37.2H325.8c-10.2,0-18.5-16.6-18.5-37.2V-67.6
								c0-20.5,8.3-37.2,18.5-37.2h240.2C576.3-104.8,584.6-88.2,584.6-67.6z"/>
							<path class="st2" d="M584.6-67.6v384.9c0,20.5-8.3,37.2-18.5,37.2H325.8c-10.2,0-18.5-16.6-18.5-37.2V-67.6
								c0-20.5,8.3-37.2,18.5-37.2h240.2C576.3-104.8,584.6-88.2,584.6-67.6z"/>
						</g>
					</g>
					<line class="st3" x1="584.6" y1="107.9" x2="307.3" y2="107.9"/>
					<line class="st3" x1="584.6" y1="38.8" x2="307.3" y2="38.8"/>
					<line class="st3" x1="584.6" y1="211.7" x2="307.3" y2="211.7"/>
					<line class="st3" x1="584.6" y1="142.5" x2="307.3" y2="142.5"/>
					<line class="st3" x1="584.6" y1="246.3" x2="307.3" y2="246.3"/>
					<line class="st3" x1="584.6" y1="177.1" x2="307.3" y2="177.1"/>
					<line class="st3" x1="584.6" y1="315.4" x2="307.3" y2="315.4"/>
					<line class="st3" x1="584.6" y1="280.8" x2="307.3" y2="280.8"/>
					<line class="st3" x1="584.6" y1="-30.4" x2="307.3" y2="-30.4"/>
					<line class="st3" x1="584.6" y1="-65" x2="307.3" y2="-65"/>
					<line class="st3" x1="584.6" y1="73.4" x2="307.3" y2="73.4"/>
					<line class="st3" x1="584.6" y1="4.2" x2="307.3" y2="4.2"/>
					<line class="st3" x1="357.2" y1="353.8" x2="357.2" y2="-103"/>
					<line class="st3" x1="321.7" y1="353.8" x2="321.7" y2="-103"/>
					<line class="st3" x1="339.4" y1="353.8" x2="339.4" y2="-103"/>
					<line class="st3" x1="410.3" y1="353.8" x2="410.3" y2="-103"/>
					<line class="st3" x1="374.9" y1="353.8" x2="374.9" y2="-103"/>
					<line class="st3" x1="392.6" y1="353.8" x2="392.6" y2="-103"/>
					<line class="st3" x1="463.4" y1="353.8" x2="463.4" y2="-103"/>
					<line class="st3" x1="428" y1="353.8" x2="428" y2="-103"/>
					<line class="st3" x1="445.7" y1="353.8" x2="445.7" y2="-103"/>
					<line class="st3" x1="516.5" y1="353.8" x2="516.5" y2="-103"/>
					<line class="st3" x1="481.1" y1="353.8" x2="481.1" y2="-103"/>
					<line class="st3" x1="498.8" y1="353.8" x2="498.8" y2="-103"/>
					<line class="st3" x1="569.6" y1="353.8" x2="569.6" y2="-103"/>
					<line class="st3" x1="534.2" y1="353.8" x2="534.2" y2="-103"/>
					<line class="st3" x1="551.9" y1="353.8" x2="551.9" y2="-103"/>
				</g>
			</g>
		</g>
		<g>
			<path class="st12" d="M410.3,88.4v177.3c0,9.5-1.2,17.1-2.4,17.1h-13c-1.2,0-2.4-7.7-2.4-17.1V88.4c0-9.5,1.2-16.2,2.2-17.1H408
				C408.6,71.3,410.3,79,410.3,88.4z"/>
		</g>
	</g>
	<line class="st3" x1="394.8" y1="71.3" x2="349.5" y2="71.3"/>
	<g>
		<g>
			<defs>
				<path id="SVGID_00000016777720469032240280000010327648501707669152_" d="M429.1,87.4v182.9c0,9.8-0.5,17.7-1.2,17.7h-15.3
					c-0.7,0-1.2-7.9-1.2-17.7V87.4c0-9.8,0.5-17.7,1.2-17.7h15.3C428.6,69.7,429.1,77.6,429.1,87.4z"/>
			</defs>
			<clipPath id="SVGID_00000183237545004017775740000003696252213299358855_">
				<use xlink:href="#SVGID_00000016777720469032240280000010327648501707669152_"  style="overflow:visible;"/>
			</clipPath>
			<g style="clip-path:url(#SVGID_00000183237545004017775740000003696252213299358855_);">
				<g>
					<g>
						
							<image style="overflow:visible;opacity:0.25;enable-background:new    ;" width="1088" height="1292" xlink:href="894C8A65.png"  transform="matrix(1.072514e-11 -0.2461 0.2389 1.105115e-11 317.4851 322.8132)">
						</image>
						<g>
							<path class="st1" d="M603.4,86.6v197.3c0,10.5-8.3,19.1-18.5,19.1H344.7c-10.2,0-18.5-8.5-18.5-19.1V86.6
								c0-10.5,8.3-19.1,18.5-19.1h240.2C595.2,67.5,603.4,76,603.4,86.6z"/>
							<path class="st2" d="M603.4,86.6v197.3c0,10.5-8.3,19.1-18.5,19.1H344.7c-10.2,0-18.5-8.5-18.5-19.1V86.6
								c0-10.5,8.3-19.1,18.5-19.1h240.2C595.2,67.5,603.4,76,603.4,86.6z"/>
						</g>
					</g>
					<line class="st3" x1="603.4" y1="176.5" x2="326.2" y2="176.5"/>
					<line class="st3" x1="603.4" y1="141.1" x2="326.2" y2="141.1"/>
					<line class="st3" x1="603.4" y1="229.7" x2="326.2" y2="229.7"/>
					<line class="st3" x1="603.4" y1="194.3" x2="326.2" y2="194.3"/>
					<line class="st3" x1="603.4" y1="247.4" x2="326.2" y2="247.4"/>
					<line class="st3" x1="603.4" y1="212" x2="326.2" y2="212"/>
					<line class="st3" x1="603.4" y1="282.9" x2="326.2" y2="282.9"/>
					<line class="st3" x1="603.4" y1="265.2" x2="326.2" y2="265.2"/>
					<line class="st3" x1="603.4" y1="105.6" x2="326.2" y2="105.6"/>
					<line class="st3" x1="603.4" y1="87.9" x2="326.2" y2="87.9"/>
					<line class="st3" x1="603.4" y1="158.8" x2="326.2" y2="158.8"/>
					<line class="st3" x1="603.4" y1="123.4" x2="326.2" y2="123.4"/>
					<line class="st3" x1="376" y1="302.6" x2="376" y2="68.4"/>
					<line class="st3" x1="340.6" y1="302.6" x2="340.6" y2="68.4"/>
					<line class="st3" x1="358.3" y1="302.6" x2="358.3" y2="68.4"/>
					<line class="st3" x1="429.1" y1="302.6" x2="429.1" y2="68.4"/>
					<line class="st3" x1="393.7" y1="302.6" x2="393.7" y2="68.4"/>
					<line class="st3" x1="411.4" y1="302.6" x2="411.4" y2="68.4"/>
					<line class="st3" x1="482.2" y1="302.6" x2="482.2" y2="68.4"/>
					<line class="st3" x1="446.8" y1="302.6" x2="446.8" y2="68.4"/>
					<line class="st3" x1="464.5" y1="302.6" x2="464.5" y2="68.4"/>
					<line class="st3" x1="535.4" y1="302.6" x2="535.4" y2="68.4"/>
					<line class="st3" x1="499.9" y1="302.6" x2="499.9" y2="68.4"/>
					<line class="st3" x1="517.7" y1="302.6" x2="517.7" y2="68.4"/>
					<line class="st3" x1="588.5" y1="302.6" x2="588.5" y2="68.4"/>
					<line class="st3" x1="553.1" y1="302.6" x2="553.1" y2="68.4"/>
					<line class="st3" x1="570.8" y1="302.6" x2="570.8" y2="68.4"/>
				</g>
			</g>
		</g>
		<g>
			<path class="st18" d="M429.1,87.4v178c0,9.5-1.2,17.2-2.4,17.2h-13c-1.2,0-2.4-7.7-2.4-17.2v-178c0-9.5,1.2-16.2,2.2-17.2h13.2
				C427.5,70.2,429.1,77.9,429.1,87.4z"/>
		</g>
	</g>
	<line class="st3" x1="393.7" y1="280.8" x2="349.5" y2="173.4"/>
	<text transform="matrix(6.123234e-17 -1 1 6.123234e-17 425.4048 196.2456)" class="st5 st10">alleles</text>
</g>
</svg>
