<?xml version="1.0" encoding="utf-8"?>
<!-- Generator: Adobe Illustrator 25.4.1, SVG Export Plug-In . SVG Version: 6.00 Build 0)  -->
<svg version="1.1" id="Layer_1" xmlns="http://www.w3.org/2000/svg" xmlns:xlink="http://www.w3.org/1999/xlink" x="0px" y="0px"
	 viewBox="0 0 363 272" style="enable-background:new 0 0 363 272;" xml:space="preserve">
<style type="text/css">
	.st0{fill:url(#SVGID_1_);stroke:#231F20;stroke-width:4;stroke-linecap:round;stroke-linejoin:round;}
	
		.st1{fill:url(#SVGID_00000072266572982473450030000015662960421836738964_);stroke:#231F20;stroke-width:4;stroke-linecap:round;stroke-linejoin:round;}
	
		.st2{fill:url(#SVGID_00000098918542571914534240000011597251230245381004_);stroke:#231F20;stroke-width:4;stroke-linecap:round;stroke-linejoin:round;}
	
		.st3{fill:url(#SVGID_00000020369808483766563440000005807606495154209410_);stroke:#231F20;stroke-width:4;stroke-linecap:round;stroke-linejoin:round;}
	
		.st4{fill:url(#SVGID_00000167378217130739457970000009348071862599255951_);stroke:#231F20;stroke-width:4;stroke-linecap:round;stroke-linejoin:round;}
	
		.st5{fill:url(#SVGID_00000067930762502839637820000017506564120547842183_);stroke:#231F20;stroke-width:4;stroke-linecap:round;stroke-linejoin:round;}
</style>
<linearGradient id="SVGID_1_" gradientUnits="userSpaceOnUse" x1="578.7388" y1="-6.1453" x2="633.0687" y2="81.8846" gradientTransform="matrix(0.16 0.99 -0.87 0.14 39.88 -488.96)">
	<stop  offset="0" style="stop-color:#FFFFFF"/>
	<stop  offset="6.000000e-02" style="stop-color:#E1DDDB"/>
	<stop  offset="0.14" style="stop-color:#BAB2AD"/>
	<stop  offset="0.24" style="stop-color:#988C84"/>
	<stop  offset="0.33" style="stop-color:#7C6C62"/>
	<stop  offset="0.43" style="stop-color:#645146"/>
	<stop  offset="0.54" style="stop-color:#533D30"/>
	<stop  offset="0.66" style="stop-color:#462F21"/>
	<stop  offset="0.8" style="stop-color:#3E2718"/>
	<stop  offset="1" style="stop-color:#3C2415"/>
</linearGradient>
<path class="st0" d="M174.1,165.2C117.8,126.9,92.7,85.9,79.7,21c-1.8-9.2-14.5-2.6-20.9,7.1c-5.9,9-8.4,33.2-8.6,38.3
	C49.3,85.1,58,114.8,75,140c2.6,3.9,27.8,41.3,70.8,45.8C155.7,186.9,194.5,179.1,174.1,165.2z"/>
<linearGradient id="SVGID_00000031184458212213158140000013253664279924746686_" gradientUnits="userSpaceOnUse" x1="109.2754" y1="512.8624" x2="405.4054" y2="1106.4923" gradientTransform="matrix(1 0 0 1 0 -518)">
	<stop  offset="0" style="stop-color:#FFFFFF"/>
	<stop  offset="1" style="stop-color:#3C2415"/>
</linearGradient>
<path style="fill:url(#SVGID_00000031184458212213158140000013253664279924746686_);stroke:#231F20;stroke-width:4;stroke-linecap:round;stroke-linejoin:round;" d="
	M175.6,156.8l31.8-30.5c-0.2-22.5-7.6-56.2-38.5-93.8c-17.1-20.8-45.3-33.2-68.2-29.9C89,4.2,83.2,7.6,85.4,19.5
	c4.7,25.8,5.2,35.2,27.2,73.5c21.9,38.1,31.9,43.2,63.7,65.2L175.6,156.8z"/>
<linearGradient id="SVGID_00000170278559791198996530000001653556417862824891_" gradientUnits="userSpaceOnUse" x1="228.6019" y1="602.7291" x2="310.0219" y2="765.949" gradientTransform="matrix(1 0 0 1 0 -518)">
	<stop  offset="0" style="stop-color:#FFFFFF"/>
	<stop  offset="1" style="stop-color:#3C2415"/>
</linearGradient>
<path style="fill:url(#SVGID_00000170278559791198996530000001653556417862824891_);stroke:#231F20;stroke-width:4;stroke-linecap:round;stroke-linejoin:round;" d="
	M338.5,78c1.6,0.8,2.3,2.8,1.5,4.4c-0.5,1-1.4,1.7-2.5,1.8c-70.5,9-127.8,37.5-172,85.6c-2.1,2.3-5.6,2.4-7.9,0.3
	c-1-0.9-1.6-2.2-1.8-3.5v-0.3c0-0.4-0.1-0.9-0.1-1.5c-1.6-18.9,8.9-34,12.3-38.9c5.5-7.9,14.1-16.9,37.2-29
	C230,84,253.6,71.6,287.1,70.8C299.9,70.6,322.2,70.1,338.5,78z"/>
<linearGradient id="SVGID_00000045580254649274318850000015263423964651402150_" gradientUnits="userSpaceOnUse" x1="240.3583" y1="629.3425" x2="305.7083" y2="735.2325" gradientTransform="matrix(1 0 0 1 0 -518)">
	<stop  offset="0" style="stop-color:#FFFFFF"/>
	<stop  offset="6.000000e-02" style="stop-color:#E1DDDB"/>
	<stop  offset="0.14" style="stop-color:#BAB2AD"/>
	<stop  offset="0.24" style="stop-color:#988C84"/>
	<stop  offset="0.33" style="stop-color:#7C6C62"/>
	<stop  offset="0.43" style="stop-color:#645146"/>
	<stop  offset="0.54" style="stop-color:#533D30"/>
	<stop  offset="0.66" style="stop-color:#462F21"/>
	<stop  offset="0.8" style="stop-color:#3E2718"/>
	<stop  offset="1" style="stop-color:#3C2415"/>
</linearGradient>
<path style="fill:url(#SVGID_00000045580254649274318850000015263423964651402150_);stroke:#231F20;stroke-width:4;stroke-linecap:round;stroke-linejoin:round;" d="
	M345.9,89.7c-71.9,8.2-129.6,36.4-174.8,84.8c-6.2,7-6.2,17.6,0,24.6c7.8,8.5,15.8,12.6,19.7,15c31.4,19.2,75.7,8.2,103.4-6.8
	c4.2-2.3,48.7-27.3,60.1-75.8c2.6-11.2,6-25.7-1.4-38.3l0,0C351.4,90.7,348.7,89.4,345.9,89.7z"/>
<linearGradient id="SVGID_00000126321986152341106090000003562919995175923088_" gradientUnits="userSpaceOnUse" x1="523.6981" y1="374.0437" x2="623.6681" y2="574.4237" gradientTransform="matrix(0.65 0.76 -0.83 0.71 98.13 -524.1)">
	<stop  offset="0" style="stop-color:#FFFFFF"/>
	<stop  offset="1" style="stop-color:#3C2415"/>
</linearGradient>
<path style="fill:url(#SVGID_00000126321986152341106090000003562919995175923088_);stroke:#231F20;stroke-width:4;stroke-linecap:round;stroke-linejoin:round;" d="
	M198,192.8c5.4,13.2,2.9,28-11.2,25.8c-36.9-5.7-71.1-15.1-94.1-25.3c-29.6-13-46.5-18.1-70.1-34.1c-6.2-4.2-4.8-14.5,2.8-19.8
	c18.4-13.1,50.4-14.8,76.4-8.2C169.1,148.3,191.6,177.2,198,192.8z"/>
<linearGradient id="SVGID_00000024695100394032996360000007173859420024532107_" gradientUnits="userSpaceOnUse" x1="509.8185" y1="529.7753" x2="564.7985" y2="618.8654" gradientTransform="matrix(0.72 0.69 -0.61 0.63 57.63 -503.95)">
	<stop  offset="0" style="stop-color:#FFFFFF"/>
	<stop  offset="6.000000e-02" style="stop-color:#E1DDDB"/>
	<stop  offset="0.14" style="stop-color:#BAB2AD"/>
	<stop  offset="0.24" style="stop-color:#988C84"/>
	<stop  offset="0.33" style="stop-color:#7C6C62"/>
	<stop  offset="0.43" style="stop-color:#645146"/>
	<stop  offset="0.54" style="stop-color:#533D30"/>
	<stop  offset="0.66" style="stop-color:#462F21"/>
	<stop  offset="0.8" style="stop-color:#3E2718"/>
	<stop  offset="1" style="stop-color:#3C2415"/>
</linearGradient>
<path style="fill:url(#SVGID_00000024695100394032996360000007173859420024532107_);stroke:#231F20;stroke-width:4;stroke-linecap:round;stroke-linejoin:round;" d="
	M183.6,223.4c-68.2-6.6-107.4-27.9-166.5-59.5c-8-4.3-15.4,6.9-15.1,15.5c0.4,10.8,3.7,18.9,5,23.1c10.9,33.9,51.5,51.8,80.5,61.5
	c4.5,1.5,47.5,15.9,85.3-6.8C181.6,252,208.4,225.8,183.6,223.4z"/>
</svg>
