<?xml version="1.0" encoding="utf-8"?>
<!-- Generator: Adobe Illustrator 25.4.1, SVG Export Plug-In . SVG Version: 6.00 Build 0)  -->
<svg version="1.1" id="Layer_1" xmlns="http://www.w3.org/2000/svg" xmlns:xlink="http://www.w3.org/1999/xlink" x="0px" y="0px"
	 viewBox="0 0 839 272" style="enable-background:new 0 0 839 272;" xml:space="preserve">
<style type="text/css">
	.st0{fill:url(#SVGID_1_);stroke:#231F20;stroke-width:4;stroke-linecap:round;stroke-linejoin:round;}
	
		.st1{fill:url(#SVGID_00000095317685529958600000000009865236044793481094_);stroke:#231F20;stroke-width:4;stroke-linecap:round;stroke-linejoin:round;}
	
		.st2{fill:url(#SVGID_00000160885980439846917750000017792173750801707661_);stroke:#231F20;stroke-width:4;stroke-linecap:round;stroke-linejoin:round;}
	
		.st3{fill:url(#SVGID_00000002342376517939739690000014774906992793888387_);stroke:#231F20;stroke-width:4;stroke-linecap:round;stroke-linejoin:round;}
	
		.st4{fill:url(#SVGID_00000021801312640128478310000003353151342708224182_);stroke:#231F20;stroke-width:4;stroke-linecap:round;stroke-linejoin:round;}
	
		.st5{fill:url(#SVGID_00000155858768337490248500000017569454043064931471_);stroke:#231F20;stroke-width:4;stroke-linecap:round;stroke-linejoin:round;}
	.st6{fill:#7F7F7F;}
</style>
<g id="Layer_2_00000037658041902385701100000002445661813521050302_">
	<g id="Layer_1-2">
		
			<linearGradient id="SVGID_1_" gradientUnits="userSpaceOnUse" x1="189.1086" y1="765.2894" x2="243.4386" y2="677.2595" gradientTransform="matrix(0.16 0.99 0.87 -0.14 -558.23 3.06)">
			<stop  offset="0" style="stop-color:#FFFFFF"/>
			<stop  offset="6.000000e-02" style="stop-color:#E1DDDB"/>
			<stop  offset="0.14" style="stop-color:#BAB2AD"/>
			<stop  offset="0.24" style="stop-color:#988C84"/>
			<stop  offset="0.33" style="stop-color:#7C6C62"/>
			<stop  offset="0.43" style="stop-color:#645146"/>
			<stop  offset="0.54" style="stop-color:#533D30"/>
			<stop  offset="0.66" style="stop-color:#462F21"/>
			<stop  offset="0.8" style="stop-color:#3E2718"/>
			<stop  offset="1" style="stop-color:#3C2415"/>
		</linearGradient>
		<path class="st0" d="M174.1,165.2C117.8,126.9,92.7,85.9,79.7,21c-1.8-9.2-14.5-2.6-20.9,7.1c-5.9,9-8.4,33.2-8.6,38.3
			C49.3,85.1,58,114.8,75,140c2.6,3.9,27.8,41.3,70.8,45.8C155.7,186.9,194.5,179.1,174.1,165.2z"/>
		
			<linearGradient id="SVGID_00000067226036288394820730000001185650238997364908_" gradientUnits="userSpaceOnUse" x1="109.2378" y1="279.1189" x2="405.3678" y2="-314.5111" gradientTransform="matrix(1 0 0 -1 0 274)">
			<stop  offset="0" style="stop-color:#FFFFFF"/>
			<stop  offset="1" style="stop-color:#3C2415"/>
		</linearGradient>
		
			<path style="fill:url(#SVGID_00000067226036288394820730000001185650238997364908_);stroke:#231F20;stroke-width:4;stroke-linecap:round;stroke-linejoin:round;" d="
			M175.6,156.8l31.8-30.5c-0.2-22.5-7.6-56.2-38.5-93.8c-17.1-20.8-45.3-33.2-68.2-29.9C89,4.2,83.2,7.6,85.4,19.5
			c4.7,25.8,5.2,35.2,27.2,73.5c21.9,38.1,31.9,43.2,63.7,65.2L175.6,156.8z"/>
		
			<linearGradient id="SVGID_00000072262840269291048200000013303779156539661964_" gradientUnits="userSpaceOnUse" x1="228.6138" y1="189.2769" x2="310.0338" y2="26.0569" gradientTransform="matrix(1 0 0 -1 0 274)">
			<stop  offset="0" style="stop-color:#FFFFFF"/>
			<stop  offset="1" style="stop-color:#3C2415"/>
		</linearGradient>
		
			<path style="fill:url(#SVGID_00000072262840269291048200000013303779156539661964_);stroke:#231F20;stroke-width:4;stroke-linecap:round;stroke-linejoin:round;" d="
			M338.5,78c1.6,0.8,2.3,2.8,1.5,4.4c-0.5,1-1.4,1.7-2.5,1.8c-70.5,9-127.8,37.5-172,85.6c-2.1,2.3-5.6,2.4-7.9,0.3
			c-1-0.9-1.6-2.2-1.8-3.5v-0.3c0-0.4-0.1-0.9-0.1-1.5c-1.6-18.9,8.9-34,12.3-38.9c5.5-7.9,14.1-16.9,37.2-29
			C230,84,253.6,71.6,287.1,70.8C299.9,70.6,322.2,70.1,338.5,78z"/>
		
			<linearGradient id="SVGID_00000099646809201222642710000008242207965748406436_" gradientUnits="userSpaceOnUse" x1="240.3603" y1="162.6587" x2="305.7102" y2="56.7687" gradientTransform="matrix(1 0 0 -1 0 274)">
			<stop  offset="0" style="stop-color:#FFFFFF"/>
			<stop  offset="6.000000e-02" style="stop-color:#E1DDDB"/>
			<stop  offset="0.14" style="stop-color:#BAB2AD"/>
			<stop  offset="0.24" style="stop-color:#988C84"/>
			<stop  offset="0.33" style="stop-color:#7C6C62"/>
			<stop  offset="0.43" style="stop-color:#645146"/>
			<stop  offset="0.54" style="stop-color:#533D30"/>
			<stop  offset="0.66" style="stop-color:#462F21"/>
			<stop  offset="0.8" style="stop-color:#3E2718"/>
			<stop  offset="1" style="stop-color:#3C2415"/>
		</linearGradient>
		
			<path style="fill:url(#SVGID_00000099646809201222642710000008242207965748406436_);stroke:#231F20;stroke-width:4;stroke-linecap:round;stroke-linejoin:round;" d="
			M345.9,89.7c-71.9,8.2-129.6,36.4-174.8,84.8c-6.2,7-6.2,17.6,0,24.6c7.8,8.5,15.8,12.6,19.7,15c31.4,19.2,75.7,8.2,103.4-6.8
			c4.2-2.3,48.7-27.3,60.1-75.8c2.6-11.2,6-25.7-1.4-38.3l0,0C351.4,90.7,348.7,89.4,345.9,89.7z"/>
		
			<linearGradient id="SVGID_00000023270419578453526330000004562456840578683323_" gradientUnits="userSpaceOnUse" x1="270.9143" y1="424.4155" x2="370.8843" y2="224.0355" gradientTransform="matrix(0.65 0.76 0.83 -0.71 -400.26 234.93)">
			<stop  offset="0" style="stop-color:#FFFFFF"/>
			<stop  offset="1" style="stop-color:#3C2415"/>
		</linearGradient>
		
			<path style="fill:url(#SVGID_00000023270419578453526330000004562456840578683323_);stroke:#231F20;stroke-width:4;stroke-linecap:round;stroke-linejoin:round;" d="
			M198,192.8c5.4,13.2,2.9,28-11.2,25.8c-36.9-5.7-71.1-15.1-94.1-25.3c-29.6-13-46.5-18.1-70.1-34.1c-6.2-4.2-4.8-14.5,2.8-19.8
			c18.4-13.1,50.4-14.8,76.4-8.2C169.1,148.3,191.6,177.2,198,192.8z"/>
		
			<linearGradient id="SVGID_00000131342389678128986930000010259589797161925512_" gradientUnits="userSpaceOnUse" x1="284.4142" y1="342.7058" x2="339.3942" y2="253.6158" gradientTransform="matrix(0.72 0.69 0.61 -0.63 -312.3 201.24)">
			<stop  offset="0" style="stop-color:#FFFFFF"/>
			<stop  offset="6.000000e-02" style="stop-color:#E1DDDB"/>
			<stop  offset="0.14" style="stop-color:#BAB2AD"/>
			<stop  offset="0.24" style="stop-color:#988C84"/>
			<stop  offset="0.33" style="stop-color:#7C6C62"/>
			<stop  offset="0.43" style="stop-color:#645146"/>
			<stop  offset="0.54" style="stop-color:#533D30"/>
			<stop  offset="0.66" style="stop-color:#462F21"/>
			<stop  offset="0.8" style="stop-color:#3E2718"/>
			<stop  offset="1" style="stop-color:#3C2415"/>
		</linearGradient>
		
			<path style="fill:url(#SVGID_00000131342389678128986930000010259589797161925512_);stroke:#231F20;stroke-width:4;stroke-linecap:round;stroke-linejoin:round;" d="
			M183.6,223.4c-68.2-6.6-107.4-27.9-166.5-59.5c-8-4.3-15.4,6.9-15.1,15.5c0.4,10.8,3.7,18.9,5,23.1c10.9,33.9,51.5,51.8,80.5,61.5
			c4.5,1.5,47.5,15.9,85.3-6.8C181.6,252,208.4,225.8,183.6,223.4z"/>
		<g>
			<path class="st6" d="M455.3,130.3c10.9,0,19.3,3.9,25.4,11.8s9.1,18.9,9.1,33.1c0,14.3-3.1,25.4-9.2,33.3
				c-6.1,7.9-14.7,11.9-25.6,11.9c-11,0-19.6-4-25.6-11.9h-1.3l-3.4,10.3h-13.8V96.4h18.5v29.1c0,2.2-0.1,5.3-0.3,9.6
				s-0.4,7-0.5,8.1h0.8C435.2,134.6,443.8,130.3,455.3,130.3z M450.5,145.4c-7.4,0-12.8,2.2-16.1,6.6s-5,11.7-5.1,22v1.3
				c0,10.6,1.7,18.3,5,23c3.3,4.7,8.8,7.1,16.5,7.1c6.5,0,11.5-2.6,14.9-7.8c3.4-5.2,5.1-12.7,5.1-22.5
				C470.8,155.3,464,145.4,450.5,145.4z"/>
		</g>
		<g>
			<path class="st6" d="M549.2,220.4c-13.5,0-24.1-3.9-31.8-11.8S506,189.8,506,176c0-14.2,3.5-25.4,10.6-33.5
				c7.1-8.1,16.8-12.2,29.2-12.2c11.5,0,20.6,3.5,27.2,10.5s10,16.6,10,28.8v10h-58c0.3,8.4,2.6,14.9,6.8,19.5
				c4.3,4.5,10.4,6.8,18.2,6.8c4.8,0,9.6-0.5,14.4-1.5c4.9-1.1,9.7-2.7,14.3-4.8v15c-4.3,2.1-8.9,3.6-13.7,4.6
				C559.8,220,554.5,220.5,549.2,220.4z M545.8,144.3c-5.9,0-10.6,1.9-14.1,5.6s-5.7,9.2-6.3,16.3h39.5c-0.1-7.2-1.8-12.6-5.2-16.3
				S551.7,144.3,545.8,144.3L545.8,144.3z"/>
		</g>
		<g>
			<path class="st6" d="M658.5,218.8l-3.7-12.1h-0.6c-4.2,5.3-8.4,8.9-12.7,10.8c-4.2,1.9-9.7,2.8-16.4,2.9c-8.6,0-15.2-2.3-20-6.9
				c-4.8-4.6-7.2-11.1-7.2-19.6c0-9,3.3-15.7,10-20.3c6.7-4.6,16.8-7,30.4-7.5l15-0.5V161c0-5.6-1.3-9.7-3.9-12.5
				c-2.6-2.8-6.6-4.1-12.1-4.1c-4.4,0-8.7,0.7-12.8,2c-4,1.3-8,2.8-11.8,4.6l-6-13.2c4.9-2.5,10.1-4.4,15.5-5.6
				c5.2-1.2,10.5-1.9,15.9-1.9c11.1,0,19.4,2.4,25.1,7.2s8.5,12.4,8.5,22.7v58.6L658.5,218.8z M630.9,206.2c6.7,0,12.1-1.9,16.2-5.6
				s6.1-9,6.1-15.8v-7.6l-11.2,0.5c-8.7,0.3-15,1.8-19,4.4c-4,2.6-5.9,6.6-5.9,11.9c0,3.9,1.2,6.9,3.5,9S626.3,206.2,630.9,206.2z"
				/>
		</g>
		<g>
			<path class="st6" d="M774,218.8h-18.6v-53.5c0-6.7-1.3-11.7-4-15c-2.7-3.3-7-4.9-12.9-5c-7.8,0-13.5,2.3-17.2,6.9
				c-3.6,4.6-5.4,12.3-5.4,23.2v43.4h-18.5v-87H712l2.6,11.4h0.9c2.7-4.2,6.6-7.6,11.2-9.6c5-2.3,10.5-3.4,16.1-3.4
				c20.9,0,31.3,10.6,31.3,31.9L774,218.8z"/>
		</g>
	</g>
</g>
</svg>
