<?xml version="1.0" encoding="utf-8"?>
<!-- Generator: Adobe Illustrator 25.4.1, SVG Export Plug-In . SVG Version: 6.00 Build 0)  -->
<svg version="1.1" id="Layer_1" xmlns="http://www.w3.org/2000/svg" xmlns:xlink="http://www.w3.org/1999/xlink" x="0px" y="0px"
	 viewBox="0 0 479.8 544.3" style="enable-background:new 0 0 479.8 544.3;" xml:space="preserve">
<style type="text/css">
	.st0{fill:#FFFFFF;fill-opacity:0.7;stroke:#808080;stroke-miterlimit:10;}
	.st1{fill:#FFFFFF;fill-opacity:0.7;stroke:#9FBC2E;stroke-width:2.2229;}
	.st2{fill:#FFFFFF;fill-opacity:0.7;stroke:#00BBD6;stroke-width:2;}
	.st3{fill:#FFFFFF;fill-opacity:0.7;stroke:#005F94;stroke-width:2.2229;}
	.st4{fill:#A3A3A3;stroke:#000000;stroke-width:1.0611;}
	.st5{fill:#A3A3A3;stroke:#000000;stroke-width:1.3246;}
	.st6{fill:#A3A3A3;stroke:#000000;stroke-width:1.7685;stroke-dasharray:1.638,1.6378;}
	.st7{font-family:'Consolas';}
	.st8{font-size:13px;}
	.st9{fill:#FFFFFF;fill-opacity:0.7;stroke:#D6562B;stroke-width:2.2229;}
	.st10{font-size:8px;}
	.st11{enable-background:new    ;}
	.st12{font-family:'MyriadPro-Regular';}
	.st13{font-size:10px;}
	.st14{fill:none;stroke:#808080;stroke-width:2.7781;}
	.st15{fill:#808080;}
	.st16{font-family:'ArialMT';}
	.st17{fill:#5393B7;stroke:#5393B7;stroke-width:2;}
	.st18{fill:#5393B7;}
	.st19{font-family:'Arial-BoldMT';}
	.st20{font-size:10.1099px;}
	.st21{fill:url(#SVGID_1_);stroke:#231F20;stroke-width:0.4608;stroke-miterlimit:10;}
	
		.st22{fill:url(#SVGID_00000052063034983002139180000006472050053750726537_);stroke:#231F20;stroke-width:0.4608;stroke-miterlimit:10;}
	.st23{fill:#D3EEFB;stroke:#231F20;stroke-width:0.4608;stroke-miterlimit:10;}
	.st24{fill:#D3EEFB;stroke:#231F20;stroke-width:0.3779;stroke-miterlimit:10;}
	.st25{fill:#231F20;}
	.st26{font-size:6px;}
	
		.st27{fill:url(#SVGID_00000125583706849668623120000002053696931778767530_);stroke:#231F20;stroke-width:0.4608;stroke-miterlimit:10;}
	.st28{fill:#FFD7A9;stroke:#231F20;stroke-width:0.4608;stroke-miterlimit:10;}
	.st29{fill:none;stroke:#EC1C24;stroke-width:0.8422;stroke-miterlimit:10;stroke-dasharray:0.6982;}
	.st30{fill:url(#SVGID_00000063614931112160165150000012629321732481989045_);}
	.st31{font-size:3.5856px;}
	.st32{fill:#FFFFFF;stroke:#000000;stroke-width:1.3246;}
	.st33{fill:#FFFFFF;stroke:#000000;stroke-width:1.0611;}
	.st34{fill:none;stroke:#5393B7;stroke-width:2;}
	.st35{fill:#FFFFFF;fill-opacity:0.7;stroke:#F4BB3A;stroke-width:2.2229;}
	.st36{fill:#FFFFFF;stroke:#000000;stroke-width:1.2797;}
	.st37{fill:#A3A3A3;stroke:#000000;stroke-width:1.1894;}
	.st38{fill:none;stroke:#808080;stroke-width:2;}
</style>
<path class="st0" d="M462.9,535.6h-80.1c-2.6,0-4.7-2.1-4.7-4.7V421.3c0-2.6,2.1-4.7,4.7-4.7h80.1c2.6,0,4.7,2.1,4.7,4.7v109.5
	C467.6,533.4,465.5,535.6,462.9,535.6z"/>
<path class="st1" d="M237.5,294.1h-75.4c-7.4,0-14.8,6-14.8,12v12c0,6,7.4,12,14.8,12h75.4c7.4,0,14.8-6,14.8-12v-12
	C252.4,300.1,245,294.1,237.5,294.1"/>
<path class="st2" d="M237.5,366.3h-75.4c-7.4,0-14.8,6-14.8,12v12c0,6,7.4,12,14.8,12h75.4c7.4,0,14.8-6,14.8-12v-12
	C252.4,372.3,245,366.3,237.5,366.3"/>
<path class="st3" d="M237.5,438.1h-75.4c-7.4,0-14.8,6-14.8,12v12c0,6,7.4,12,14.8,12h75.4c7.4,0,14.8-6,14.8-12v-12
	C252.4,444.1,245,438.1,237.5,438.1"/>
<g>
	<path class="st4" d="M442.3,465.2H404c-5.3,0-9.6-4.3-9.6-9.6v-7.5c0-5.3,4.3-9.6,9.6-9.6h38.3c5.3,0,9.6,4.3,9.6,9.6v7.5
		C451.9,460.9,447.6,465.2,442.3,465.2z"/>
</g>
<path class="st5" d="M242.1,54.4h-29.8c-6.6,0-12-5.4-12-12v-8c0-6.6,5.4-12,12-12h29.8c6.6,0,12,5.4,12,12v8
	C254.1,49,248.7,54.4,242.1,54.4z"/>
<path class="st5" d="M245.8,57.2H216c-6.6,0-12-5.4-12-12v-8c0-6.6,5.4-12,12-12h29.8c6.6,0,12,5.4,12,12v8
	C257.8,51.8,252.4,57.2,245.8,57.2z"/>
<path class="st5" d="M249.4,60.1h-29.8c-6.6,0-12-5.4-12-12v-8c0-6.6,5.4-12,12-12h29.8c6.6,0,12,5.4,12,12v8
	C261.4,54.7,256,60.1,249.4,60.1z"/>
<path class="st6" d="M105.3,400.6H30.9c-6.6,0-12-5.4-12-12V380c0-6.6,5.4-12,12-12h74.3c6.6,0,12,5.4,12,12v8.7
	C117.3,395.2,111.9,400.6,105.3,400.6z"/>
<g id="node1">
	<text transform="matrix(1 0 0 1 191.0677 461.0871)" class="st7 st8">run</text>
</g>
<text transform="matrix(1 0 0 1 191.6089 317.0872)" class="st7 st8">qc</text>
<text transform="matrix(1 0 0 1 177.3141 389.3725)" class="st7 st8">filter</text>
<path class="st9" d="M237.5,129.9h-75.4c-7.4,0-14.8,6-14.8,12v12c0,6,7.4,12,14.8,12h75.4c7.4,0,14.8-6,14.8-12v-12
	C252.4,135.9,245,129.9,237.5,129.9"/>
<text transform="matrix(1 0 0 1 153.3086 150.4698)" class="st7 st8">count-samples</text>
<text transform="matrix(1 0 0 1 217.9273 47.84)" class="st7 st10">R1.fastq</text>
<path class="st5" d="M307.5,54.4h-29.8c-6.6,0-12-5.4-12-12v-8c0-6.6,5.4-12,12-12h29.8c6.6,0,12,5.4,12,12v8
	C319.5,49,314.1,54.4,307.5,54.4z"/>
<path class="st5" d="M311.1,57.2h-29.8c-6.6,0-12-5.4-12-12v-8c0-6.6,5.4-12,12-12h29.8c6.6,0,12,5.4,12,12v8
	C323.1,51.8,317.7,57.2,311.1,57.2z"/>
<path class="st5" d="M314.8,60.1H285c-6.6,0-12-5.4-12-12v-8c0-6.6,5.4-12,12-12h29.8c6.6,0,12,5.4,12,12v8
	C326.8,54.7,321.4,60.1,314.8,60.1z"/>
<text transform="matrix(1 0 0 1 283.2934 47.84)" class="st7 st10">R2.fastq</text>
<text transform="matrix(1 0 0 1 30.9756 381.6878)" class="st11"><tspan x="0" y="0" class="st12 st13">Coding regions of</tspan><tspan x="5.5" y="12" class="st12 st13">targeted genes</tspan></text>
<g>
	<line x1="118.6" y1="384.3" x2="146" y2="384.3"/>
	<g>
		<line class="st14" x1="118.6" y1="384.3" x2="137.7" y2="384.3"/>
		<g>
			<path class="st15" d="M146,384.3c-3.9,1.5-8.8,4-11.9,6.6l2.4-6.6l-2.4-6.6C137.2,380.3,142.1,382.8,146,384.3z"/>
		</g>
	</g>
</g>
<g>
	<text transform="matrix(1 0 0 1 410.4277 454.1769)" class="st16 st13">Input</text>
</g>
<path class="st6" d="M442.3,498.2H404c-5.3,0-9.6-4.3-9.6-9.6v-7.5c0-5.3,4.3-9.6,9.6-9.6h38.3c5.3,0,9.6,4.3,9.6,9.6v7.5
	C451.9,493.9,447.6,498.2,442.3,498.2z"/>
<g>
	<text transform="matrix(1 0 0 1 412.028 482.1603)"><tspan x="0" y="0" class="st16 st13">Input</tspan><tspan x="-10.8" y="12" class="st16 st13">(Optional)</tspan></text>
</g>
<text transform="matrix(1 0 0 1 406.4927 428.0534)" class="st16 st13">Legend</text>
<circle class="st17" cx="200.8" cy="204.2" r="2"/>
<line class="st17" x1="200.8" y1="204.2" x2="175.6" y2="204.2"/>
<text transform="matrix(1 0 0 1 2.4822 196.4639)" class="st18 st19 st20">AnnData-based ReporterScreen object</text>
<g>
	
		<radialGradient id="SVGID_1_" cx="45.5796" cy="248.4671" r="20.3175" gradientTransform="matrix(1.487 0 0 1 -8.6208 0)" gradientUnits="userSpaceOnUse">
		<stop  offset="0" style="stop-color:#FFFFFF"/>
		<stop  offset="1" style="stop-color:#FFD7A9"/>
	</radialGradient>
	<rect x="38.5" y="223.3" class="st21" width="41.2" height="50.3"/>
	
		<radialGradient id="SVGID_00000011013920799796925020000004031083832209976210_" cx="43.7914" cy="245.7586" r="20.3175" gradientTransform="matrix(1.487 0 0 1 -8.6208 0)" gradientUnits="userSpaceOnUse">
		<stop  offset="0" style="stop-color:#FFFFFF"/>
		<stop  offset="1" style="stop-color:#D3EEFB"/>
	</radialGradient>
	
		<rect x="35.9" y="220.6" style="fill:url(#SVGID_00000011013920799796925020000004031083832209976210_);stroke:#231F20;stroke-width:0.4608;stroke-miterlimit:10;" width="41.2" height="50.3"/>
	<path class="st23" d="M77.1,220.6H35.9v-10c0-2.3,1.8-4.1,4.1-4.1H73c2.3,0,4.1,1.8,4.1,4.1V220.6z"/>
	<path class="st24" d="M21.8,267.7v-43.9c0-1.7,1.4-3.1,3.1-3.1h10.9v50.1H25C23.2,270.8,21.8,269.4,21.8,267.7z"/>
	<text transform="matrix(0 -1 1 0 30.4955 256.0474)" class="st25 st16 st26">guides</text>
	<g>
		<text transform="matrix(1 0 0 1 46.0085 215.448)" class="st25 st16 st26">samples</text>
	</g>
	<g>
		<text transform="matrix(1 0 0 1 41.1659 245.7584)" class="st25 st16 st26">gRNA counts</text>
	</g>
	
		<radialGradient id="SVGID_00000051341041800554529810000011239674130729085631_" cx="100.9555" cy="245.7586" r="20.3175" gradientTransform="matrix(1.487 0 0 1 -8.6208 0)" gradientUnits="userSpaceOnUse">
		<stop  offset="0" style="stop-color:#FFFFFF"/>
		<stop  offset="1" style="stop-color:#FFD7A9"/>
	</radialGradient>
	
		<rect x="120.9" y="220.6" style="fill:url(#SVGID_00000051341041800554529810000011239674130729085631_);stroke:#231F20;stroke-width:0.4608;stroke-miterlimit:10;" width="41.2" height="50.3"/>
	<path class="st28" d="M162.1,220.6h-41.2v-9.9c0-2.3,1.9-4.2,4.2-4.2H158c2.3,0,4.2,1.9,4.2,4.2V220.6z"/>
	<path class="st28" d="M92.4,266.5V225c0-2.4,1.9-4.3,4.3-4.3h9.7v50.1h-9.7C94.4,270.8,92.4,268.9,92.4,266.5z"/>
	<text transform="matrix(1 0 0 1 87.6356 218.1743)" class="st25 st16 st26">gRNA</text>
	<text transform="matrix(1 0 0 1 106.4541 218.1741)" class="st25 st16 st26">Allele</text>
	<g>
		<text transform="matrix(1 0 0 1 130.3317 215.4481)" class="st25 st16 st26">samples</text>
	</g>
	<g>
		<text transform="matrix(1 0 0 1 125.4911 244.2955)" class="st25 st16 st26">Allele counts</text>
	</g>
	<rect x="21.8" y="226.2" class="st29" width="55.3" height="2.5"/>
	
		<rect x="88.6" y="238.7" transform="matrix(-1.836970e-16 1 -1 -1.836970e-16 359.3815 132.1357)" class="st28" width="50.1" height="14"/>
	<rect x="92.2" y="227.9" class="st29" width="28.7" height="16.4"/>
	
		<linearGradient id="SVGID_00000009589986077310942470000001791854560056186808_" gradientUnits="userSpaceOnUse" x1="128.4518" y1="271.9983" x2="128.4518" y2="250.718">
		<stop  offset="0" style="stop-color:#FFFFFF"/>
		<stop  offset="0.4162" style="stop-color:#FFFFFF"/>
		<stop  offset="1" style="stop-color:#FFFFFF;stop-opacity:0"/>
	</linearGradient>
	
		<rect x="84.1" y="250.7" style="fill:url(#SVGID_00000009589986077310942470000001791854560056186808_);" width="88.7" height="21.3"/>
	<text transform="matrix(1 0 0 1 93.2004 231.7185)" class="st25 st16 st31">gRNA1</text>
	<text transform="matrix(1 0 0 1 108.2414 231.7185)" class="st25 st16 st31">Allele1</text>
	<text transform="matrix(1 0 0 1 108.2405 236.0876)" class="st25 st16 st31">Allele2</text>
	<text transform="matrix(0 -1 1 0 113.6223 240.2952)" class="st25 st16 st31">...</text>
	<line class="st29" x1="77.1" y1="226.2" x2="92.2" y2="227.9"/>
	<line class="st29" x1="77.1" y1="228.6" x2="92.2" y2="244.3"/>
</g>
<g id="edge1">
	<path class="st17" d="M200.8,401.5c0,7.7,0,17,0,25.6"/>
	<polygon class="st17" points="204.3,427.1 200.8,437.1 197.3,427.1 	"/>
</g>
<g id="edge2">
	<path class="st17" d="M200.8,329.5c0,7.7,0,17,0,25.6"/>
	<polygon class="st17" points="204.3,355.1 200.8,365.1 197.3,355.1 	"/>
</g>
<g id="edge3">
	<path class="st17" d="M200.8,165.9c0,7.7,0,108.6,0,117.2"/>
	<polygon class="st17" points="204.3,283.1 200.8,293.1 197.3,283.1 	"/>
</g>
<g>
	<line x1="252.4" y1="312.1" x2="279.8" y2="312.1"/>
	<g>
		<line class="st14" x1="252.4" y1="312.1" x2="271.4" y2="312.1"/>
		<g>
			<path class="st15" d="M279.8,312.1c-3.9,1.5-8.8,4-11.9,6.6l2.4-6.6l-2.4-6.6C271,308.2,275.9,310.7,279.8,312.1z"/>
		</g>
	</g>
</g>
<path class="st32" d="M409.5,328.1H291.7c-6.6,0-12-5.4-12-12v-8c0-6.6,5.4-12,12-12h117.8c6.6,0,12,5.4,12,12v8
	C421.5,322.7,416.1,328.1,409.5,328.1z"/>
<text transform="matrix(1 0 0 1 291.5916 315.1079)" class="st7 st13">qc_report.[html,ipynb]</text>
<g>
	<line x1="253.7" y1="385.5" x2="281.1" y2="385.5"/>
	<g>
		<line class="st14" x1="253.7" y1="385.5" x2="272.8" y2="385.5"/>
		<g>
			<path class="st15" d="M281.1,385.5c-3.9,1.5-8.8,4-11.9,6.6l2.4-6.6l-2.4-6.6C272.3,381.5,277.2,384,281.1,385.5z"/>
		</g>
	</g>
</g>
<path class="st32" d="M425.5,401.5H293.3c-6.6,0-12-5.4-12-12v-8c0-6.6,5.4-12,12-12h132.2c6.6,0,12,5.4,12,12v8
	C437.5,396.1,432.1,401.5,425.5,401.5z"/>
<text transform="matrix(1 0 0 1 320.2975 382.2942)" class="st11"><tspan x="0" y="0" class="st7 st13">filter_log.txt</tspan><tspan x="-30.2" y="12" class="st7 st13">filtered_allele_stats.pdf</tspan></text>
<g>
	<line x1="200.8" y1="475.1" x2="200.8" y2="502.5"/>
	<g>
		<line class="st14" x1="200.8" y1="475.1" x2="200.8" y2="494.2"/>
		<g>
			<path class="st15" d="M200.8,502.5c-1.5-3.9-4-8.8-6.6-11.9l6.6,2.4l6.6-2.4C204.7,493.7,202.2,498.6,200.8,502.5z"/>
		</g>
	</g>
</g>
<path class="st32" d="M262.1,535.5H136.4c-6.6,0-12-5.4-12-12v-8c0-6.6,5.4-12,12-12h125.7c6.6,0,12,5.4,12,12v8
	C274.1,530.1,268.7,535.5,262.1,535.5z"/>
<text transform="matrix(1 0 0 1 136.2228 516.6678)" class="st11"><tspan x="0" y="0" class="st7 st13">bean_element_result.csv</tspan><tspan x="5.5" y="12" class="st7 st13">bean_sgRNA_result.csv</tspan></text>
<g>
	<path class="st33" d="M442.3,530.2H404c-5.3,0-9.6-4.3-9.6-9.6v-7.5c0-5.3,4.3-9.6,9.6-9.6h38.3c5.3,0,9.6,4.3,9.6,9.6v7.5
		C451.9,525.8,447.6,530.2,442.3,530.2z"/>
</g>
<g>
	<text transform="matrix(1 0 0 1 407.7682 519.1064)" class="st16 st13">Output</text>
</g>
<circle class="st17" cx="199.8" cy="224.5" r="2"/>
<g>
	<line class="st18" x1="199.8" y1="224.5" x2="236.4" y2="224.5"/>
	<g>
		<line class="st34" x1="199.8" y1="224.5" x2="224" y2="224.5"/>
		<g>
			<polygon class="st18" points="221.2,228.6 236.4,224.5 221.2,220.4 			"/>
		</g>
	</g>
</g>
<path class="st35" d="M326.5,206.5h-75.4c-7.4,0-14.8,6-14.8,12v12c0,6,7.4,12,14.8,12h75.4c7.4,0,14.8-6,14.8-12v-12
	C341.4,212.5,334,206.5,326.5,206.5"/>
<text transform="matrix(1 0 0 1 263.8561 228.6219)" class="st7 st8">profile</text>
<g>
	<line x1="341.4" y1="224.8" x2="359.6" y2="224.8"/>
	<g>
		<line class="st14" x1="341.4" y1="224.8" x2="351.2" y2="224.8"/>
		<g>
			<path class="st15" d="M359.6,224.8c-3.9,1.5-8.8,4-11.9,6.6l2.4-6.6l-2.4-6.6C350.7,220.8,355.6,223.3,359.6,224.8z"/>
		</g>
	</g>
</g>
<path class="st36" d="M463.8,240.8h-93.1c-6.6,0-12-5.4-12-12v-8c0-6.6,5.4-12,12-12h93.1c6.6,0,12,5.4,12,12v8
	C475.8,235.4,470.4,240.8,463.8,240.8z"/>
<text transform="matrix(1 0 0 1 362.2634 222.4651)" class="st11"><tspan x="0" y="0" class="st7 st13">editing_preferences.</tspan><tspan x="22" y="12" class="st7 st13">[html,ipynb]</tspan></text>
<path class="st37" d="M304.4,93.6h-81.7c-6.2,0-11.3-5.1-11.3-11.3v-6.1c0-6.2,5.1-11.3,11.3-11.3h81.7c6.2,0,11.3,5.1,11.3,11.3
	v6.1C315.7,88.5,310.6,93.6,304.4,93.6z"/>
<text transform="matrix(1 0 0 1 222.8353 82.396)" class="st7 st13">sample_list.csv</text>
<path class="st37" d="M185.2,93.6h-81.7c-6.2,0-11.3-5.1-11.3-11.3v-6.1c0-6.2,5.1-11.3,11.3-11.3h81.7c6.2,0,11.3,5.1,11.3,11.3
	v6.1C196.5,88.5,191.4,93.6,185.2,93.6z"/>
<text transform="matrix(1 0 0 1 105.5776 83.2553)" class="st7 st13">gRNA_info.csv</text>
<g>
	<g>
		<line x1="203.8" y1="129.1" x2="203.8" y2="106.2"/>
		<g>
			<line class="st38" x1="203.8" y1="123" x2="203.8" y2="106.2"/>
			<g>
				<path class="st15" d="M203.8,129.1c1.1-2.8,2.9-6.4,4.8-8.5l-4.8,1.7l-4.8-1.7C201,122.7,202.7,126.2,203.8,129.1z"/>
			</g>
		</g>
	</g>
	<polyline class="st38" points="175,93.6 175,106.2 233.5,106.2 233.5,93.6 	"/>
</g>
</svg>
